<mxfile host="Electron" modified="2024-09-27T12:04:48.767Z" agent="Mozilla/5.0 (Windows NT 10.0; Win64; x64) AppleWebKit/537.36 (KHTML, like Gecko) draw.io/24.4.13 Chrome/124.0.6367.207 Electron/30.0.6 Safari/537.36" etag="2GlmMZYYZ-1cMo_6NHeu" version="24.4.13" type="device">
  <diagram id="SMtkEqthLSzbbuAYHJ1f" name="Роадмап">
    <mxGraphModel dx="4600" dy="4997" grid="0" gridSize="10" guides="1" tooltips="1" connect="1" arrows="1" fold="1" page="0" pageScale="1" pageWidth="827" pageHeight="1169" math="0" shadow="0">
      <root>
        <mxCell id="0" />
        <mxCell id="1" parent="0" />
        <mxCell id="Qe2ctfDx3bP94FrgvdR_-27" value="" style="rounded=0;whiteSpace=wrap;html=1;" parent="1" vertex="1">
          <mxGeometry x="16289" y="-1147.49" width="1729" height="912.49" as="geometry" />
        </mxCell>
        <mxCell id="Qe2ctfDx3bP94FrgvdR_-22" value="" style="rounded=0;whiteSpace=wrap;html=1;" parent="1" vertex="1">
          <mxGeometry x="12400" y="-2970" width="1636" height="1056" as="geometry" />
        </mxCell>
        <mxCell id="Qe2ctfDx3bP94FrgvdR_-14" value="" style="rounded=0;whiteSpace=wrap;html=1;fontSize=17;dashed=1;" parent="1" vertex="1">
          <mxGeometry x="12478" y="-2389" width="653" height="441" as="geometry" />
        </mxCell>
        <mxCell id="NFoID1fx7Li7X_geI93Q-2" value="" style="rounded=0;whiteSpace=wrap;html=1;" parent="1" vertex="1">
          <mxGeometry x="10343" y="605" width="1244" height="890" as="geometry" />
        </mxCell>
        <mxCell id="4OpA59mFUHqF1ij6CXcK-9" value="" style="rounded=0;whiteSpace=wrap;html=1;" parent="1" vertex="1">
          <mxGeometry x="11750" y="-332.5" width="718" height="480" as="geometry" />
        </mxCell>
        <mxCell id="4OpA59mFUHqF1ij6CXcK-2" value="" style="rounded=0;whiteSpace=wrap;html=1;align=left;" parent="1" vertex="1">
          <mxGeometry x="10685" y="-1025.94" width="710" height="410" as="geometry" />
        </mxCell>
        <mxCell id="0zRKcqBRlIFoqRzkqeEJ-70" value="" style="rounded=0;whiteSpace=wrap;html=1;" parent="1" vertex="1">
          <mxGeometry x="12307" y="705" width="1594.37" height="720" as="geometry" />
        </mxCell>
        <mxCell id="y0rBNbmr6j8nYNEE8hnT-1" value="" style="rounded=0;whiteSpace=wrap;html=1;" parent="1" vertex="1">
          <mxGeometry x="14376" y="828.14" width="1867" height="965" as="geometry" />
        </mxCell>
        <mxCell id="y0rBNbmr6j8nYNEE8hnT-12" value="" style="rounded=0;whiteSpace=wrap;html=1;dashed=1;" parent="1" vertex="1">
          <mxGeometry x="12357.000000000002" y="760.6399999999999" width="720" height="624.36" as="geometry" />
        </mxCell>
        <mxCell id="vXsJCSpQS5DEUu_Gp0zB-65" value="" style="rounded=0;whiteSpace=wrap;html=1;" parent="1" vertex="1">
          <mxGeometry x="11342" y="-1407.9999999999998" width="755" height="310" as="geometry" />
        </mxCell>
        <mxCell id="vXsJCSpQS5DEUu_Gp0zB-46" value="" style="rounded=0;whiteSpace=wrap;html=1;" parent="1" vertex="1">
          <mxGeometry x="6940" y="-1960" width="1760" height="1310" as="geometry" />
        </mxCell>
        <mxCell id="M9U-ORIrZUYbXmNIZB3N-2" value="" style="rounded=0;whiteSpace=wrap;html=1;labelBackgroundColor=#FFFFFF;strokeColor=#000000;fontSize=14;fillColor=#FFFFFF;dashed=1;" parent="1" vertex="1">
          <mxGeometry x="1680" y="-410" width="2090" height="1320" as="geometry" />
        </mxCell>
        <mxCell id="M9U-ORIrZUYbXmNIZB3N-3" value="" style="rounded=0;whiteSpace=wrap;html=1;strokeColor=#000000;fillColor=#FFFFFF;" parent="1" vertex="1">
          <mxGeometry x="1910" y="-310" width="1720" height="920" as="geometry" />
        </mxCell>
        <mxCell id="M9U-ORIrZUYbXmNIZB3N-4" value="" style="rounded=0;whiteSpace=wrap;html=1;strokeColor=#000000;fillColor=#FFFFFF;dashed=1;" parent="1" vertex="1">
          <mxGeometry x="2990" y="-207.5" width="600" height="420" as="geometry" />
        </mxCell>
        <mxCell id="M9U-ORIrZUYbXmNIZB3N-5" value="" style="rounded=0;whiteSpace=wrap;html=1;strokeColor=#D5E8D4;fillColor=#FFFFFF;" parent="1" vertex="1">
          <mxGeometry x="4558.75" y="-1010" width="395" height="355" as="geometry" />
        </mxCell>
        <mxCell id="M9U-ORIrZUYbXmNIZB3N-7" value="" style="rounded=0;whiteSpace=wrap;html=1;fontSize=12;dashed=1;" parent="1" vertex="1">
          <mxGeometry x="-370" y="-1010" width="1020" height="525" as="geometry" />
        </mxCell>
        <mxCell id="M9U-ORIrZUYbXmNIZB3N-8" value="Развертывание продуктового контура" style="text;html=1;strokeColor=none;fillColor=none;align=center;verticalAlign=middle;whiteSpace=wrap;rounded=0;rotation=0;" parent="1" vertex="1">
          <mxGeometry x="-957.5" y="-540" width="150" height="60" as="geometry" />
        </mxCell>
        <mxCell id="M9U-ORIrZUYbXmNIZB3N-9" value="развертывание сред силами ЭО" style="text;html=1;strokeColor=#82b366;fillColor=#d5e8d4;align=center;verticalAlign=middle;whiteSpace=wrap;rounded=0;" parent="1" vertex="1">
          <mxGeometry x="-830" y="-230" width="210" height="50" as="geometry" />
        </mxCell>
        <mxCell id="M9U-ORIrZUYbXmNIZB3N-10" value="Сдача MVP на модели тенты" style="text;html=1;strokeColor=none;fillColor=none;align=center;verticalAlign=middle;whiteSpace=wrap;rounded=0;rotation=0;" parent="1" vertex="1">
          <mxGeometry x="-1297.5" y="-410" width="60" height="60" as="geometry" />
        </mxCell>
        <mxCell id="M9U-ORIrZUYbXmNIZB3N-11" value="" style="curved=1;endArrow=classic;html=1;rounded=0;" parent="1" edge="1">
          <mxGeometry width="50" height="50" relative="1" as="geometry">
            <mxPoint x="-1270" y="-440" as="sourcePoint" />
            <mxPoint x="-1350" y="-600" as="targetPoint" />
            <Array as="points">
              <mxPoint x="-1270" y="-550" />
            </Array>
          </mxGeometry>
        </mxCell>
        <mxCell id="M9U-ORIrZUYbXmNIZB3N-12" value="" style="curved=1;endArrow=classic;html=1;rounded=0;" parent="1" edge="1">
          <mxGeometry width="50" height="50" relative="1" as="geometry">
            <mxPoint x="-1270" y="-440" as="sourcePoint" />
            <mxPoint x="-1270" y="-690" as="targetPoint" />
          </mxGeometry>
        </mxCell>
        <mxCell id="M9U-ORIrZUYbXmNIZB3N-13" value="" style="curved=1;endArrow=classic;html=1;rounded=0;" parent="1" edge="1">
          <mxGeometry width="50" height="50" relative="1" as="geometry">
            <mxPoint x="-1280" y="-440" as="sourcePoint" />
            <mxPoint x="-1180" y="-590" as="targetPoint" />
            <Array as="points">
              <mxPoint x="-1250" y="-560" />
            </Array>
          </mxGeometry>
        </mxCell>
        <mxCell id="M9U-ORIrZUYbXmNIZB3N-14" value="Согласование Архитектуры" style="text;html=1;strokeColor=#82b366;fillColor=#d5e8d4;align=center;verticalAlign=middle;whiteSpace=wrap;rounded=0;" parent="1" vertex="1">
          <mxGeometry x="-1500" y="-660" width="130" height="85" as="geometry" />
        </mxCell>
        <mxCell id="M9U-ORIrZUYbXmNIZB3N-15" value="Сдача отчётной документации" style="text;html=1;strokeColor=#82b366;fillColor=#d5e8d4;align=center;verticalAlign=middle;whiteSpace=wrap;rounded=0;" parent="1" vertex="1">
          <mxGeometry x="-1170" y="-650" width="100" height="75" as="geometry" />
        </mxCell>
        <mxCell id="M9U-ORIrZUYbXmNIZB3N-16" value="Конфигурирование среды для сдачи MVP" style="text;html=1;strokeColor=#82b366;fillColor=#d5e8d4;align=center;verticalAlign=middle;whiteSpace=wrap;rounded=0;" parent="1" vertex="1">
          <mxGeometry x="-1350" y="-760" width="120" height="60" as="geometry" />
        </mxCell>
        <mxCell id="M9U-ORIrZUYbXmNIZB3N-17" value="" style="endArrow=none;html=1;rounded=0;fontSize=12;" parent="1" edge="1">
          <mxGeometry width="50" height="50" relative="1" as="geometry">
            <mxPoint x="-20" y="-445" as="sourcePoint" />
            <mxPoint x="20" y="-525" as="targetPoint" />
          </mxGeometry>
        </mxCell>
        <mxCell id="M9U-ORIrZUYbXmNIZB3N-18" value="" style="endArrow=classic;html=1;rounded=0;fontSize=12;" parent="1" edge="1">
          <mxGeometry width="50" height="50" relative="1" as="geometry">
            <mxPoint x="20" y="-525" as="sourcePoint" />
            <mxPoint x="420" y="-525" as="targetPoint" />
          </mxGeometry>
        </mxCell>
        <mxCell id="M9U-ORIrZUYbXmNIZB3N-19" value="" style="curved=1;endArrow=classic;html=1;rounded=0;" parent="1" edge="1">
          <mxGeometry width="50" height="50" relative="1" as="geometry">
            <mxPoint x="100" y="-525" as="sourcePoint" />
            <mxPoint x="10" y="-585" as="targetPoint" />
            <Array as="points">
              <mxPoint x="70" y="-580" />
            </Array>
          </mxGeometry>
        </mxCell>
        <mxCell id="M9U-ORIrZUYbXmNIZB3N-20" value="Образы юпитера и элуры ГПУ&amp;nbsp;" style="text;html=1;strokeColor=#82b366;fillColor=#d5e8d4;align=center;verticalAlign=middle;whiteSpace=wrap;rounded=0;fontSize=12;" parent="1" vertex="1">
          <mxGeometry x="-120" y="-630" width="120" height="65" as="geometry" />
        </mxCell>
        <mxCell id="M9U-ORIrZUYbXmNIZB3N-21" value="" style="curved=1;endArrow=classic;html=1;rounded=0;" parent="1" edge="1">
          <mxGeometry width="50" height="50" relative="1" as="geometry">
            <mxPoint x="100" y="-525" as="sourcePoint" />
            <mxPoint x="-30" y="-730" as="targetPoint" />
            <Array as="points">
              <mxPoint x="80" y="-650" />
            </Array>
          </mxGeometry>
        </mxCell>
        <mxCell id="M9U-ORIrZUYbXmNIZB3N-22" value="отображение ресурсов в мл и юпитер" style="text;html=1;strokeColor=#82b366;fillColor=#d5e8d4;align=center;verticalAlign=middle;whiteSpace=wrap;rounded=0;fontSize=12;" parent="1" vertex="1">
          <mxGeometry x="-180" y="-745" width="145" height="30" as="geometry" />
        </mxCell>
        <mxCell id="M9U-ORIrZUYbXmNIZB3N-23" value="" style="curved=1;endArrow=classic;html=1;rounded=0;" parent="1" edge="1">
          <mxGeometry width="50" height="50" relative="1" as="geometry">
            <mxPoint x="100" y="-530" as="sourcePoint" />
            <mxPoint y="-870" as="targetPoint" />
            <Array as="points">
              <mxPoint x="80" y="-700" />
            </Array>
          </mxGeometry>
        </mxCell>
        <mxCell id="M9U-ORIrZUYbXmNIZB3N-24" value="Статусы модели в МЛ" style="text;html=1;strokeColor=#82b366;fillColor=#d5e8d4;align=center;verticalAlign=middle;whiteSpace=wrap;rounded=0;fontSize=12;" parent="1" vertex="1">
          <mxGeometry x="-60" y="-940" width="85" height="55.63" as="geometry" />
        </mxCell>
        <mxCell id="M9U-ORIrZUYbXmNIZB3N-25" value="" style="curved=1;endArrow=classic;html=1;rounded=0;" parent="1" edge="1">
          <mxGeometry width="50" height="50" relative="1" as="geometry">
            <mxPoint x="100" y="-525" as="sourcePoint" />
            <mxPoint x="80" y="-910" as="targetPoint" />
            <Array as="points">
              <mxPoint x="110" y="-720" />
            </Array>
          </mxGeometry>
        </mxCell>
        <mxCell id="M9U-ORIrZUYbXmNIZB3N-26" value="Логи мл и юпитер" style="text;html=1;strokeColor=#82b366;fillColor=#d5e8d4;align=center;verticalAlign=middle;whiteSpace=wrap;rounded=0;fontSize=12;" parent="1" vertex="1">
          <mxGeometry x="50" y="-970" width="60" height="45" as="geometry" />
        </mxCell>
        <mxCell id="M9U-ORIrZUYbXmNIZB3N-27" value="" style="curved=1;endArrow=classic;html=1;rounded=0;" parent="1" edge="1">
          <mxGeometry width="50" height="50" relative="1" as="geometry">
            <mxPoint x="100" y="-525" as="sourcePoint" />
            <mxPoint x="160" y="-900" as="targetPoint" />
            <Array as="points">
              <mxPoint x="110" y="-575" />
              <mxPoint x="120" y="-700" />
            </Array>
          </mxGeometry>
        </mxCell>
        <mxCell id="M9U-ORIrZUYbXmNIZB3N-28" value="Страница авторизации под стилистику ДИТ" style="text;html=1;strokeColor=#82b366;fillColor=#d5e8d4;align=center;verticalAlign=middle;whiteSpace=wrap;rounded=0;fontSize=12;" parent="1" vertex="1">
          <mxGeometry x="130" y="-970" width="110" height="55" as="geometry" />
        </mxCell>
        <mxCell id="M9U-ORIrZUYbXmNIZB3N-29" value="" style="curved=1;endArrow=classic;html=1;rounded=0;" parent="1" edge="1">
          <mxGeometry width="50" height="50" relative="1" as="geometry">
            <mxPoint x="100" y="-525" as="sourcePoint" />
            <mxPoint x="240" y="-710" as="targetPoint" />
            <Array as="points">
              <mxPoint x="140" y="-650" />
            </Array>
          </mxGeometry>
        </mxCell>
        <mxCell id="M9U-ORIrZUYbXmNIZB3N-30" value="Страница выбора компонентов" style="text;html=1;strokeColor=#82b366;fillColor=#d5e8d4;align=center;verticalAlign=middle;whiteSpace=wrap;rounded=0;fontSize=12;" parent="1" vertex="1">
          <mxGeometry x="252.5" y="-680" width="120" height="30" as="geometry" />
        </mxCell>
        <mxCell id="M9U-ORIrZUYbXmNIZB3N-31" value="" style="curved=1;endArrow=classic;html=1;rounded=0;" parent="1" edge="1">
          <mxGeometry width="50" height="50" relative="1" as="geometry">
            <mxPoint x="100" y="-525" as="sourcePoint" />
            <mxPoint x="250" y="-780" as="targetPoint" />
            <Array as="points">
              <mxPoint x="160" y="-720" />
            </Array>
          </mxGeometry>
        </mxCell>
        <mxCell id="M9U-ORIrZUYbXmNIZB3N-32" value="Хранение репозиториев ГИТ в Минио" style="text;html=1;align=center;verticalAlign=middle;whiteSpace=wrap;rounded=0;fontSize=12;fillColor=#d5e8d4;strokeColor=#82b366;" parent="1" vertex="1">
          <mxGeometry x="240" y="-602.5" width="130" height="45" as="geometry" />
        </mxCell>
        <mxCell id="M9U-ORIrZUYbXmNIZB3N-33" value="" style="curved=1;endArrow=classic;html=1;rounded=0;" parent="1" edge="1">
          <mxGeometry width="50" height="50" relative="1" as="geometry">
            <mxPoint x="100" y="-530" as="sourcePoint" />
            <mxPoint x="220" y="-580" as="targetPoint" />
            <Array as="points">
              <mxPoint x="150" y="-580" />
            </Array>
          </mxGeometry>
        </mxCell>
        <mxCell id="M9U-ORIrZUYbXmNIZB3N-34" value="Логауты из компонентов" style="text;html=1;strokeColor=#82b366;fillColor=#d5e8d4;align=center;verticalAlign=middle;whiteSpace=wrap;rounded=0;fontSize=12;" parent="1" vertex="1">
          <mxGeometry x="260" y="-800" width="120" height="30" as="geometry" />
        </mxCell>
        <mxCell id="M9U-ORIrZUYbXmNIZB3N-35" value="" style="curved=1;endArrow=classic;html=1;rounded=0;" parent="1" edge="1">
          <mxGeometry width="50" height="50" relative="1" as="geometry">
            <mxPoint x="100" y="-530" as="sourcePoint" />
            <mxPoint x="230" y="-860" as="targetPoint" />
            <Array as="points">
              <mxPoint x="140" y="-750" />
            </Array>
          </mxGeometry>
        </mxCell>
        <mxCell id="M9U-ORIrZUYbXmNIZB3N-36" value="Подготовка отчётной документации" style="text;html=1;strokeColor=#82b366;fillColor=#d5e8d4;align=center;verticalAlign=middle;whiteSpace=wrap;rounded=0;fontSize=12;" parent="1" vertex="1">
          <mxGeometry x="240" y="-900" width="120" height="30" as="geometry" />
        </mxCell>
        <mxCell id="M9U-ORIrZUYbXmNIZB3N-37" value="" style="curved=1;endArrow=classic;html=1;rounded=0;" parent="1" edge="1">
          <mxGeometry width="50" height="50" relative="1" as="geometry">
            <mxPoint x="101.25" y="-525" as="sourcePoint" />
            <mxPoint x="-60" y="-820" as="targetPoint" />
            <Array as="points">
              <mxPoint x="90" y="-690" />
            </Array>
          </mxGeometry>
        </mxCell>
        <mxCell id="M9U-ORIrZUYbXmNIZB3N-38" value="Формирование адерса модели и отображение в мл" style="text;html=1;strokeColor=#82b366;fillColor=#d5e8d4;align=center;verticalAlign=middle;whiteSpace=wrap;rounded=0;fontSize=12;" parent="1" vertex="1">
          <mxGeometry x="-190" y="-890" width="110" height="65" as="geometry" />
        </mxCell>
        <mxCell id="M9U-ORIrZUYbXmNIZB3N-39" value="" style="endArrow=none;html=1;rounded=0;exitX=1;exitY=0.5;exitDx=0;exitDy=0;startArrow=none;" parent="1" source="M9U-ORIrZUYbXmNIZB3N-361" edge="1">
          <mxGeometry width="50" height="50" relative="1" as="geometry">
            <mxPoint x="-1320" y="-440" as="sourcePoint" />
            <mxPoint x="-380" y="-440" as="targetPoint" />
          </mxGeometry>
        </mxCell>
        <mxCell id="M9U-ORIrZUYbXmNIZB3N-40" value="" style="endArrow=none;html=1;rounded=0;" parent="1" target="M9U-ORIrZUYbXmNIZB3N-364" edge="1">
          <mxGeometry width="50" height="50" relative="1" as="geometry">
            <mxPoint x="-830" y="-320" as="sourcePoint" />
            <mxPoint x="-690" y="-330" as="targetPoint" />
          </mxGeometry>
        </mxCell>
        <mxCell id="M9U-ORIrZUYbXmNIZB3N-41" value="" style="endArrow=none;html=1;rounded=0;startArrow=none;" parent="1" target="M9U-ORIrZUYbXmNIZB3N-70" edge="1">
          <mxGeometry width="50" height="50" relative="1" as="geometry">
            <mxPoint x="1580" y="-445" as="sourcePoint" />
            <mxPoint x="1560" y="-440" as="targetPoint" />
          </mxGeometry>
        </mxCell>
        <mxCell id="M9U-ORIrZUYbXmNIZB3N-42" value="" style="curved=1;endArrow=classic;html=1;rounded=0;" parent="1" edge="1">
          <mxGeometry width="50" height="50" relative="1" as="geometry">
            <mxPoint x="100" y="-530" as="sourcePoint" />
            <mxPoint x="240" y="-660" as="targetPoint" />
            <Array as="points">
              <mxPoint x="160" y="-640" />
            </Array>
          </mxGeometry>
        </mxCell>
        <mxCell id="M9U-ORIrZUYbXmNIZB3N-43" value="" style="endArrow=none;html=1;rounded=0;strokeWidth=1;startArrow=none;exitX=1;exitY=0.75;exitDx=0;exitDy=0;endFill=0;" parent="1" source="M9U-ORIrZUYbXmNIZB3N-74" edge="1">
          <mxGeometry width="50" height="50" relative="1" as="geometry">
            <mxPoint x="-830" y="-320" as="sourcePoint" />
            <mxPoint x="40" y="-320" as="targetPoint" />
          </mxGeometry>
        </mxCell>
        <mxCell id="M9U-ORIrZUYbXmNIZB3N-44" value="" style="curved=1;endArrow=classic;html=1;rounded=0;strokeWidth=1;exitX=0.354;exitY=0.991;exitDx=0;exitDy=0;exitPerimeter=0;" parent="1" source="M9U-ORIrZUYbXmNIZB3N-75" edge="1">
          <mxGeometry width="50" height="50" relative="1" as="geometry">
            <mxPoint x="-449.7600000000002" y="-270.27" as="sourcePoint" />
            <mxPoint x="-610" y="-210" as="targetPoint" />
            <Array as="points">
              <mxPoint x="-559" y="-250" />
            </Array>
          </mxGeometry>
        </mxCell>
        <mxCell id="M9U-ORIrZUYbXmNIZB3N-45" value="" style="curved=1;endArrow=classic;html=1;rounded=0;strokeWidth=1;exitX=0.398;exitY=0.991;exitDx=0;exitDy=0;exitPerimeter=0;" parent="1" source="M9U-ORIrZUYbXmNIZB3N-75" edge="1">
          <mxGeometry width="50" height="50" relative="1" as="geometry">
            <mxPoint x="-548.7600000000002" y="-300.27" as="sourcePoint" />
            <mxPoint x="-560" y="-150" as="targetPoint" />
            <Array as="points">
              <mxPoint x="-549" y="-240" />
            </Array>
          </mxGeometry>
        </mxCell>
        <mxCell id="M9U-ORIrZUYbXmNIZB3N-46" value="Подготовка БП и описание действие для ЭО по услугам для Платформы ИИ" style="text;html=1;strokeColor=#82b366;fillColor=#d5e8d4;align=center;verticalAlign=middle;whiteSpace=wrap;rounded=0;" parent="1" vertex="1">
          <mxGeometry x="-695" y="-150" width="195" height="60" as="geometry" />
        </mxCell>
        <mxCell id="M9U-ORIrZUYbXmNIZB3N-47" value="Передача документации по развертыванию и настройке сред&amp;nbsp;" style="text;html=1;strokeColor=#82b366;fillColor=#d5e8d4;align=center;verticalAlign=middle;whiteSpace=wrap;rounded=0;" parent="1" vertex="1">
          <mxGeometry x="-490" y="-150" width="150" height="60" as="geometry" />
        </mxCell>
        <mxCell id="M9U-ORIrZUYbXmNIZB3N-48" value="" style="curved=1;endArrow=classic;html=1;rounded=0;strokeWidth=1;exitX=0.383;exitY=1.063;exitDx=0;exitDy=0;exitPerimeter=0;" parent="1" source="M9U-ORIrZUYbXmNIZB3N-75" edge="1">
          <mxGeometry width="50" height="50" relative="1" as="geometry">
            <mxPoint x="-546.1199999999994" y="-300.27" as="sourcePoint" />
            <mxPoint x="-460" y="-160" as="targetPoint" />
            <Array as="points">
              <mxPoint x="-539" y="-230" />
            </Array>
          </mxGeometry>
        </mxCell>
        <mxCell id="M9U-ORIrZUYbXmNIZB3N-49" value="" style="curved=1;endArrow=classic;html=1;rounded=0;strokeWidth=1;exitX=0.401;exitY=1.028;exitDx=0;exitDy=0;exitPerimeter=0;" parent="1" source="M9U-ORIrZUYbXmNIZB3N-75" edge="1">
          <mxGeometry width="50" height="50" relative="1" as="geometry">
            <mxPoint x="-550" y="-300" as="sourcePoint" />
            <mxPoint x="-420" y="-210" as="targetPoint" />
            <Array as="points">
              <mxPoint x="-501.98" y="-220" />
            </Array>
          </mxGeometry>
        </mxCell>
        <mxCell id="M9U-ORIrZUYbXmNIZB3N-50" value="&lt;font style=&quot;font-size: 12px;&quot;&gt;Решение инциедентов при работе в ИИ&lt;/font&gt;" style="text;html=1;strokeColor=#82b366;fillColor=#d5e8d4;align=center;verticalAlign=middle;whiteSpace=wrap;rounded=0;fontSize=9;" parent="1" vertex="1">
          <mxGeometry x="-420" y="-225" width="140" height="30" as="geometry" />
        </mxCell>
        <mxCell id="M9U-ORIrZUYbXmNIZB3N-51" value="" style="curved=1;endArrow=classic;html=1;rounded=0;strokeWidth=1;exitX=0.401;exitY=1.028;exitDx=0;exitDy=0;exitPerimeter=0;" parent="1" edge="1">
          <mxGeometry width="50" height="50" relative="1" as="geometry">
            <mxPoint x="-275.9399999999987" y="-320" as="sourcePoint" />
            <mxPoint x="-210" y="-160" as="targetPoint" />
            <Array as="points">
              <mxPoint x="-221.98000000000002" y="-230.84" />
            </Array>
          </mxGeometry>
        </mxCell>
        <mxCell id="M9U-ORIrZUYbXmNIZB3N-52" value="&lt;font style=&quot;font-size: 12px;&quot;&gt;Сбор инцидентов, сценарии решения&lt;/font&gt;" style="text;html=1;strokeColor=#82b366;fillColor=#d5e8d4;align=center;verticalAlign=middle;whiteSpace=wrap;rounded=0;fontSize=9;" parent="1" vertex="1">
          <mxGeometry x="-270" y="-157.5" width="140" height="30" as="geometry" />
        </mxCell>
        <mxCell id="M9U-ORIrZUYbXmNIZB3N-53" value="" style="endArrow=none;html=1;rounded=0;strokeWidth=1;entryX=1;entryY=0.75;entryDx=0;entryDy=0;" parent="1" target="M9U-ORIrZUYbXmNIZB3N-74" edge="1">
          <mxGeometry width="50" height="50" relative="1" as="geometry">
            <mxPoint x="-830" y="-320" as="sourcePoint" />
            <mxPoint x="30.000000000001364" y="-317.5" as="targetPoint" />
          </mxGeometry>
        </mxCell>
        <mxCell id="M9U-ORIrZUYbXmNIZB3N-54" value="Этап 2. Договор субподряда" style="text;html=1;strokeColor=none;fillColor=none;align=center;verticalAlign=middle;whiteSpace=wrap;rounded=0;" parent="1" vertex="1">
          <mxGeometry x="-270" y="-1010" width="180" height="30" as="geometry" />
        </mxCell>
        <mxCell id="M9U-ORIrZUYbXmNIZB3N-55" value="" style="endArrow=none;html=1;rounded=0;strokeWidth=1;exitX=0.5;exitY=0;exitDx=0;exitDy=0;" parent="1" source="M9U-ORIrZUYbXmNIZB3N-361" edge="1">
          <mxGeometry width="50" height="50" relative="1" as="geometry">
            <mxPoint x="-260" y="-20" as="sourcePoint" />
            <mxPoint x="-280" y="-1270" as="targetPoint" />
          </mxGeometry>
        </mxCell>
        <mxCell id="M9U-ORIrZUYbXmNIZB3N-56" style="edgeStyle=orthogonalEdgeStyle;rounded=0;orthogonalLoop=1;jettySize=auto;html=1;exitX=0.5;exitY=1;exitDx=0;exitDy=0;strokeWidth=1;endArrow=classic;endFill=1;" parent="1" source="M9U-ORIrZUYbXmNIZB3N-54" target="M9U-ORIrZUYbXmNIZB3N-54" edge="1">
          <mxGeometry relative="1" as="geometry" />
        </mxCell>
        <mxCell id="M9U-ORIrZUYbXmNIZB3N-57" value="" style="rounded=0;whiteSpace=wrap;html=1;" parent="1" vertex="1">
          <mxGeometry x="-1560" y="-1655" width="290" height="495" as="geometry" />
        </mxCell>
        <mxCell id="M9U-ORIrZUYbXmNIZB3N-58" value="" style="ellipse;whiteSpace=wrap;html=1;aspect=fixed;fillColor=#D5E8D4;fontColor=#ffffff;strokeColor=#005700;" parent="1" vertex="1">
          <mxGeometry x="-1535" y="-1585" width="65" height="65" as="geometry" />
        </mxCell>
        <mxCell id="M9U-ORIrZUYbXmNIZB3N-59" value="" style="ellipse;whiteSpace=wrap;html=1;aspect=fixed;fillColor=#e51400;fontColor=#ffffff;strokeColor=#B20000;" parent="1" vertex="1">
          <mxGeometry x="-1535" y="-1400" width="65" height="65" as="geometry" />
        </mxCell>
        <mxCell id="M9U-ORIrZUYbXmNIZB3N-60" value="" style="ellipse;whiteSpace=wrap;html=1;aspect=fixed;fillColor=#dae8fc;strokeColor=#6c8ebf;" parent="1" vertex="1">
          <mxGeometry x="-1535" y="-1495" width="65" height="65" as="geometry" />
        </mxCell>
        <mxCell id="M9U-ORIrZUYbXmNIZB3N-61" value="Выполненная веха" style="text;html=1;strokeColor=none;fillColor=none;align=center;verticalAlign=middle;whiteSpace=wrap;rounded=0;" parent="1" vertex="1">
          <mxGeometry x="-1450" y="-1567.5" width="130" height="30" as="geometry" />
        </mxCell>
        <mxCell id="M9U-ORIrZUYbXmNIZB3N-62" value="В работе, план" style="text;html=1;strokeColor=none;fillColor=none;align=center;verticalAlign=middle;whiteSpace=wrap;rounded=0;" parent="1" vertex="1">
          <mxGeometry x="-1450" y="-1477.5" width="130" height="30" as="geometry" />
        </mxCell>
        <mxCell id="M9U-ORIrZUYbXmNIZB3N-63" value="Просроченная веха" style="text;html=1;strokeColor=none;fillColor=none;align=center;verticalAlign=middle;whiteSpace=wrap;rounded=0;" parent="1" vertex="1">
          <mxGeometry x="-1450" y="-1382.5" width="130" height="30" as="geometry" />
        </mxCell>
        <mxCell id="M9U-ORIrZUYbXmNIZB3N-64" value="Легенда" style="text;html=1;strokeColor=none;fillColor=none;align=center;verticalAlign=middle;whiteSpace=wrap;rounded=0;" parent="1" vertex="1">
          <mxGeometry x="-1527" y="-1645" width="60" height="30" as="geometry" />
        </mxCell>
        <mxCell id="M9U-ORIrZUYbXmNIZB3N-65" value="" style="endArrow=none;html=1;rounded=0;startArrow=none;" parent="1" edge="1">
          <mxGeometry width="50" height="50" relative="1" as="geometry">
            <mxPoint x="-390" y="-440" as="sourcePoint" />
            <mxPoint x="390.0000438144707" y="-442.4466338978891" as="targetPoint" />
          </mxGeometry>
        </mxCell>
        <mxCell id="M9U-ORIrZUYbXmNIZB3N-66" value="" style="text;html=1;strokeColor=#6c8ebf;fillColor=#dae8fc;align=center;verticalAlign=middle;whiteSpace=wrap;rounded=0;fontSize=9;" parent="1" vertex="1">
          <mxGeometry x="-1532.5" y="-1305" width="60" height="30" as="geometry" />
        </mxCell>
        <mxCell id="M9U-ORIrZUYbXmNIZB3N-67" value="Запланированные задачи" style="text;html=1;strokeColor=none;fillColor=none;align=center;verticalAlign=middle;whiteSpace=wrap;rounded=0;" parent="1" vertex="1">
          <mxGeometry x="-1452.5" y="-1305" width="130" height="30" as="geometry" />
        </mxCell>
        <mxCell id="M9U-ORIrZUYbXmNIZB3N-68" value="Запуск тропок в stage" style="text;html=1;strokeColor=#82b366;fillColor=#d5e8d4;align=center;verticalAlign=middle;whiteSpace=wrap;rounded=0;fontSize=12;" parent="1" vertex="1">
          <mxGeometry x="252.5" y="-730" width="90" height="30" as="geometry" />
        </mxCell>
        <mxCell id="M9U-ORIrZUYbXmNIZB3N-69" style="edgeStyle=orthogonalEdgeStyle;rounded=0;orthogonalLoop=1;jettySize=auto;html=1;fontSize=123;" parent="1" source="M9U-ORIrZUYbXmNIZB3N-70" target="M9U-ORIrZUYbXmNIZB3N-3" edge="1">
          <mxGeometry relative="1" as="geometry" />
        </mxCell>
        <mxCell id="Teteri4uPYWezU2bDTrZ-6" style="edgeStyle=orthogonalEdgeStyle;rounded=0;orthogonalLoop=1;jettySize=auto;html=1;endArrow=none;endFill=0;" parent="1" source="M9U-ORIrZUYbXmNIZB3N-70" target="M9U-ORIrZUYbXmNIZB3N-312" edge="1">
          <mxGeometry relative="1" as="geometry" />
        </mxCell>
        <mxCell id="M9U-ORIrZUYbXmNIZB3N-70" value="28.08.2023" style="ellipse;whiteSpace=wrap;html=1;aspect=fixed;fillColor=#d5e8d4;strokeColor=#82b366;" parent="1" vertex="1">
          <mxGeometry x="2366.25" y="-477.5" width="65" height="65" as="geometry" />
        </mxCell>
        <mxCell id="M9U-ORIrZUYbXmNIZB3N-71" value="" style="endArrow=none;html=1;rounded=0;startArrow=none;" parent="1" edge="1">
          <mxGeometry width="50" height="50" relative="1" as="geometry">
            <mxPoint x="390" y="-441.9999999999982" as="sourcePoint" />
            <mxPoint x="1000" y="-440" as="targetPoint" />
          </mxGeometry>
        </mxCell>
        <mxCell id="M9U-ORIrZUYbXmNIZB3N-72" value="Старт май 22" style="rounded=0;whiteSpace=wrap;html=1;strokeColor=#B9E0A5;fillColor=#D5E8D4;" parent="1" vertex="1">
          <mxGeometry x="-1560" y="-475" width="120" height="60" as="geometry" />
        </mxCell>
        <mxCell id="M9U-ORIrZUYbXmNIZB3N-73" value="15.03.2023" style="ellipse;whiteSpace=wrap;html=1;aspect=fixed;fillColor=#D5E8D4;fontColor=#ffffff;strokeColor=#B9E0A5;" parent="1" vertex="1">
          <mxGeometry x="-40" y="-480" width="65" height="65" as="geometry" />
        </mxCell>
        <mxCell id="M9U-ORIrZUYbXmNIZB3N-74" value="10.03.2023" style="text;html=1;strokeColor=#82b366;fillColor=#d5e8d4;align=center;verticalAlign=middle;whiteSpace=wrap;rounded=0;fontSize=9;" parent="1" vertex="1">
          <mxGeometry x="-300" y="-340" width="60" height="30" as="geometry" />
        </mxCell>
        <mxCell id="M9U-ORIrZUYbXmNIZB3N-75" value="07.03.2023" style="text;html=1;strokeColor=#82b366;fillColor=#d5e8d4;align=center;verticalAlign=middle;whiteSpace=wrap;rounded=0;fontSize=9;" parent="1" vertex="1">
          <mxGeometry x="-580" y="-340" width="60" height="30" as="geometry" />
        </mxCell>
        <mxCell id="M9U-ORIrZUYbXmNIZB3N-87" value="" style="text;html=1;strokeColor=#B9E0A5;fillColor=#D5E8D4;align=center;verticalAlign=middle;whiteSpace=wrap;rounded=0;fontSize=9;fontColor=#ffffff;" parent="1" vertex="1">
          <mxGeometry x="-1535" y="-1235" width="60" height="30" as="geometry" />
        </mxCell>
        <mxCell id="M9U-ORIrZUYbXmNIZB3N-88" style="edgeStyle=orthogonalEdgeStyle;rounded=0;orthogonalLoop=1;jettySize=auto;html=1;exitX=0.5;exitY=1;exitDx=0;exitDy=0;endArrow=none;endFill=0;" parent="1" source="M9U-ORIrZUYbXmNIZB3N-87" target="M9U-ORIrZUYbXmNIZB3N-87" edge="1">
          <mxGeometry relative="1" as="geometry" />
        </mxCell>
        <mxCell id="M9U-ORIrZUYbXmNIZB3N-89" value="Выполненные задачи" style="text;html=1;strokeColor=none;fillColor=none;align=center;verticalAlign=middle;whiteSpace=wrap;rounded=0;" parent="1" vertex="1">
          <mxGeometry x="-1455" y="-1235" width="130" height="30" as="geometry" />
        </mxCell>
        <mxCell id="M9U-ORIrZUYbXmNIZB3N-90" value="" style="endArrow=none;html=1;rounded=0;startArrow=none;" parent="1" edge="1">
          <mxGeometry width="50" height="50" relative="1" as="geometry">
            <mxPoint x="984.9998850589291" y="-442.5864358645181" as="sourcePoint" />
            <mxPoint x="1579.9999999999673" y="-445" as="targetPoint" />
          </mxGeometry>
        </mxCell>
        <mxCell id="M9U-ORIrZUYbXmNIZB3N-91" style="edgeStyle=orthogonalEdgeStyle;rounded=0;orthogonalLoop=1;jettySize=auto;html=1;entryX=0.5;entryY=0;entryDx=0;entryDy=0;" parent="1" source="M9U-ORIrZUYbXmNIZB3N-92" target="M9U-ORIrZUYbXmNIZB3N-214" edge="1">
          <mxGeometry relative="1" as="geometry">
            <mxPoint x="7345" y="-1394.36" as="targetPoint" />
          </mxGeometry>
        </mxCell>
        <mxCell id="vXsJCSpQS5DEUu_Gp0zB-1" style="edgeStyle=orthogonalEdgeStyle;rounded=0;orthogonalLoop=1;jettySize=auto;html=1;" parent="1" source="M9U-ORIrZUYbXmNIZB3N-92" edge="1">
          <mxGeometry relative="1" as="geometry">
            <mxPoint x="7190" y="-1724.36" as="targetPoint" />
          </mxGeometry>
        </mxCell>
        <mxCell id="M9U-ORIrZUYbXmNIZB3N-92" value="Описания, постановки" style="rounded=0;whiteSpace=wrap;html=1;fillColor=#d5e8d4;strokeColor=#82b366;" parent="1" vertex="1">
          <mxGeometry x="7020" y="-1754.36" width="110" height="60" as="geometry" />
        </mxCell>
        <mxCell id="M9U-ORIrZUYbXmNIZB3N-93" value="" style="text;html=1;strokeColor=#1BA1E2;fillColor=#FFFFFF;align=center;verticalAlign=middle;whiteSpace=wrap;rounded=0;" parent="1" vertex="1">
          <mxGeometry x="1950" y="-240" width="680" height="650" as="geometry" />
        </mxCell>
        <mxCell id="M9U-ORIrZUYbXmNIZB3N-94" style="edgeStyle=orthogonalEdgeStyle;rounded=0;orthogonalLoop=1;jettySize=auto;html=1;" parent="1" source="M9U-ORIrZUYbXmNIZB3N-95" target="M9U-ORIrZUYbXmNIZB3N-366" edge="1">
          <mxGeometry relative="1" as="geometry" />
        </mxCell>
        <mxCell id="M9U-ORIrZUYbXmNIZB3N-95" value="Отчетная документация 1 ОП 1 ЭТАП ТЗ" style="text;html=1;strokeColor=#82b366;fillColor=#d5e8d4;align=center;verticalAlign=middle;whiteSpace=wrap;rounded=0;" parent="1" vertex="1">
          <mxGeometry x="1947.5" y="430" width="120" height="47.5" as="geometry" />
        </mxCell>
        <mxCell id="M9U-ORIrZUYbXmNIZB3N-96" value="Внеплановые задачи, которые будут включены в 1 ОП 1 Этапе ТЗ" style="text;html=1;strokeColor=none;fillColor=none;align=center;verticalAlign=middle;whiteSpace=wrap;rounded=0;dashed=1;" parent="1" vertex="1">
          <mxGeometry x="3000" y="-172.5" width="325" height="30" as="geometry" />
        </mxCell>
        <mxCell id="M9U-ORIrZUYbXmNIZB3N-97" style="edgeStyle=orthogonalEdgeStyle;rounded=0;orthogonalLoop=1;jettySize=auto;html=1;entryX=0.5;entryY=0;entryDx=0;entryDy=0;" parent="1" source="M9U-ORIrZUYbXmNIZB3N-100" target="M9U-ORIrZUYbXmNIZB3N-102" edge="1">
          <mxGeometry relative="1" as="geometry" />
        </mxCell>
        <mxCell id="M9U-ORIrZUYbXmNIZB3N-98" style="edgeStyle=orthogonalEdgeStyle;rounded=0;orthogonalLoop=1;jettySize=auto;html=1;entryX=0.5;entryY=0;entryDx=0;entryDy=0;" parent="1" source="M9U-ORIrZUYbXmNIZB3N-100" target="M9U-ORIrZUYbXmNIZB3N-108" edge="1">
          <mxGeometry relative="1" as="geometry" />
        </mxCell>
        <mxCell id="M9U-ORIrZUYbXmNIZB3N-99" style="edgeStyle=orthogonalEdgeStyle;rounded=0;orthogonalLoop=1;jettySize=auto;html=1;entryX=0.5;entryY=0;entryDx=0;entryDy=0;" parent="1" source="M9U-ORIrZUYbXmNIZB3N-100" target="M9U-ORIrZUYbXmNIZB3N-128" edge="1">
          <mxGeometry relative="1" as="geometry" />
        </mxCell>
        <mxCell id="M9U-ORIrZUYbXmNIZB3N-100" value="&lt;font style=&quot;font-size: 14px;&quot;&gt;&lt;b&gt;Подключение к сторонним БД&lt;/b&gt;&lt;/font&gt;" style="text;html=1;strokeColor=#1BA1E2;fillColor=#D5E8D4;align=center;verticalAlign=middle;whiteSpace=wrap;rounded=0;" parent="1" vertex="1">
          <mxGeometry x="1960" y="-210" width="110" height="50" as="geometry" />
        </mxCell>
        <mxCell id="M9U-ORIrZUYbXmNIZB3N-101" style="edgeStyle=orthogonalEdgeStyle;rounded=0;orthogonalLoop=1;jettySize=auto;html=1;" parent="1" source="M9U-ORIrZUYbXmNIZB3N-102" target="M9U-ORIrZUYbXmNIZB3N-104" edge="1">
          <mxGeometry relative="1" as="geometry" />
        </mxCell>
        <mxCell id="M9U-ORIrZUYbXmNIZB3N-102" value="Реализация политик, образов с драйверами&amp;nbsp;" style="text;html=1;strokeColor=#82b366;fillColor=#D5E8D4;align=center;verticalAlign=middle;whiteSpace=wrap;rounded=0;" parent="1" vertex="1">
          <mxGeometry x="1967.5" y="-110" width="100" height="50" as="geometry" />
        </mxCell>
        <mxCell id="M9U-ORIrZUYbXmNIZB3N-103" style="edgeStyle=orthogonalEdgeStyle;rounded=0;orthogonalLoop=1;jettySize=auto;html=1;entryX=0.5;entryY=0;entryDx=0;entryDy=0;" parent="1" source="M9U-ORIrZUYbXmNIZB3N-104" target="M9U-ORIrZUYbXmNIZB3N-105" edge="1">
          <mxGeometry relative="1" as="geometry" />
        </mxCell>
        <mxCell id="M9U-ORIrZUYbXmNIZB3N-104" value="Образы в юпитер с драйверами" style="text;html=1;strokeColor=#82b366;fillColor=#D5E8D4;align=center;verticalAlign=middle;whiteSpace=wrap;rounded=0;" parent="1" vertex="1">
          <mxGeometry x="1967.5" y="-15" width="100" height="50" as="geometry" />
        </mxCell>
        <mxCell id="M9U-ORIrZUYbXmNIZB3N-105" value="общий образ в mlflow со всеми драйверами" style="text;html=1;strokeColor=#82b366;fillColor=#d5e8d4;align=center;verticalAlign=middle;whiteSpace=wrap;rounded=0;" parent="1" vertex="1">
          <mxGeometry x="1967.5" y="75" width="100" height="50" as="geometry" />
        </mxCell>
        <mxCell id="M9U-ORIrZUYbXmNIZB3N-106" style="edgeStyle=orthogonalEdgeStyle;rounded=0;orthogonalLoop=1;jettySize=auto;html=1;" parent="1" source="M9U-ORIrZUYbXmNIZB3N-108" target="M9U-ORIrZUYbXmNIZB3N-110" edge="1">
          <mxGeometry relative="1" as="geometry" />
        </mxCell>
        <mxCell id="M9U-ORIrZUYbXmNIZB3N-107" style="edgeStyle=orthogonalEdgeStyle;rounded=0;orthogonalLoop=1;jettySize=auto;html=1;entryX=0.5;entryY=0;entryDx=0;entryDy=0;" parent="1" source="M9U-ORIrZUYbXmNIZB3N-108" target="M9U-ORIrZUYbXmNIZB3N-112" edge="1">
          <mxGeometry relative="1" as="geometry" />
        </mxCell>
        <mxCell id="M9U-ORIrZUYbXmNIZB3N-108" value="Реализация бэкенда" style="text;html=1;strokeColor=#82b366;fillColor=#D5E8D4;align=center;verticalAlign=middle;whiteSpace=wrap;rounded=0;" parent="1" vertex="1">
          <mxGeometry x="2200" y="-142.5" width="100" height="30" as="geometry" />
        </mxCell>
        <mxCell id="M9U-ORIrZUYbXmNIZB3N-109" style="edgeStyle=orthogonalEdgeStyle;rounded=0;orthogonalLoop=1;jettySize=auto;html=1;" parent="1" source="M9U-ORIrZUYbXmNIZB3N-110" target="M9U-ORIrZUYbXmNIZB3N-114" edge="1">
          <mxGeometry relative="1" as="geometry" />
        </mxCell>
        <mxCell id="M9U-ORIrZUYbXmNIZB3N-110" value="Получение списка полключений&amp;nbsp;" style="text;html=1;strokeColor=#82b366;fillColor=#D5E8D4;align=center;verticalAlign=middle;whiteSpace=wrap;rounded=0;" parent="1" vertex="1">
          <mxGeometry x="2118.13" y="-60" width="100" height="50" as="geometry" />
        </mxCell>
        <mxCell id="M9U-ORIrZUYbXmNIZB3N-111" style="edgeStyle=orthogonalEdgeStyle;rounded=0;orthogonalLoop=1;jettySize=auto;html=1;" parent="1" source="M9U-ORIrZUYbXmNIZB3N-112" target="M9U-ORIrZUYbXmNIZB3N-116" edge="1">
          <mxGeometry relative="1" as="geometry" />
        </mxCell>
        <mxCell id="M9U-ORIrZUYbXmNIZB3N-112" value="Добавление нового подключения" style="text;html=1;strokeColor=#82b366;fillColor=#D5E8D4;align=center;verticalAlign=middle;whiteSpace=wrap;rounded=0;" parent="1" vertex="1">
          <mxGeometry x="2260" y="-60" width="100" height="50" as="geometry" />
        </mxCell>
        <mxCell id="M9U-ORIrZUYbXmNIZB3N-113" style="edgeStyle=orthogonalEdgeStyle;rounded=0;orthogonalLoop=1;jettySize=auto;html=1;entryX=0.5;entryY=0;entryDx=0;entryDy=0;" parent="1" source="M9U-ORIrZUYbXmNIZB3N-114" target="M9U-ORIrZUYbXmNIZB3N-118" edge="1">
          <mxGeometry relative="1" as="geometry" />
        </mxCell>
        <mxCell id="M9U-ORIrZUYbXmNIZB3N-114" value="Предоставление доступа" style="text;html=1;strokeColor=#82b366;fillColor=#D5E8D4;align=center;verticalAlign=middle;whiteSpace=wrap;rounded=0;" parent="1" vertex="1">
          <mxGeometry x="2118.13" y="17.5" width="100" height="50" as="geometry" />
        </mxCell>
        <mxCell id="M9U-ORIrZUYbXmNIZB3N-115" style="edgeStyle=orthogonalEdgeStyle;rounded=0;orthogonalLoop=1;jettySize=auto;html=1;entryX=0.5;entryY=0;entryDx=0;entryDy=0;" parent="1" source="M9U-ORIrZUYbXmNIZB3N-116" target="M9U-ORIrZUYbXmNIZB3N-120" edge="1">
          <mxGeometry relative="1" as="geometry" />
        </mxCell>
        <mxCell id="M9U-ORIrZUYbXmNIZB3N-116" value="Проверка доступа" style="text;html=1;strokeColor=#82b366;fillColor=#D5E8D4;align=center;verticalAlign=middle;whiteSpace=wrap;rounded=0;" parent="1" vertex="1">
          <mxGeometry x="2260" y="17.5" width="100" height="50" as="geometry" />
        </mxCell>
        <mxCell id="M9U-ORIrZUYbXmNIZB3N-117" style="edgeStyle=orthogonalEdgeStyle;rounded=0;orthogonalLoop=1;jettySize=auto;html=1;entryX=0.5;entryY=0;entryDx=0;entryDy=0;" parent="1" source="M9U-ORIrZUYbXmNIZB3N-118" target="M9U-ORIrZUYbXmNIZB3N-121" edge="1">
          <mxGeometry relative="1" as="geometry" />
        </mxCell>
        <mxCell id="M9U-ORIrZUYbXmNIZB3N-118" value="Блокировка доступа" style="text;html=1;strokeColor=#82b366;fillColor=#D5E8D4;align=center;verticalAlign=middle;whiteSpace=wrap;rounded=0;" parent="1" vertex="1">
          <mxGeometry x="2118.13" y="100" width="100" height="50" as="geometry" />
        </mxCell>
        <mxCell id="M9U-ORIrZUYbXmNIZB3N-119" style="edgeStyle=orthogonalEdgeStyle;rounded=0;orthogonalLoop=1;jettySize=auto;html=1;entryX=0.5;entryY=0;entryDx=0;entryDy=0;" parent="1" source="M9U-ORIrZUYbXmNIZB3N-120" target="M9U-ORIrZUYbXmNIZB3N-123" edge="1">
          <mxGeometry relative="1" as="geometry" />
        </mxCell>
        <mxCell id="M9U-ORIrZUYbXmNIZB3N-120" value="Определение роли пользователя" style="text;html=1;strokeColor=#82b366;fillColor=#D5E8D4;align=center;verticalAlign=middle;whiteSpace=wrap;rounded=0;" parent="1" vertex="1">
          <mxGeometry x="2259.38" y="97.5" width="100" height="50" as="geometry" />
        </mxCell>
        <mxCell id="M9U-ORIrZUYbXmNIZB3N-121" value="Проверка добавляемого подключения в списки удаленных подключений" style="text;html=1;strokeColor=#82b366;fillColor=#D5E8D4;align=center;verticalAlign=middle;whiteSpace=wrap;rounded=0;" parent="1" vertex="1">
          <mxGeometry x="2118.13" y="185" width="100" height="110" as="geometry" />
        </mxCell>
        <mxCell id="M9U-ORIrZUYbXmNIZB3N-122" style="edgeStyle=orthogonalEdgeStyle;rounded=0;orthogonalLoop=1;jettySize=auto;html=1;" parent="1" source="M9U-ORIrZUYbXmNIZB3N-123" target="M9U-ORIrZUYbXmNIZB3N-124" edge="1">
          <mxGeometry relative="1" as="geometry" />
        </mxCell>
        <mxCell id="M9U-ORIrZUYbXmNIZB3N-123" value="Получение комментария" style="text;html=1;strokeColor=#82b366;fillColor=#D5E8D4;align=center;verticalAlign=middle;whiteSpace=wrap;rounded=0;" parent="1" vertex="1">
          <mxGeometry x="2259.38" y="177.5" width="100" height="40" as="geometry" />
        </mxCell>
        <mxCell id="M9U-ORIrZUYbXmNIZB3N-124" value="Удаление подключения" style="text;html=1;strokeColor=#82b366;fillColor=#D5E8D4;align=center;verticalAlign=middle;whiteSpace=wrap;rounded=0;" parent="1" vertex="1">
          <mxGeometry x="2260" y="260" width="100" height="40" as="geometry" />
        </mxCell>
        <mxCell id="M9U-ORIrZUYbXmNIZB3N-125" style="edgeStyle=orthogonalEdgeStyle;rounded=0;orthogonalLoop=1;jettySize=auto;html=1;entryX=0.5;entryY=0;entryDx=0;entryDy=0;" parent="1" source="M9U-ORIrZUYbXmNIZB3N-126" target="M9U-ORIrZUYbXmNIZB3N-131" edge="1">
          <mxGeometry relative="1" as="geometry" />
        </mxCell>
        <mxCell id="M9U-ORIrZUYbXmNIZB3N-126" value="Макеты" style="text;html=1;strokeColor=#82b366;fillColor=#D5E8D4;align=center;verticalAlign=middle;whiteSpace=wrap;rounded=0;" parent="1" vertex="1">
          <mxGeometry x="2450" y="-60" width="100" height="50" as="geometry" />
        </mxCell>
        <mxCell id="M9U-ORIrZUYbXmNIZB3N-127" style="edgeStyle=orthogonalEdgeStyle;rounded=0;orthogonalLoop=1;jettySize=auto;html=1;entryX=0.5;entryY=0;entryDx=0;entryDy=0;" parent="1" source="M9U-ORIrZUYbXmNIZB3N-128" target="M9U-ORIrZUYbXmNIZB3N-126" edge="1">
          <mxGeometry relative="1" as="geometry" />
        </mxCell>
        <mxCell id="M9U-ORIrZUYbXmNIZB3N-128" value="Реализция фронта" style="text;html=1;strokeColor=#82b366;fillColor=#D5E8D4;align=center;verticalAlign=middle;whiteSpace=wrap;rounded=0;" parent="1" vertex="1">
          <mxGeometry x="2450" y="-142.5" width="100" height="50" as="geometry" />
        </mxCell>
        <mxCell id="M9U-ORIrZUYbXmNIZB3N-129" style="edgeStyle=orthogonalEdgeStyle;rounded=0;orthogonalLoop=1;jettySize=auto;html=1;entryX=0.5;entryY=0;entryDx=0;entryDy=0;" parent="1" source="M9U-ORIrZUYbXmNIZB3N-131" target="M9U-ORIrZUYbXmNIZB3N-132" edge="1">
          <mxGeometry relative="1" as="geometry" />
        </mxCell>
        <mxCell id="M9U-ORIrZUYbXmNIZB3N-130" style="edgeStyle=orthogonalEdgeStyle;rounded=0;orthogonalLoop=1;jettySize=auto;html=1;entryX=0;entryY=0.5;entryDx=0;entryDy=0;" parent="1" source="M9U-ORIrZUYbXmNIZB3N-131" target="M9U-ORIrZUYbXmNIZB3N-134" edge="1">
          <mxGeometry relative="1" as="geometry" />
        </mxCell>
        <mxCell id="M9U-ORIrZUYbXmNIZB3N-131" value="Основая страница со списком" style="text;html=1;strokeColor=#82b366;fillColor=#D5E8D4;align=center;verticalAlign=middle;whiteSpace=wrap;rounded=0;" parent="1" vertex="1">
          <mxGeometry x="2385" y="20" width="100" height="50" as="geometry" />
        </mxCell>
        <mxCell id="M9U-ORIrZUYbXmNIZB3N-132" value="Форма добавления подключения" style="text;html=1;strokeColor=#82b366;fillColor=#D5E8D4;align=center;verticalAlign=middle;whiteSpace=wrap;rounded=0;" parent="1" vertex="1">
          <mxGeometry x="2385.63" y="105" width="100" height="50" as="geometry" />
        </mxCell>
        <mxCell id="M9U-ORIrZUYbXmNIZB3N-133" style="edgeStyle=orthogonalEdgeStyle;rounded=0;orthogonalLoop=1;jettySize=auto;html=1;entryX=0.5;entryY=0;entryDx=0;entryDy=0;" parent="1" source="M9U-ORIrZUYbXmNIZB3N-134" target="M9U-ORIrZUYbXmNIZB3N-135" edge="1">
          <mxGeometry relative="1" as="geometry" />
        </mxCell>
        <mxCell id="M9U-ORIrZUYbXmNIZB3N-134" value="Иконки действий" style="text;html=1;strokeColor=#D5E8D4;fillColor=#D5E8D4;align=center;verticalAlign=middle;whiteSpace=wrap;rounded=0;" parent="1" vertex="1">
          <mxGeometry x="2511.88" y="20" width="100" height="50" as="geometry" />
        </mxCell>
        <mxCell id="M9U-ORIrZUYbXmNIZB3N-135" value="Модальные окна по иконкам" style="text;html=1;strokeColor=#82b366;fillColor=#D5E8D4;align=center;verticalAlign=middle;whiteSpace=wrap;rounded=0;" parent="1" vertex="1">
          <mxGeometry x="2511.88" y="105" width="100" height="50" as="geometry" />
        </mxCell>
        <mxCell id="M9U-ORIrZUYbXmNIZB3N-137" value="" style="text;html=1;strokeColor=#B9E0A5;fillColor=#FFFFFF;align=center;verticalAlign=middle;whiteSpace=wrap;rounded=0;" parent="1" vertex="1">
          <mxGeometry x="4549" y="-1480" width="1761" height="867.81" as="geometry" />
        </mxCell>
        <mxCell id="M9U-ORIrZUYbXmNIZB3N-138" style="edgeStyle=orthogonalEdgeStyle;rounded=0;orthogonalLoop=1;jettySize=auto;html=1;entryX=0.5;entryY=0;entryDx=0;entryDy=0;" parent="1" source="M9U-ORIrZUYbXmNIZB3N-143" target="M9U-ORIrZUYbXmNIZB3N-156" edge="1">
          <mxGeometry relative="1" as="geometry" />
        </mxCell>
        <mxCell id="M9U-ORIrZUYbXmNIZB3N-139" style="edgeStyle=orthogonalEdgeStyle;rounded=0;orthogonalLoop=1;jettySize=auto;html=1;entryX=0.5;entryY=0;entryDx=0;entryDy=0;" parent="1" source="M9U-ORIrZUYbXmNIZB3N-143" target="M9U-ORIrZUYbXmNIZB3N-147" edge="1">
          <mxGeometry relative="1" as="geometry" />
        </mxCell>
        <mxCell id="M9U-ORIrZUYbXmNIZB3N-140" style="edgeStyle=orthogonalEdgeStyle;rounded=0;orthogonalLoop=1;jettySize=auto;html=1;" parent="1" source="M9U-ORIrZUYbXmNIZB3N-143" target="M9U-ORIrZUYbXmNIZB3N-158" edge="1">
          <mxGeometry relative="1" as="geometry" />
        </mxCell>
        <mxCell id="M9U-ORIrZUYbXmNIZB3N-141" style="edgeStyle=orthogonalEdgeStyle;rounded=0;orthogonalLoop=1;jettySize=auto;html=1;entryX=0.5;entryY=0;entryDx=0;entryDy=0;" parent="1" source="M9U-ORIrZUYbXmNIZB3N-143" target="M9U-ORIrZUYbXmNIZB3N-165" edge="1">
          <mxGeometry relative="1" as="geometry" />
        </mxCell>
        <mxCell id="M9U-ORIrZUYbXmNIZB3N-142" style="edgeStyle=orthogonalEdgeStyle;rounded=0;orthogonalLoop=1;jettySize=auto;html=1;" parent="1" source="M9U-ORIrZUYbXmNIZB3N-143" target="M9U-ORIrZUYbXmNIZB3N-153" edge="1">
          <mxGeometry relative="1" as="geometry">
            <Array as="points">
              <mxPoint x="5788.75" y="-1359.24" />
            </Array>
          </mxGeometry>
        </mxCell>
        <mxCell id="M9U-ORIrZUYbXmNIZB3N-143" value="&lt;font style=&quot;font-size: 16px;&quot;&gt;&lt;b&gt;Очереди заданий&lt;/b&gt;&lt;/font&gt;" style="text;html=1;strokeColor=#82b366;fillColor=#d5e8d4;align=center;verticalAlign=middle;whiteSpace=wrap;rounded=0;" parent="1" vertex="1">
          <mxGeometry x="4568.75" y="-1377.49" width="137.5" height="36.25" as="geometry" />
        </mxCell>
        <mxCell id="M9U-ORIrZUYbXmNIZB3N-144" style="edgeStyle=orthogonalEdgeStyle;rounded=0;orthogonalLoop=1;jettySize=auto;html=1;entryX=0.5;entryY=0;entryDx=0;entryDy=0;" parent="1" source="M9U-ORIrZUYbXmNIZB3N-145" target="M9U-ORIrZUYbXmNIZB3N-152" edge="1">
          <mxGeometry relative="1" as="geometry" />
        </mxCell>
        <mxCell id="M9U-ORIrZUYbXmNIZB3N-145" value="Докер образ с сервером" style="text;html=1;strokeColor=#000000;fillColor=#D5E8D4;align=center;verticalAlign=middle;whiteSpace=wrap;rounded=0;" parent="1" vertex="1">
          <mxGeometry x="4603.75" y="-1227.49" width="102.5" height="30" as="geometry" />
        </mxCell>
        <mxCell id="M9U-ORIrZUYbXmNIZB3N-146" style="edgeStyle=orthogonalEdgeStyle;rounded=0;orthogonalLoop=1;jettySize=auto;html=1;entryX=1;entryY=0.5;entryDx=0;entryDy=0;" parent="1" source="M9U-ORIrZUYbXmNIZB3N-147" target="M9U-ORIrZUYbXmNIZB3N-377" edge="1">
          <mxGeometry relative="1" as="geometry" />
        </mxCell>
        <mxCell id="M9U-ORIrZUYbXmNIZB3N-147" value="Развертывание RMQ" style="text;html=1;strokeColor=#82b366;fillColor=#D5E8D4;align=center;verticalAlign=middle;whiteSpace=wrap;rounded=0;" parent="1" vertex="1">
          <mxGeometry x="4918.75" y="-1304.99" width="100" height="30" as="geometry" />
        </mxCell>
        <mxCell id="M9U-ORIrZUYbXmNIZB3N-149" value="Кластер Rmq в Prod" style="text;html=1;strokeColor=#82b366;fillColor=#d5e8d4;align=center;verticalAlign=middle;whiteSpace=wrap;rounded=0;" parent="1" vertex="1">
          <mxGeometry x="4993.75" y="-1177.49" width="100" height="30" as="geometry" />
        </mxCell>
        <mxCell id="M9U-ORIrZUYbXmNIZB3N-150" style="edgeStyle=orthogonalEdgeStyle;rounded=0;orthogonalLoop=1;jettySize=auto;html=1;entryX=0;entryY=0.5;entryDx=0;entryDy=0;" parent="1" source="M9U-ORIrZUYbXmNIZB3N-151" target="M9U-ORIrZUYbXmNIZB3N-149" edge="1">
          <mxGeometry relative="1" as="geometry" />
        </mxCell>
        <mxCell id="M9U-ORIrZUYbXmNIZB3N-151" value="Контур Stage c кластером Rmq&amp;nbsp;" style="text;html=1;strokeColor=#82b366;fillColor=#d5e8d4;align=center;verticalAlign=middle;whiteSpace=wrap;rounded=0;" parent="1" vertex="1">
          <mxGeometry x="4843.75" y="-1177.49" width="100" height="30" as="geometry" />
        </mxCell>
        <mxCell id="M9U-ORIrZUYbXmNIZB3N-152" value="Шаблон манифеста для ЭО" style="text;html=1;strokeColor=#82b366;fillColor=#d5e8d4;align=center;verticalAlign=middle;whiteSpace=wrap;rounded=0;" parent="1" vertex="1">
          <mxGeometry x="4605" y="-1156.24" width="100" height="50" as="geometry" />
        </mxCell>
        <mxCell id="M9U-ORIrZUYbXmNIZB3N-153" value="Документирование" style="text;html=1;strokeColor=#82b366;fillColor=#D5E8D4;align=center;verticalAlign=middle;whiteSpace=wrap;rounded=0;" parent="1" vertex="1">
          <mxGeometry x="5718.75" y="-1319.99" width="140" height="50" as="geometry" />
        </mxCell>
        <mxCell id="M9U-ORIrZUYbXmNIZB3N-154" style="edgeStyle=orthogonalEdgeStyle;rounded=0;orthogonalLoop=1;jettySize=auto;html=1;" parent="1" source="M9U-ORIrZUYbXmNIZB3N-156" target="M9U-ORIrZUYbXmNIZB3N-145" edge="1">
          <mxGeometry relative="1" as="geometry" />
        </mxCell>
        <mxCell id="M9U-ORIrZUYbXmNIZB3N-155" style="edgeStyle=orthogonalEdgeStyle;rounded=0;orthogonalLoop=1;jettySize=auto;html=1;" parent="1" source="M9U-ORIrZUYbXmNIZB3N-156" target="M9U-ORIrZUYbXmNIZB3N-160" edge="1">
          <mxGeometry relative="1" as="geometry" />
        </mxCell>
        <mxCell id="M9U-ORIrZUYbXmNIZB3N-156" value="WS сервер" style="text;html=1;strokeColor=#82b366;fillColor=#D5E8D4;align=center;verticalAlign=middle;whiteSpace=wrap;rounded=0;" parent="1" vertex="1">
          <mxGeometry x="4603.75" y="-1304.99" width="100" height="30" as="geometry" />
        </mxCell>
        <mxCell id="M9U-ORIrZUYbXmNIZB3N-157" style="edgeStyle=orthogonalEdgeStyle;rounded=0;orthogonalLoop=1;jettySize=auto;html=1;entryX=0.5;entryY=0;entryDx=0;entryDy=0;" parent="1" source="M9U-ORIrZUYbXmNIZB3N-158" target="M9U-ORIrZUYbXmNIZB3N-159" edge="1">
          <mxGeometry relative="1" as="geometry" />
        </mxCell>
        <mxCell id="M9U-ORIrZUYbXmNIZB3N-158" value="тестовая модель тентов с очередью и варппером для передачи картинок напрямую" style="text;html=1;strokeColor=#82b366;fillColor=#D5E8D4;align=center;verticalAlign=middle;whiteSpace=wrap;rounded=0;" parent="1" vertex="1">
          <mxGeometry x="5143.75" y="-1319.99" width="190" height="60" as="geometry" />
        </mxCell>
        <mxCell id="M9U-ORIrZUYbXmNIZB3N-159" value="Докер имедж модели и развертывание в ИИ" style="text;html=1;strokeColor=#82b366;fillColor=#d5e8d4;align=center;verticalAlign=middle;whiteSpace=wrap;rounded=0;" parent="1" vertex="1">
          <mxGeometry x="5143.75" y="-1187.49" width="190" height="60" as="geometry" />
        </mxCell>
        <mxCell id="M9U-ORIrZUYbXmNIZB3N-160" value="Серверная часть с моделью" style="text;html=1;strokeColor=#82b366;fillColor=#D5E8D4;align=center;verticalAlign=middle;whiteSpace=wrap;rounded=0;" parent="1" vertex="1">
          <mxGeometry x="4743.75" y="-1304.99" width="100" height="30" as="geometry" />
        </mxCell>
        <mxCell id="M9U-ORIrZUYbXmNIZB3N-161" value="Oauth2 КК+RMQ" style="text;html=1;strokeColor=#82b366;fillColor=#D5E8D4;align=center;verticalAlign=middle;whiteSpace=wrap;rounded=0;" parent="1" vertex="1">
          <mxGeometry x="4993.75" y="-1257.49" width="100" height="30" as="geometry" />
        </mxCell>
        <mxCell id="M9U-ORIrZUYbXmNIZB3N-162" value="Получение параметра с фронта, бибилиотека подключения к rabbit" style="rounded=0;whiteSpace=wrap;html=1;fillColor=#D5E8D4;" parent="1" vertex="1">
          <mxGeometry x="5381.88" y="-1207.49" width="123.75" height="60" as="geometry" />
        </mxCell>
        <mxCell id="M9U-ORIrZUYbXmNIZB3N-163" style="edgeStyle=orthogonalEdgeStyle;rounded=0;orthogonalLoop=1;jettySize=auto;html=1;entryX=0.5;entryY=0;entryDx=0;entryDy=0;" parent="1" source="M9U-ORIrZUYbXmNIZB3N-165" target="M9U-ORIrZUYbXmNIZB3N-162" edge="1">
          <mxGeometry relative="1" as="geometry" />
        </mxCell>
        <mxCell id="M9U-ORIrZUYbXmNIZB3N-164" style="edgeStyle=orthogonalEdgeStyle;rounded=0;orthogonalLoop=1;jettySize=auto;html=1;entryX=0.5;entryY=0;entryDx=0;entryDy=0;" parent="1" source="M9U-ORIrZUYbXmNIZB3N-165" target="M9U-ORIrZUYbXmNIZB3N-166" edge="1">
          <mxGeometry relative="1" as="geometry" />
        </mxCell>
        <mxCell id="M9U-ORIrZUYbXmNIZB3N-165" value="Очереди заданий, интеграция&amp;nbsp; в Mlflow и развертывания модели&amp;nbsp;" style="rounded=0;whiteSpace=wrap;html=1;fillColor=#D5E8D4;" parent="1" vertex="1">
          <mxGeometry x="5423.75" y="-1319.99" width="152.5" height="60" as="geometry" />
        </mxCell>
        <mxCell id="M9U-ORIrZUYbXmNIZB3N-166" value="Фронт,&amp;nbsp; доработка формы деплоя передача параметра для использьзования очереди" style="rounded=0;whiteSpace=wrap;html=1;fillColor=#D5E8D4;" parent="1" vertex="1">
          <mxGeometry x="5553.75" y="-1207.49" width="152.5" height="60" as="geometry" />
        </mxCell>
        <mxCell id="M9U-ORIrZUYbXmNIZB3N-169" value="" style="endArrow=none;html=1;rounded=0;startArrow=none;" parent="1" edge="1">
          <mxGeometry width="50" height="50" relative="1" as="geometry">
            <mxPoint x="910" y="-440" as="sourcePoint" />
            <mxPoint x="920.0259688416227" y="-441.20103875366476" as="targetPoint" />
          </mxGeometry>
        </mxCell>
        <mxCell id="M9U-ORIrZUYbXmNIZB3N-170" value="" style="text;html=1;strokeColor=#D5E8D4;fillColor=#FFFFFF;align=center;verticalAlign=middle;whiteSpace=wrap;rounded=0;" parent="1" vertex="1">
          <mxGeometry x="2670" y="-207.5" width="290" height="370" as="geometry" />
        </mxCell>
        <mxCell id="M9U-ORIrZUYbXmNIZB3N-171" style="edgeStyle=orthogonalEdgeStyle;rounded=0;orthogonalLoop=1;jettySize=auto;html=1;" parent="1" source="M9U-ORIrZUYbXmNIZB3N-173" target="M9U-ORIrZUYbXmNIZB3N-175" edge="1">
          <mxGeometry relative="1" as="geometry" />
        </mxCell>
        <mxCell id="M9U-ORIrZUYbXmNIZB3N-172" style="edgeStyle=orthogonalEdgeStyle;rounded=0;orthogonalLoop=1;jettySize=auto;html=1;entryX=0.5;entryY=0;entryDx=0;entryDy=0;" parent="1" source="M9U-ORIrZUYbXmNIZB3N-173" target="M9U-ORIrZUYbXmNIZB3N-181" edge="1">
          <mxGeometry relative="1" as="geometry">
            <Array as="points">
              <mxPoint x="2742" y="-107.5" />
              <mxPoint x="2870" y="-107.5" />
            </Array>
          </mxGeometry>
        </mxCell>
        <mxCell id="M9U-ORIrZUYbXmNIZB3N-173" value="Каталог образов и управление ресурсами для запуска юпитера" style="text;html=1;strokeColor=#82b366;fillColor=#d5e8d4;align=center;verticalAlign=middle;whiteSpace=wrap;rounded=0;" parent="1" vertex="1">
          <mxGeometry x="2692.5" y="-197.5" width="100" height="70" as="geometry" />
        </mxCell>
        <mxCell id="M9U-ORIrZUYbXmNIZB3N-174" style="edgeStyle=orthogonalEdgeStyle;rounded=0;orthogonalLoop=1;jettySize=auto;html=1;entryX=0.5;entryY=0;entryDx=0;entryDy=0;" parent="1" source="M9U-ORIrZUYbXmNIZB3N-175" target="M9U-ORIrZUYbXmNIZB3N-178" edge="1">
          <mxGeometry relative="1" as="geometry" />
        </mxCell>
        <mxCell id="M9U-ORIrZUYbXmNIZB3N-175" value="Реализация бэкенда" style="text;html=1;strokeColor=#82b366;fillColor=#D5E8D4;align=center;verticalAlign=middle;whiteSpace=wrap;rounded=0;" parent="1" vertex="1">
          <mxGeometry x="2692.5" y="-75" width="100" height="40" as="geometry" />
        </mxCell>
        <mxCell id="M9U-ORIrZUYbXmNIZB3N-176" value="Реализация фронта" style="text;html=1;strokeColor=#82b366;fillColor=#d5e8d4;align=center;verticalAlign=middle;whiteSpace=wrap;rounded=0;" parent="1" vertex="1">
          <mxGeometry x="2820" y="-2.5" width="100" height="40" as="geometry" />
        </mxCell>
        <mxCell id="M9U-ORIrZUYbXmNIZB3N-177" style="edgeStyle=orthogonalEdgeStyle;rounded=0;orthogonalLoop=1;jettySize=auto;html=1;entryX=0.5;entryY=0;entryDx=0;entryDy=0;" parent="1" source="M9U-ORIrZUYbXmNIZB3N-178" target="M9U-ORIrZUYbXmNIZB3N-179" edge="1">
          <mxGeometry relative="1" as="geometry" />
        </mxCell>
        <mxCell id="M9U-ORIrZUYbXmNIZB3N-178" value="Динамическое формирование ресурсов для запуска сервера" style="rounded=0;whiteSpace=wrap;html=1;fillColor=#D5E8D4;strokeColor=#D5E8D4;" parent="1" vertex="1">
          <mxGeometry x="2691.25" y="-2.5" width="102.5" height="70" as="geometry" />
        </mxCell>
        <mxCell id="M9U-ORIrZUYbXmNIZB3N-179" value="CICD нового приложения&amp;nbsp; Jupyter" style="text;html=1;strokeColor=#82b366;fillColor=#D5E8D4;align=center;verticalAlign=middle;whiteSpace=wrap;rounded=0;" parent="1" vertex="1">
          <mxGeometry x="2692.5" y="102.5" width="100" height="40" as="geometry" />
        </mxCell>
        <mxCell id="M9U-ORIrZUYbXmNIZB3N-180" style="edgeStyle=orthogonalEdgeStyle;rounded=0;orthogonalLoop=1;jettySize=auto;html=1;entryX=0.5;entryY=0;entryDx=0;entryDy=0;" parent="1" source="M9U-ORIrZUYbXmNIZB3N-181" target="M9U-ORIrZUYbXmNIZB3N-176" edge="1">
          <mxGeometry relative="1" as="geometry" />
        </mxCell>
        <mxCell id="M9U-ORIrZUYbXmNIZB3N-181" value="Макеты" style="text;html=1;strokeColor=#D5E8D4;fillColor=#D5E8D4;align=center;verticalAlign=middle;whiteSpace=wrap;rounded=0;" parent="1" vertex="1">
          <mxGeometry x="2820" y="-75" width="100" height="40" as="geometry" />
        </mxCell>
        <mxCell id="M9U-ORIrZUYbXmNIZB3N-182" value="" style="rounded=0;whiteSpace=wrap;html=1;strokeColor=#D5E8D4;fillColor=#FFFFFF;" parent="1" vertex="1">
          <mxGeometry x="2640" y="185" width="320" height="375" as="geometry" />
        </mxCell>
        <mxCell id="M9U-ORIrZUYbXmNIZB3N-183" value="Проверка на уникальность имени модели" style="text;html=1;strokeColor=#6c8ebf;fillColor=#D5E8D4;align=center;verticalAlign=middle;whiteSpace=wrap;rounded=0;" parent="1" vertex="1">
          <mxGeometry x="2691.25" y="210" width="100" height="40" as="geometry" />
        </mxCell>
        <mxCell id="M9U-ORIrZUYbXmNIZB3N-184" value="Развертывание Gitlab c созданием нужных репозиториев" style="text;html=1;strokeColor=#82b366;fillColor=#D5E8D4;align=center;verticalAlign=middle;whiteSpace=wrap;rounded=0;" parent="1" vertex="1">
          <mxGeometry x="2810" y="205" width="100" height="80" as="geometry" />
        </mxCell>
        <mxCell id="M9U-ORIrZUYbXmNIZB3N-185" value="Запуск юпитера без доступа к терминальному окну" style="text;html=1;strokeColor=#82b366;fillColor=#d5e8d4;align=center;verticalAlign=middle;whiteSpace=wrap;rounded=0;" parent="1" vertex="1">
          <mxGeometry x="2691.25" y="265" width="100" height="75" as="geometry" />
        </mxCell>
        <mxCell id="M9U-ORIrZUYbXmNIZB3N-186" value="Доп Авторизация для прод модели" style="text;html=1;strokeColor=#82b366;fillColor=#D5E8D4;align=center;verticalAlign=middle;whiteSpace=wrap;rounded=0;" parent="1" vertex="1">
          <mxGeometry x="2810" y="300" width="100" height="40" as="geometry" />
        </mxCell>
        <mxCell id="M9U-ORIrZUYbXmNIZB3N-187" value="Удаление записей о деплое" style="text;html=1;strokeColor=#82b366;fillColor=#D5E8D4;align=center;verticalAlign=middle;whiteSpace=wrap;rounded=0;" parent="1" vertex="1">
          <mxGeometry x="2691.25" y="360" width="100" height="40" as="geometry" />
        </mxCell>
        <mxCell id="M9U-ORIrZUYbXmNIZB3N-188" value="" style="rounded=0;whiteSpace=wrap;html=1;strokeColor=#D5E8D4;fillColor=#FFFFFF;" parent="1" vertex="1">
          <mxGeometry x="3000" y="-132.5" width="390" height="308.75" as="geometry" />
        </mxCell>
        <mxCell id="M9U-ORIrZUYbXmNIZB3N-189" style="edgeStyle=orthogonalEdgeStyle;rounded=0;orthogonalLoop=1;jettySize=auto;html=1;entryX=0.5;entryY=0;entryDx=0;entryDy=0;" parent="1" source="M9U-ORIrZUYbXmNIZB3N-191" target="M9U-ORIrZUYbXmNIZB3N-193" edge="1">
          <mxGeometry relative="1" as="geometry" />
        </mxCell>
        <mxCell id="M9U-ORIrZUYbXmNIZB3N-190" style="edgeStyle=orthogonalEdgeStyle;rounded=0;orthogonalLoop=1;jettySize=auto;html=1;entryX=0.5;entryY=0;entryDx=0;entryDy=0;" parent="1" source="M9U-ORIrZUYbXmNIZB3N-191" target="M9U-ORIrZUYbXmNIZB3N-195" edge="1">
          <mxGeometry relative="1" as="geometry">
            <Array as="points">
              <mxPoint x="3113.25" y="-30" />
              <mxPoint x="3286.25" y="-30" />
            </Array>
          </mxGeometry>
        </mxCell>
        <mxCell id="M9U-ORIrZUYbXmNIZB3N-191" value="Управление раписаниями заданий для обучения моделей и предобработки данных в пайплайнах" style="text;html=1;strokeColor=#82b366;fillColor=#d5e8d4;align=center;verticalAlign=middle;whiteSpace=wrap;rounded=0;" parent="1" vertex="1">
          <mxGeometry x="3016.25" y="-102.5" width="195" height="60" as="geometry" />
        </mxCell>
        <mxCell id="M9U-ORIrZUYbXmNIZB3N-192" style="edgeStyle=orthogonalEdgeStyle;rounded=0;orthogonalLoop=1;jettySize=auto;html=1;entryX=0.5;entryY=0;entryDx=0;entryDy=0;" parent="1" source="M9U-ORIrZUYbXmNIZB3N-193" target="M9U-ORIrZUYbXmNIZB3N-194" edge="1">
          <mxGeometry relative="1" as="geometry" />
        </mxCell>
        <mxCell id="M9U-ORIrZUYbXmNIZB3N-193" value="Доработка бэк Elyra для передачи параметра раписания запуска&amp;nbsp;" style="text;html=1;strokeColor=#82b366;fillColor=#D5E8D4;align=center;verticalAlign=middle;whiteSpace=wrap;rounded=0;" parent="1" vertex="1">
          <mxGeometry x="3048.75" y="-2.5" width="130" height="60" as="geometry" />
        </mxCell>
        <mxCell id="M9U-ORIrZUYbXmNIZB3N-194" value="Доработка бэк Airflow для принятия параметра раписания и запуска Dags" style="text;html=1;strokeColor=#82b366;fillColor=#d5e8d4;align=center;verticalAlign=middle;whiteSpace=wrap;rounded=0;" parent="1" vertex="1">
          <mxGeometry x="3048.75" y="97.5" width="130" height="60" as="geometry" />
        </mxCell>
        <mxCell id="M9U-ORIrZUYbXmNIZB3N-195" value="реализация UI с полем Cron в Elyra" style="text;html=1;strokeColor=#82b366;fillColor=#D5E8D4;align=center;verticalAlign=middle;whiteSpace=wrap;rounded=0;" parent="1" vertex="1">
          <mxGeometry x="3221.25" y="-2.5" width="130" height="60" as="geometry" />
        </mxCell>
        <mxCell id="M9U-ORIrZUYbXmNIZB3N-196" style="edgeStyle=orthogonalEdgeStyle;rounded=0;orthogonalLoop=1;jettySize=auto;html=1;entryX=0.5;entryY=0;entryDx=0;entryDy=0;" parent="1" source="M9U-ORIrZUYbXmNIZB3N-197" target="M9U-ORIrZUYbXmNIZB3N-200" edge="1">
          <mxGeometry relative="1" as="geometry" />
        </mxCell>
        <mxCell id="M9U-ORIrZUYbXmNIZB3N-197" value="Передачи данных&amp;nbsp; из APi K8s через Кеш" style="rounded=0;whiteSpace=wrap;html=1;strokeColor=#D5E8D4;fillColor=#D5E8D4;" parent="1" vertex="1">
          <mxGeometry x="4608.75" y="-987.5" width="120" height="60" as="geometry" />
        </mxCell>
        <mxCell id="M9U-ORIrZUYbXmNIZB3N-198" style="edgeStyle=orthogonalEdgeStyle;rounded=0;orthogonalLoop=1;jettySize=auto;html=1;entryX=0.5;entryY=0;entryDx=0;entryDy=0;" parent="1" source="M9U-ORIrZUYbXmNIZB3N-200" edge="1">
          <mxGeometry relative="1" as="geometry">
            <mxPoint x="4668.75" y="-795" as="targetPoint" />
          </mxGeometry>
        </mxCell>
        <mxCell id="M9U-ORIrZUYbXmNIZB3N-199" style="edgeStyle=orthogonalEdgeStyle;rounded=0;orthogonalLoop=1;jettySize=auto;html=1;" parent="1" source="M9U-ORIrZUYbXmNIZB3N-200" target="M9U-ORIrZUYbXmNIZB3N-204" edge="1">
          <mxGeometry relative="1" as="geometry" />
        </mxCell>
        <mxCell id="M9U-ORIrZUYbXmNIZB3N-200" value="Реализация воркера для получения данных из апи кубера" style="whiteSpace=wrap;html=1;fillColor=#d5e8d4;strokeColor=#82b366;gradientColor=none;rounded=0;" parent="1" vertex="1">
          <mxGeometry x="4608.75" y="-895" width="120" height="60" as="geometry" />
        </mxCell>
        <mxCell id="M9U-ORIrZUYbXmNIZB3N-201" style="edgeStyle=orthogonalEdgeStyle;rounded=0;orthogonalLoop=1;jettySize=auto;html=1;entryX=0;entryY=0.5;entryDx=0;entryDy=0;" parent="1" source="M9U-ORIrZUYbXmNIZB3N-202" target="M9U-ORIrZUYbXmNIZB3N-203" edge="1">
          <mxGeometry relative="1" as="geometry" />
        </mxCell>
        <mxCell id="M9U-ORIrZUYbXmNIZB3N-202" value="Реализация АПИ получения кеш из редис&amp;nbsp;" style="whiteSpace=wrap;html=1;fillColor=#d5e8d4;strokeColor=#82b366;gradientColor=none;rounded=0;" parent="1" vertex="1">
          <mxGeometry x="4608.75" y="-795" width="130" height="110" as="geometry" />
        </mxCell>
        <mxCell id="M9U-ORIrZUYbXmNIZB3N-203" value="Доработка Mlflow получения кеш данных из API по статусам подов модели и свободным ресурсам" style="whiteSpace=wrap;html=1;fillColor=#d5e8d4;strokeColor=#82b366;gradientColor=none;rounded=0;" parent="1" vertex="1">
          <mxGeometry x="4788.75" y="-795" width="130" height="110" as="geometry" />
        </mxCell>
        <mxCell id="M9U-ORIrZUYbXmNIZB3N-204" value="Развертывание воркеров, редис" style="whiteSpace=wrap;html=1;fillColor=#d5e8d4;strokeColor=#82b366;gradientColor=none;rounded=0;" parent="1" vertex="1">
          <mxGeometry x="4792.5" y="-895" width="120" height="60" as="geometry" />
        </mxCell>
        <mxCell id="M9U-ORIrZUYbXmNIZB3N-205" value="Переименование модели через UI" style="text;html=1;strokeColor=#82b366;fillColor=#D5E8D4;align=center;verticalAlign=middle;whiteSpace=wrap;rounded=0;" parent="1" vertex="1">
          <mxGeometry x="2810" y="360" width="100" height="40" as="geometry" />
        </mxCell>
        <mxCell id="M9U-ORIrZUYbXmNIZB3N-206" value="Redeploy модели" style="text;html=1;strokeColor=#82b366;fillColor=#D5E8D4;align=center;verticalAlign=middle;whiteSpace=wrap;rounded=0;" parent="1" vertex="1">
          <mxGeometry x="2691.25" y="423.75" width="100" height="40" as="geometry" />
        </mxCell>
        <mxCell id="M9U-ORIrZUYbXmNIZB3N-207" value="Удаление Дагов из UI Airflow и обхектов модели из минио и гит" style="rounded=0;whiteSpace=wrap;html=1;strokeColor=#D5E8D4;fillColor=#D5E8D4;" parent="1" vertex="1">
          <mxGeometry x="3400" y="12.5" width="120" height="60" as="geometry" />
        </mxCell>
        <mxCell id="M9U-ORIrZUYbXmNIZB3N-209" style="edgeStyle=orthogonalEdgeStyle;rounded=0;orthogonalLoop=1;jettySize=auto;html=1;fontSize=12;" parent="1" source="M9U-ORIrZUYbXmNIZB3N-212" target="M9U-ORIrZUYbXmNIZB3N-92" edge="1">
          <mxGeometry relative="1" as="geometry" />
        </mxCell>
        <mxCell id="M9U-ORIrZUYbXmNIZB3N-210" style="edgeStyle=orthogonalEdgeStyle;rounded=0;orthogonalLoop=1;jettySize=auto;html=1;entryX=0.5;entryY=0;entryDx=0;entryDy=0;fontSize=12;" parent="1" source="M9U-ORIrZUYbXmNIZB3N-212" target="M9U-ORIrZUYbXmNIZB3N-251" edge="1">
          <mxGeometry relative="1" as="geometry" />
        </mxCell>
        <mxCell id="M9U-ORIrZUYbXmNIZB3N-211" style="edgeStyle=orthogonalEdgeStyle;rounded=0;orthogonalLoop=1;jettySize=auto;html=1;entryX=0.5;entryY=0;entryDx=0;entryDy=0;fontSize=12;" parent="1" source="M9U-ORIrZUYbXmNIZB3N-212" target="M9U-ORIrZUYbXmNIZB3N-253" edge="1">
          <mxGeometry relative="1" as="geometry">
            <Array as="points">
              <mxPoint x="8370" y="-1864.36" />
              <mxPoint x="8370" y="-1774.36" />
            </Array>
          </mxGeometry>
        </mxCell>
        <mxCell id="M9U-ORIrZUYbXmNIZB3N-212" value="&lt;font style=&quot;font-size: 18px;&quot;&gt;&lt;b&gt;Очереди ресурсов&lt;/b&gt;&lt;/font&gt;" style="rounded=0;whiteSpace=wrap;html=1;fillColor=#d5e8d4;strokeColor=#82b366;" parent="1" vertex="1">
          <mxGeometry x="7020" y="-1894.36" width="110" height="60" as="geometry" />
        </mxCell>
        <mxCell id="vXsJCSpQS5DEUu_Gp0zB-23" style="edgeStyle=orthogonalEdgeStyle;rounded=0;orthogonalLoop=1;jettySize=auto;html=1;entryX=0;entryY=0.5;entryDx=0;entryDy=0;" parent="1" source="M9U-ORIrZUYbXmNIZB3N-214" target="vXsJCSpQS5DEUu_Gp0zB-22" edge="1">
          <mxGeometry relative="1" as="geometry" />
        </mxCell>
        <mxCell id="M9U-ORIrZUYbXmNIZB3N-214" value="Проектирование БД" style="rounded=0;whiteSpace=wrap;html=1;fillColor=#d5e8d4;strokeColor=#82b366;" parent="1" vertex="1">
          <mxGeometry x="7020" y="-1579.36" width="110" height="60" as="geometry" />
        </mxCell>
        <mxCell id="vXsJCSpQS5DEUu_Gp0zB-6" style="edgeStyle=orthogonalEdgeStyle;rounded=0;orthogonalLoop=1;jettySize=auto;html=1;" parent="1" source="M9U-ORIrZUYbXmNIZB3N-251" edge="1">
          <mxGeometry relative="1" as="geometry">
            <mxPoint x="7490" y="-1572.49" as="targetPoint" />
          </mxGeometry>
        </mxCell>
        <mxCell id="vXsJCSpQS5DEUu_Gp0zB-21" style="edgeStyle=orthogonalEdgeStyle;rounded=0;orthogonalLoop=1;jettySize=auto;html=1;entryX=0.5;entryY=0;entryDx=0;entryDy=0;" parent="1" source="M9U-ORIrZUYbXmNIZB3N-251" target="vXsJCSpQS5DEUu_Gp0zB-20" edge="1">
          <mxGeometry relative="1" as="geometry" />
        </mxCell>
        <mxCell id="M9U-ORIrZUYbXmNIZB3N-251" value="Реализация Бэка" style="rounded=0;whiteSpace=wrap;html=1;fillColor=#d5e8d4;strokeColor=#82b366;" parent="1" vertex="1">
          <mxGeometry x="7630" y="-1774.36" width="110" height="60" as="geometry" />
        </mxCell>
        <mxCell id="vXsJCSpQS5DEUu_Gp0zB-3" style="edgeStyle=orthogonalEdgeStyle;rounded=0;orthogonalLoop=1;jettySize=auto;html=1;entryX=0.5;entryY=0;entryDx=0;entryDy=0;" parent="1" source="M9U-ORIrZUYbXmNIZB3N-253" target="OkP9vtwVXzSXyu5hQiaO-20" edge="1">
          <mxGeometry relative="1" as="geometry">
            <Array as="points">
              <mxPoint x="8370" y="-1662.49" />
              <mxPoint x="8190" y="-1662.49" />
            </Array>
          </mxGeometry>
        </mxCell>
        <mxCell id="vXsJCSpQS5DEUu_Gp0zB-4" style="edgeStyle=orthogonalEdgeStyle;rounded=0;orthogonalLoop=1;jettySize=auto;html=1;entryX=0.352;entryY=-0.034;entryDx=0;entryDy=0;entryPerimeter=0;" parent="1" source="M9U-ORIrZUYbXmNIZB3N-253" target="OkP9vtwVXzSXyu5hQiaO-21" edge="1">
          <mxGeometry relative="1" as="geometry" />
        </mxCell>
        <mxCell id="vXsJCSpQS5DEUu_Gp0zB-5" style="edgeStyle=orthogonalEdgeStyle;rounded=0;orthogonalLoop=1;jettySize=auto;html=1;entryX=0.5;entryY=0;entryDx=0;entryDy=0;" parent="1" source="M9U-ORIrZUYbXmNIZB3N-253" target="OkP9vtwVXzSXyu5hQiaO-22" edge="1">
          <mxGeometry relative="1" as="geometry">
            <Array as="points">
              <mxPoint x="8370" y="-1662.49" />
              <mxPoint x="8590" y="-1662.49" />
            </Array>
          </mxGeometry>
        </mxCell>
        <mxCell id="M9U-ORIrZUYbXmNIZB3N-253" value="Реализация Фронта" style="rounded=0;whiteSpace=wrap;html=1;fillColor=#d5e8d4;strokeColor=#82b366;" parent="1" vertex="1">
          <mxGeometry x="8300" y="-1739.36" width="140" height="60" as="geometry" />
        </mxCell>
        <mxCell id="M9U-ORIrZUYbXmNIZB3N-292" value="Доработка деплоя mlflow с сайдкарконтенйром сбора метрик и передачи в графану для построения дашборда" style="rounded=0;whiteSpace=wrap;html=1;strokeColor=#D5E8D4;fillColor=#D5E8D4;" parent="1" vertex="1">
          <mxGeometry x="3400" y="-132.5" width="120" height="130" as="geometry" />
        </mxCell>
        <mxCell id="M9U-ORIrZUYbXmNIZB3N-303" value="" style="rounded=0;whiteSpace=wrap;html=1;labelBackgroundColor=#FFFFFF;strokeColor=#000000;fontSize=17;fillColor=#FFFFFF;" parent="1" vertex="1">
          <mxGeometry x="15203.38" y="-209.99999999999997" width="431.25" height="247.5" as="geometry" />
        </mxCell>
        <mxCell id="M9U-ORIrZUYbXmNIZB3N-311" style="edgeStyle=orthogonalEdgeStyle;rounded=0;orthogonalLoop=1;jettySize=auto;html=1;entryX=0.5;entryY=0;entryDx=0;entryDy=0;fontSize=14;" parent="1" source="M9U-ORIrZUYbXmNIZB3N-312" target="M9U-ORIrZUYbXmNIZB3N-313" edge="1">
          <mxGeometry relative="1" as="geometry" />
        </mxCell>
        <mxCell id="M9U-ORIrZUYbXmNIZB3N-312" value="29.09.2023" style="ellipse;whiteSpace=wrap;html=1;aspect=fixed;fillColor=#d5e8d4;strokeColor=#82b366;" parent="1" vertex="1">
          <mxGeometry x="4340" y="-475" width="65" height="65" as="geometry" />
        </mxCell>
        <mxCell id="M9U-ORIrZUYbXmNIZB3N-313" value="" style="rounded=0;whiteSpace=wrap;html=1;labelBackgroundColor=#FFFFFF;strokeColor=#B9E0A5;fontSize=14;fillColor=#FFFFFF;" parent="1" vertex="1">
          <mxGeometry x="4176.25" y="-280" width="392.5" height="530" as="geometry" />
        </mxCell>
        <mxCell id="M9U-ORIrZUYbXmNIZB3N-314" value="Обновление prod" style="text;html=1;strokeColor=none;fillColor=none;align=center;verticalAlign=middle;whiteSpace=wrap;rounded=0;labelBackgroundColor=#FFFFFF;fontSize=14;" parent="1" vertex="1">
          <mxGeometry x="4198.75" y="-260" width="90" height="30" as="geometry" />
        </mxCell>
        <mxCell id="M9U-ORIrZUYbXmNIZB3N-315" value="&lt;font style=&quot;font-size: 12px;&quot;&gt;Подключение к сторонним БД&lt;/font&gt;" style="text;html=1;strokeColor=#82b366;fillColor=#d5e8d4;align=center;verticalAlign=middle;whiteSpace=wrap;rounded=0;" parent="1" vertex="1">
          <mxGeometry x="4188.75" y="-195" width="120" height="50" as="geometry" />
        </mxCell>
        <mxCell id="M9U-ORIrZUYbXmNIZB3N-316" value="Каталог образов и управление ресурсами для запуска юпитера" style="text;html=1;strokeColor=#82b366;fillColor=#d5e8d4;align=center;verticalAlign=middle;whiteSpace=wrap;rounded=0;" parent="1" vertex="1">
          <mxGeometry x="4328.75" y="-200" width="160" height="57.5" as="geometry" />
        </mxCell>
        <mxCell id="M9U-ORIrZUYbXmNIZB3N-317" value="Управление раписаниями заданий для обучения моделей и предобработки данных в пайплайнах" style="text;html=1;align=center;verticalAlign=middle;whiteSpace=wrap;rounded=0;strokeColor=#82b366;fillColor=#d5e8d4;" parent="1" vertex="1">
          <mxGeometry x="4188.75" y="-120" width="195" height="60" as="geometry" />
        </mxCell>
        <mxCell id="M9U-ORIrZUYbXmNIZB3N-318" value="Передачи данных&amp;nbsp; из APi K8s через Кеш" style="rounded=0;whiteSpace=wrap;html=1;fillColor=#d5e8d4;strokeColor=#82b366;" parent="1" vertex="1">
          <mxGeometry x="4438.75" y="-125" width="120" height="60" as="geometry" />
        </mxCell>
        <mxCell id="M9U-ORIrZUYbXmNIZB3N-319" value="Удаление Дагов из UI Airflow и обхектов модели из минио и гит" style="rounded=0;whiteSpace=wrap;html=1;fillColor=#d5e8d4;strokeColor=#82b366;" parent="1" vertex="1">
          <mxGeometry x="4188.75" y="-35" width="120" height="60" as="geometry" />
        </mxCell>
        <mxCell id="M9U-ORIrZUYbXmNIZB3N-320" value="Доработка деплоя mlflow с сайдкарконтенйром сбора метрик и передачи в графану для построения дашборда" style="rounded=0;whiteSpace=wrap;html=1;fillColor=#d5e8d4;strokeColor=#82b366;" parent="1" vertex="1">
          <mxGeometry x="4438.75" y="-40" width="120" height="130" as="geometry" />
        </mxCell>
        <mxCell id="M9U-ORIrZUYbXmNIZB3N-321" value="Проверка на уникальность имени модели" style="text;html=1;align=center;verticalAlign=middle;whiteSpace=wrap;rounded=0;strokeColor=#82b366;fillColor=#d5e8d4;" parent="1" vertex="1">
          <mxGeometry x="4188.75" y="65" width="100" height="40" as="geometry" />
        </mxCell>
        <mxCell id="M9U-ORIrZUYbXmNIZB3N-322" value="Развертывание Gitlab c созданием нужных репозиториев" style="text;html=1;align=center;verticalAlign=middle;whiteSpace=wrap;rounded=0;strokeColor=#82b366;fillColor=#d5e8d4;" parent="1" vertex="1">
          <mxGeometry x="4328.75" y="-25" width="100" height="80" as="geometry" />
        </mxCell>
        <mxCell id="M9U-ORIrZUYbXmNIZB3N-323" value="Запуск юпитера без доступа к терминальному окну" style="text;html=1;align=center;verticalAlign=middle;whiteSpace=wrap;rounded=0;strokeColor=#82b366;fillColor=#d5e8d4;" parent="1" vertex="1">
          <mxGeometry x="4193.75" y="160" width="100" height="75" as="geometry" />
        </mxCell>
        <mxCell id="M9U-ORIrZUYbXmNIZB3N-324" value="Доп Авторизация для прод модели" style="text;html=1;align=center;verticalAlign=middle;whiteSpace=wrap;rounded=0;strokeColor=#82b366;fillColor=#d5e8d4;" parent="1" vertex="1">
          <mxGeometry x="4438.75" y="120" width="100" height="40" as="geometry" />
        </mxCell>
        <mxCell id="M9U-ORIrZUYbXmNIZB3N-325" value="Удаление записей о деплое" style="text;html=1;align=center;verticalAlign=middle;whiteSpace=wrap;rounded=0;strokeColor=#82b366;fillColor=#d5e8d4;" parent="1" vertex="1">
          <mxGeometry x="4322.5" y="167.5" width="100" height="40" as="geometry" />
        </mxCell>
        <mxCell id="M9U-ORIrZUYbXmNIZB3N-326" value="Переименование модели через UI" style="text;html=1;align=center;verticalAlign=middle;whiteSpace=wrap;rounded=0;strokeColor=#82b366;fillColor=#d5e8d4;" parent="1" vertex="1">
          <mxGeometry x="4438.75" y="170" width="100" height="40" as="geometry" />
        </mxCell>
        <mxCell id="M9U-ORIrZUYbXmNIZB3N-327" value="Redeploy модели" style="text;html=1;align=center;verticalAlign=middle;whiteSpace=wrap;rounded=0;strokeColor=#82b366;fillColor=#d5e8d4;" parent="1" vertex="1">
          <mxGeometry x="4322.5" y="80" width="100" height="40" as="geometry" />
        </mxCell>
        <mxCell id="M9U-ORIrZUYbXmNIZB3N-330" value="Развертывание нескольких экземпляров модели" style="text;html=1;strokeColor=#1BA1E2;fillColor=#D5E8D4;align=center;verticalAlign=middle;whiteSpace=wrap;rounded=0;" parent="1" vertex="1">
          <mxGeometry x="2810" y="420" width="120" height="50" as="geometry" />
        </mxCell>
        <mxCell id="M9U-ORIrZUYbXmNIZB3N-335" value="&lt;h1 style=&quot;font-size: 17px;&quot;&gt;&lt;font style=&quot;font-size: 17px; font-weight: normal;&quot;&gt;Питон пакет для развертывания моделей из Jupyter или Elyra Pipiline&lt;/font&gt;&lt;/h1&gt;&lt;p style=&quot;font-size: 17px;&quot;&gt;&lt;br&gt;&lt;/p&gt;" style="text;html=1;strokeColor=#82b366;fillColor=#d5e8d4;spacing=5;spacingTop=-20;whiteSpace=wrap;overflow=hidden;rounded=0;" parent="1" vertex="1">
          <mxGeometry x="5180" y="-1000" width="240" height="65" as="geometry" />
        </mxCell>
        <mxCell id="M9U-ORIrZUYbXmNIZB3N-338" value="Deploy со сбором метрик и передачей в графану ЦОД" style="text;html=1;strokeColor=#82b366;fillColor=#D5E8D4;align=center;verticalAlign=middle;whiteSpace=wrap;rounded=0;" parent="1" vertex="1">
          <mxGeometry x="2691.25" y="477.5" width="100" height="72.5" as="geometry" />
        </mxCell>
        <mxCell id="M9U-ORIrZUYbXmNIZB3N-342" value="" style="rounded=0;whiteSpace=wrap;html=1;fillColor=#D5E8D4;" parent="1" vertex="1">
          <mxGeometry x="980" y="-1176.87" width="120" height="60" as="geometry" />
        </mxCell>
        <mxCell id="M9U-ORIrZUYbXmNIZB3N-343" value="" style="rounded=0;whiteSpace=wrap;html=1;fillColor=#D5E8D4;" parent="1" vertex="1">
          <mxGeometry x="847.5" y="-1176.87" width="120" height="60" as="geometry" />
        </mxCell>
        <mxCell id="M9U-ORIrZUYbXmNIZB3N-344" value="" style="endArrow=block;html=1;rounded=0;strokeWidth=1;startArrow=none;startFill=0;endFill=1;" parent="1" source="M9U-ORIrZUYbXmNIZB3N-353" edge="1">
          <mxGeometry width="50" height="50" relative="1" as="geometry">
            <mxPoint x="350.00000000000045" y="-1271.87" as="sourcePoint" />
            <mxPoint x="1310.000066052391" y="-1269.4355240603782" as="targetPoint" />
          </mxGeometry>
        </mxCell>
        <mxCell id="M9U-ORIrZUYbXmNIZB3N-345" value="Публикация конкурса на развитие ИИ" style="text;html=1;strokeColor=none;fillColor=none;align=center;verticalAlign=middle;whiteSpace=wrap;rounded=0;" parent="1" vertex="1">
          <mxGeometry x="1050" y="-1240" width="125" height="30" as="geometry" />
        </mxCell>
        <mxCell id="M9U-ORIrZUYbXmNIZB3N-346" value="" style="curved=1;endArrow=classic;html=1;rounded=0;strokeWidth=1;exitX=0.354;exitY=0.991;exitDx=0;exitDy=0;exitPerimeter=0;" parent="1" edge="1">
          <mxGeometry width="50" height="50" relative="1" as="geometry">
            <mxPoint x="575" y="-1271.869999999999" as="sourcePoint" />
            <mxPoint x="523.7599999999948" y="-1171.5999999999985" as="targetPoint" />
            <Array as="points">
              <mxPoint x="574.76" y="-1211.6" />
            </Array>
          </mxGeometry>
        </mxCell>
        <mxCell id="M9U-ORIrZUYbXmNIZB3N-347" value="Подготовка технического задания" style="text;html=1;strokeColor=#82b366;fillColor=#d5e8d4;align=center;verticalAlign=middle;whiteSpace=wrap;rounded=0;" parent="1" vertex="1">
          <mxGeometry x="470" y="-1167.81" width="110" height="51.87" as="geometry" />
        </mxCell>
        <mxCell id="M9U-ORIrZUYbXmNIZB3N-348" value="Согласование ТЗ" style="text;html=1;strokeColor=none;fillColor=none;align=center;verticalAlign=middle;whiteSpace=wrap;rounded=0;" parent="1" vertex="1">
          <mxGeometry x="870" y="-1161.87" width="60" height="30" as="geometry" />
        </mxCell>
        <mxCell id="M9U-ORIrZUYbXmNIZB3N-349" value="" style="curved=1;endArrow=classic;html=1;rounded=0;strokeWidth=1;exitX=0.354;exitY=0.991;exitDx=0;exitDy=0;exitPerimeter=0;entryX=0.5;entryY=0;entryDx=0;entryDy=0;" parent="1" target="M9U-ORIrZUYbXmNIZB3N-342" edge="1">
          <mxGeometry width="50" height="50" relative="1" as="geometry">
            <mxPoint x="971.239999999998" y="-1272.1399999999994" as="sourcePoint" />
            <mxPoint x="1030" y="-1191.87" as="targetPoint" />
            <Array as="points">
              <mxPoint x="971" y="-1211.87" />
            </Array>
          </mxGeometry>
        </mxCell>
        <mxCell id="M9U-ORIrZUYbXmNIZB3N-350" value="Подготовка Критериев для закупки" style="text;html=1;strokeColor=none;fillColor=none;align=center;verticalAlign=middle;whiteSpace=wrap;rounded=0;" parent="1" vertex="1">
          <mxGeometry x="985" y="-1156.87" width="110" height="30" as="geometry" />
        </mxCell>
        <mxCell id="M9U-ORIrZUYbXmNIZB3N-351" value="" style="curved=1;endArrow=classic;html=1;rounded=0;strokeWidth=1;" parent="1" edge="1">
          <mxGeometry width="50" height="50" relative="1" as="geometry">
            <mxPoint x="970" y="-1271.869999999999" as="sourcePoint" />
            <mxPoint x="920" y="-1181.869999999999" as="targetPoint" />
            <Array as="points">
              <mxPoint x="960" y="-1211.87" />
            </Array>
          </mxGeometry>
        </mxCell>
        <mxCell id="M9U-ORIrZUYbXmNIZB3N-352" value="" style="curved=1;endArrow=classic;html=1;rounded=0;strokeWidth=1;exitX=1;exitY=1;exitDx=0;exitDy=0;" parent="1" source="M9U-ORIrZUYbXmNIZB3N-355" edge="1">
          <mxGeometry width="50" height="50" relative="1" as="geometry">
            <mxPoint x="1220" y="-1280" as="sourcePoint" />
            <mxPoint x="1270" y="-1171.869999999999" as="targetPoint" />
            <Array as="points">
              <mxPoint x="1240" y="-1211.6" />
            </Array>
          </mxGeometry>
        </mxCell>
        <mxCell id="M9U-ORIrZUYbXmNIZB3N-353" value="28.08.2023" style="ellipse;whiteSpace=wrap;html=1;aspect=fixed;fillColor=#d5e8d4;strokeColor=#82b366;" parent="1" vertex="1">
          <mxGeometry x="1280" y="-1309.37" width="65" height="65" as="geometry" />
        </mxCell>
        <mxCell id="M9U-ORIrZUYbXmNIZB3N-354" value="" style="endArrow=none;html=1;rounded=0;strokeWidth=1;startArrow=none;startFill=0;endFill=1;" parent="1" target="M9U-ORIrZUYbXmNIZB3N-353" edge="1">
          <mxGeometry width="50" height="50" relative="1" as="geometry">
            <mxPoint x="-280" y="-1270" as="sourcePoint" />
            <mxPoint x="1310.0000660523956" y="-1269.4355240603777" as="targetPoint" />
          </mxGeometry>
        </mxCell>
        <mxCell id="M9U-ORIrZUYbXmNIZB3N-355" value="01.08.2023" style="ellipse;whiteSpace=wrap;html=1;aspect=fixed;fillColor=#d5e8d4;strokeColor=#82b366;" parent="1" vertex="1">
          <mxGeometry x="1090" y="-1309.37" width="65" height="65" as="geometry" />
        </mxCell>
        <mxCell id="M9U-ORIrZUYbXmNIZB3N-359" value="Подготовка ТП" style="text;html=1;strokeColor=#82b366;fillColor=#d5e8d4;align=center;verticalAlign=middle;whiteSpace=wrap;rounded=0;" parent="1" vertex="1">
          <mxGeometry x="1225" y="-1171.87" width="100" height="30" as="geometry" />
        </mxCell>
        <mxCell id="M9U-ORIrZUYbXmNIZB3N-360" value="01.03.2023" style="text;html=1;strokeColor=#82b366;fillColor=#d5e8d4;align=center;verticalAlign=middle;whiteSpace=wrap;rounded=0;fontSize=9;" parent="1" vertex="1">
          <mxGeometry x="550" y="-1291.87" width="60" height="30" as="geometry" />
        </mxCell>
        <mxCell id="M9U-ORIrZUYbXmNIZB3N-361" value="28.02.22" style="ellipse;whiteSpace=wrap;html=1;aspect=fixed;fillColor=#d5e8d4;strokeColor=#82b366;" parent="1" vertex="1">
          <mxGeometry x="-760" y="-477.5" width="65" height="65" as="geometry" />
        </mxCell>
        <mxCell id="M9U-ORIrZUYbXmNIZB3N-362" value="" style="endArrow=none;html=1;rounded=0;exitX=1;exitY=0.5;exitDx=0;exitDy=0;" parent="1" source="M9U-ORIrZUYbXmNIZB3N-72" target="M9U-ORIrZUYbXmNIZB3N-361" edge="1">
          <mxGeometry width="50" height="50" relative="1" as="geometry">
            <mxPoint x="-1440" y="-445" as="sourcePoint" />
            <mxPoint x="-380" y="-440" as="targetPoint" />
          </mxGeometry>
        </mxCell>
        <mxCell id="M9U-ORIrZUYbXmNIZB3N-363" value="&lt;font color=&quot;#000000&quot;&gt;17.11.2022&lt;/font&gt;" style="ellipse;whiteSpace=wrap;html=1;aspect=fixed;fillColor=#D5E8D4;fontColor=#ffffff;strokeColor=#005700;" parent="1" vertex="1">
          <mxGeometry x="-1300" y="-475" width="65" height="65" as="geometry" />
        </mxCell>
        <mxCell id="M9U-ORIrZUYbXmNIZB3N-364" value="15.01.2023" style="ellipse;whiteSpace=wrap;html=1;aspect=fixed;fillColor=#D5E8D4;strokeColor=#82b366;" parent="1" vertex="1">
          <mxGeometry x="-915" y="-480" width="65" height="65" as="geometry" />
        </mxCell>
        <mxCell id="M9U-ORIrZUYbXmNIZB3N-365" style="edgeStyle=orthogonalEdgeStyle;rounded=0;orthogonalLoop=1;jettySize=auto;html=1;entryX=0;entryY=0.5;entryDx=0;entryDy=0;" parent="1" source="M9U-ORIrZUYbXmNIZB3N-366" target="M9U-ORIrZUYbXmNIZB3N-367" edge="1">
          <mxGeometry relative="1" as="geometry" />
        </mxCell>
        <mxCell id="M9U-ORIrZUYbXmNIZB3N-366" value="ЧТЗ" style="text;html=1;strokeColor=#82b366;fillColor=#d5e8d4;align=center;verticalAlign=middle;whiteSpace=wrap;rounded=0;" parent="1" vertex="1">
          <mxGeometry x="2118.13" y="430" width="120" height="47.5" as="geometry" />
        </mxCell>
        <mxCell id="M9U-ORIrZUYbXmNIZB3N-367" value="ПМИ" style="text;html=1;strokeColor=#82b366;fillColor=#d5e8d4;align=center;verticalAlign=middle;whiteSpace=wrap;rounded=0;" parent="1" vertex="1">
          <mxGeometry x="2270" y="430" width="120" height="47.5" as="geometry" />
        </mxCell>
        <mxCell id="M9U-ORIrZUYbXmNIZB3N-375" style="edgeStyle=orthogonalEdgeStyle;rounded=0;orthogonalLoop=1;jettySize=auto;html=1;entryX=0.5;entryY=0;entryDx=0;entryDy=0;" parent="1" source="M9U-ORIrZUYbXmNIZB3N-377" target="M9U-ORIrZUYbXmNIZB3N-151" edge="1">
          <mxGeometry relative="1" as="geometry" />
        </mxCell>
        <mxCell id="M9U-ORIrZUYbXmNIZB3N-376" style="edgeStyle=orthogonalEdgeStyle;rounded=0;orthogonalLoop=1;jettySize=auto;html=1;entryX=0.5;entryY=1;entryDx=0;entryDy=0;" parent="1" source="M9U-ORIrZUYbXmNIZB3N-377" target="M9U-ORIrZUYbXmNIZB3N-161" edge="1">
          <mxGeometry relative="1" as="geometry" />
        </mxCell>
        <mxCell id="M9U-ORIrZUYbXmNIZB3N-377" value="Контур DEV c кластером Rmq&amp;nbsp;" style="text;html=1;strokeColor=#82b366;fillColor=#D5E8D4;align=center;verticalAlign=middle;whiteSpace=wrap;rounded=0;" parent="1" vertex="1">
          <mxGeometry x="4843.75" y="-1256.24" width="100" height="30" as="geometry" />
        </mxCell>
        <mxCell id="vXsJCSpQS5DEUu_Gp0zB-29" style="edgeStyle=orthogonalEdgeStyle;rounded=0;orthogonalLoop=1;jettySize=auto;html=1;entryX=0.5;entryY=0;entryDx=0;entryDy=0;" parent="1" source="OkP9vtwVXzSXyu5hQiaO-20" target="vXsJCSpQS5DEUu_Gp0zB-28" edge="1">
          <mxGeometry relative="1" as="geometry" />
        </mxCell>
        <mxCell id="OkP9vtwVXzSXyu5hQiaO-20" value="&lt;font color=&quot;#000000&quot;&gt;Страница со списком очередей&lt;/font&gt;" style="rounded=0;whiteSpace=wrap;html=1;fillColor=#d5e8d4;strokeColor=#82b366;" parent="1" vertex="1">
          <mxGeometry x="8120" y="-1579.36" width="140" height="80" as="geometry" />
        </mxCell>
        <mxCell id="OkP9vtwVXzSXyu5hQiaO-21" value="Страница для ЭО для управления очередью заданий" style="rounded=0;whiteSpace=wrap;html=1;fillColor=#d5e8d4;strokeColor=#82b366;" parent="1" vertex="1">
          <mxGeometry x="8320" y="-1579.36" width="140" height="80" as="geometry" />
        </mxCell>
        <mxCell id="OkP9vtwVXzSXyu5hQiaO-22" value="Страница утилизации ресурсов (Дашборд)" style="rounded=0;whiteSpace=wrap;html=1;fillColor=#d5e8d4;strokeColor=#82b366;" parent="1" vertex="1">
          <mxGeometry x="8520" y="-1573.7299999999998" width="140" height="80" as="geometry" />
        </mxCell>
        <mxCell id="Teteri4uPYWezU2bDTrZ-1" style="edgeStyle=orthogonalEdgeStyle;rounded=0;orthogonalLoop=1;jettySize=auto;html=1;" parent="1" source="OkP9vtwVXzSXyu5hQiaO-24" target="M9U-ORIrZUYbXmNIZB3N-137" edge="1">
          <mxGeometry relative="1" as="geometry" />
        </mxCell>
        <mxCell id="OkP9vtwVXzSXyu5hQiaO-24" value="08.11.2023" style="ellipse;whiteSpace=wrap;html=1;aspect=fixed;fillColor=#d5e8d4;strokeColor=#82b366;" parent="1" vertex="1">
          <mxGeometry x="4865" y="-480" width="65" height="65" as="geometry" />
        </mxCell>
        <mxCell id="OkP9vtwVXzSXyu5hQiaO-26" value="" style="endArrow=none;html=1;rounded=0;startArrow=none;endFill=1;" parent="1" source="M9U-ORIrZUYbXmNIZB3N-312" target="OkP9vtwVXzSXyu5hQiaO-24" edge="1">
          <mxGeometry width="50" height="50" relative="1" as="geometry">
            <mxPoint x="4339.999999999968" y="-442.5" as="sourcePoint" />
            <mxPoint x="8590.000037545964" y="-452.450598575027" as="targetPoint" />
            <Array as="points" />
          </mxGeometry>
        </mxCell>
        <mxCell id="OkP9vtwVXzSXyu5hQiaO-27" value="" style="rounded=0;whiteSpace=wrap;html=1;strokeColor=#000000;fillColor=none;dashed=1;" parent="1" vertex="1">
          <mxGeometry x="4585.5" y="-1000" width="544.5" height="330" as="geometry" />
        </mxCell>
        <mxCell id="PMCdbGxNw5hRtJOYMnET-7" value="" style="rounded=0;whiteSpace=wrap;html=1;labelBackgroundColor=#FFFFFF;fontSize=14;" parent="1" vertex="1">
          <mxGeometry x="6440" y="-930.63" width="393.75" height="227.5" as="geometry" />
        </mxCell>
        <mxCell id="PMCdbGxNw5hRtJOYMnET-8" value="Обновление prod" style="text;html=1;strokeColor=none;fillColor=none;align=center;verticalAlign=middle;whiteSpace=wrap;rounded=0;labelBackgroundColor=#FFFFFF;fontSize=14;" parent="1" vertex="1">
          <mxGeometry x="6463.75" y="-927.5" width="120" height="30" as="geometry" />
        </mxCell>
        <mxCell id="PMCdbGxNw5hRtJOYMnET-24" value="Очередь заданий" style="rounded=0;whiteSpace=wrap;html=1;strokeColor=#82b366;fillColor=#d5e8d4;" parent="1" vertex="1">
          <mxGeometry x="6483.75" y="-892.5" width="120" height="60" as="geometry" />
        </mxCell>
        <mxCell id="PMCdbGxNw5hRtJOYMnET-27" value="Питон пакет для деплоя из Jupyter" style="rounded=0;whiteSpace=wrap;html=1;strokeColor=#82b366;fillColor=#d5e8d4;" parent="1" vertex="1">
          <mxGeometry x="6483.75" y="-811.25" width="120" height="73.75" as="geometry" />
        </mxCell>
        <mxCell id="PMCdbGxNw5hRtJOYMnET-28" value="&lt;font style=&quot;font-size: 18px;&quot;&gt;&lt;b&gt;1 отчетный период&lt;/b&gt;&lt;/font&gt;" style="text;html=1;strokeColor=none;fillColor=none;align=center;verticalAlign=middle;whiteSpace=wrap;rounded=0;" parent="1" vertex="1">
          <mxGeometry x="1720" y="-380" width="200" height="30" as="geometry" />
        </mxCell>
        <mxCell id="PMCdbGxNw5hRtJOYMnET-29" value="&lt;font size=&quot;1&quot; style=&quot;&quot;&gt;&lt;b style=&quot;font-size: 18px;&quot;&gt;2 отчетный период&lt;/b&gt;&lt;/font&gt;" style="text;html=1;strokeColor=none;fillColor=none;align=center;verticalAlign=middle;whiteSpace=wrap;rounded=0;fontSize=18;" parent="1" vertex="1">
          <mxGeometry x="4580" y="-1461.87" width="200" height="30" as="geometry" />
        </mxCell>
        <mxCell id="PMCdbGxNw5hRtJOYMnET-30" value="&lt;b&gt;3 отчетный период&lt;/b&gt;" style="text;html=1;strokeColor=none;fillColor=none;align=center;verticalAlign=middle;whiteSpace=wrap;rounded=0;fontSize=18;" parent="1" vertex="1">
          <mxGeometry x="7020" y="-1936.71" width="230" height="30" as="geometry" />
        </mxCell>
        <mxCell id="VGIG1Ez_Gvtun3f_1PGU-3" value="Образ Jupyter сервера с ODBC драйверами и питон пакетом для Vertica" style="text;html=1;strokeColor=#D5E8D4;fillColor=#D5E8D4;align=center;verticalAlign=middle;whiteSpace=wrap;rounded=0;" parent="1" vertex="1">
          <mxGeometry x="5505.63" y="-1011.87" width="284.37" height="116.87" as="geometry" />
        </mxCell>
        <mxCell id="VGIG1Ez_Gvtun3f_1PGU-4" value="&lt;h1 style=&quot;font-size: 17px;&quot;&gt;&lt;span style=&quot;font-weight: 400;&quot;&gt;Развертывание нескольких экземпляров модели&lt;/span&gt;&lt;/h1&gt;" style="text;html=1;strokeColor=#82b366;fillColor=#d5e8d4;spacing=5;spacingTop=-20;whiteSpace=wrap;overflow=hidden;rounded=0;" parent="1" vertex="1">
          <mxGeometry x="5180" y="-870" width="240" height="65" as="geometry" />
        </mxCell>
        <mxCell id="F-dhQiA6FIlhWH1fDI4N-1" value="Образ Jupyter с ODBC для Vertica" style="rounded=0;whiteSpace=wrap;html=1;strokeColor=#82b366;fillColor=#d5e8d4;" parent="1" vertex="1">
          <mxGeometry x="6678.75" y="-897.5" width="120" height="60" as="geometry" />
        </mxCell>
        <mxCell id="mb3PNmhDMOMHWBsHCnpX-2" value="Подготовка отчетной документации" style="text;html=1;strokeColor=#82b366;fillColor=#d5e8d4;align=center;verticalAlign=middle;whiteSpace=wrap;rounded=0;" parent="1" vertex="1">
          <mxGeometry x="5890" y="-1016.87" width="284.37" height="116.87" as="geometry" />
        </mxCell>
        <mxCell id="mb3PNmhDMOMHWBsHCnpX-4" value="" style="rounded=0;whiteSpace=wrap;html=1;" parent="1" vertex="1">
          <mxGeometry x="8790" y="-350" width="444.37" height="190" as="geometry" />
        </mxCell>
        <mxCell id="mb3PNmhDMOMHWBsHCnpX-5" value="Дополнительные работы" style="text;html=1;strokeColor=none;fillColor=none;align=center;verticalAlign=middle;whiteSpace=wrap;rounded=0;" parent="1" vertex="1">
          <mxGeometry x="8800" y="-340" width="146.25" height="30" as="geometry" />
        </mxCell>
        <mxCell id="mb3PNmhDMOMHWBsHCnpX-6" value="Страница с каталогом и образами Jupyter с возожностью выбора версии питона&amp;nbsp;" style="rounded=0;whiteSpace=wrap;html=1;fillColor=#d5e8d4;strokeColor=#82b366;" parent="1" vertex="1">
          <mxGeometry x="8819.999999999998" y="-296.38" width="170" height="115" as="geometry" />
        </mxCell>
        <mxCell id="mb3PNmhDMOMHWBsHCnpX-7" value="Дорабокта менеджера подключений:&lt;br&gt;- логирование в пинг сервисе&lt;br&gt;- возможность добавлять название подключения" style="rounded=0;whiteSpace=wrap;html=1;fillColor=#d5e8d4;strokeColor=#82b366;" parent="1" vertex="1">
          <mxGeometry x="9030" y="-295" width="161.25" height="115" as="geometry" />
        </mxCell>
        <mxCell id="meoD8murXi21GEV6i-uQ-1" value="ПМИ/тестирование" style="text;html=1;strokeColor=#82b366;fillColor=#d5e8d4;align=center;verticalAlign=middle;whiteSpace=wrap;rounded=0;" parent="1" vertex="1">
          <mxGeometry x="5505.63" y="-820" width="284.37" height="116.87" as="geometry" />
        </mxCell>
        <mxCell id="vXsJCSpQS5DEUu_Gp0zB-47" style="edgeStyle=orthogonalEdgeStyle;rounded=0;orthogonalLoop=1;jettySize=auto;html=1;fontColor=#000000;" parent="1" source="Teteri4uPYWezU2bDTrZ-5" target="vXsJCSpQS5DEUu_Gp0zB-46" edge="1">
          <mxGeometry relative="1" as="geometry" />
        </mxCell>
        <mxCell id="meoD8murXi21GEV6i-uQ-11" value="" style="endArrow=none;html=1;rounded=0;startArrow=none;endFill=1;" parent="1" source="OkP9vtwVXzSXyu5hQiaO-24" edge="1">
          <mxGeometry width="50" height="50" relative="1" as="geometry">
            <mxPoint x="4929.999947773276" y="-447.5582645173422" as="sourcePoint" />
            <mxPoint x="6750" y="-452" as="targetPoint" />
            <Array as="points" />
          </mxGeometry>
        </mxCell>
        <mxCell id="vXsJCSpQS5DEUu_Gp0zB-59" style="edgeStyle=orthogonalEdgeStyle;rounded=0;orthogonalLoop=1;jettySize=auto;html=1;entryX=0.5;entryY=1;entryDx=0;entryDy=0;fontColor=#000000;" parent="1" source="PMCdbGxNw5hRtJOYMnET-1" target="PMCdbGxNw5hRtJOYMnET-7" edge="1">
          <mxGeometry relative="1" as="geometry" />
        </mxCell>
        <mxCell id="PMCdbGxNw5hRtJOYMnET-1" value="10.11.2023" style="ellipse;whiteSpace=wrap;html=1;aspect=fixed;fillColor=#d5e8d4;strokeColor=#82b366;" parent="1" vertex="1">
          <mxGeometry x="6530" y="-485" width="65" height="65" as="geometry" />
        </mxCell>
        <mxCell id="KjvS1aZP4Ja0JNulYm3a-3" style="edgeStyle=orthogonalEdgeStyle;rounded=0;orthogonalLoop=1;jettySize=auto;html=1;exitX=0.5;exitY=1;exitDx=0;exitDy=0;fontSize=14;" parent="1" edge="1">
          <mxGeometry relative="1" as="geometry">
            <mxPoint x="9072.18" y="-947.5" as="sourcePoint" />
            <mxPoint x="9072.18" y="-947.5" as="targetPoint" />
          </mxGeometry>
        </mxCell>
        <mxCell id="vXsJCSpQS5DEUu_Gp0zB-2" value="Актуализация описания" style="rounded=0;whiteSpace=wrap;html=1;strokeColor=#82b366;fillColor=#d5e8d4;" parent="1" vertex="1">
          <mxGeometry x="7190" y="-1754.36" width="110" height="60" as="geometry" />
        </mxCell>
        <mxCell id="vXsJCSpQS5DEUu_Gp0zB-8" style="edgeStyle=orthogonalEdgeStyle;rounded=0;orthogonalLoop=1;jettySize=auto;html=1;" parent="1" source="vXsJCSpQS5DEUu_Gp0zB-7" edge="1">
          <mxGeometry relative="1" as="geometry">
            <mxPoint x="7610" y="-1539.36" as="targetPoint" />
          </mxGeometry>
        </mxCell>
        <mxCell id="vXsJCSpQS5DEUu_Gp0zB-7" value="Плагин Аирфлоу для отправки статуса пайлайна, операторов" style="rounded=0;whiteSpace=wrap;html=1;strokeColor=#82b366;fillColor=#d5e8d4;" parent="1" vertex="1">
          <mxGeometry x="7440" y="-1569.36" width="120" height="60" as="geometry" />
        </mxCell>
        <mxCell id="vXsJCSpQS5DEUu_Gp0zB-11" style="edgeStyle=orthogonalEdgeStyle;rounded=0;orthogonalLoop=1;jettySize=auto;html=1;entryX=0;entryY=0.5;entryDx=0;entryDy=0;" parent="1" source="vXsJCSpQS5DEUu_Gp0zB-9" target="vXsJCSpQS5DEUu_Gp0zB-10" edge="1">
          <mxGeometry relative="1" as="geometry" />
        </mxCell>
        <mxCell id="vXsJCSpQS5DEUu_Gp0zB-9" value="Сервис регистрации заданий" style="rounded=0;whiteSpace=wrap;html=1;strokeColor=#82b366;fillColor=#d5e8d4;" parent="1" vertex="1">
          <mxGeometry x="7610" y="-1569.3600000000001" width="120" height="60" as="geometry" />
        </mxCell>
        <mxCell id="vXsJCSpQS5DEUu_Gp0zB-13" style="edgeStyle=orthogonalEdgeStyle;rounded=0;orthogonalLoop=1;jettySize=auto;html=1;entryX=0.5;entryY=0;entryDx=0;entryDy=0;" parent="1" source="vXsJCSpQS5DEUu_Gp0zB-10" target="vXsJCSpQS5DEUu_Gp0zB-12" edge="1">
          <mxGeometry relative="1" as="geometry" />
        </mxCell>
        <mxCell id="buD4txa1ipSZM74Kj4TD-23" style="edgeStyle=orthogonalEdgeStyle;rounded=0;orthogonalLoop=1;jettySize=auto;html=1;entryX=0;entryY=0.5;entryDx=0;entryDy=0;" parent="1" source="vXsJCSpQS5DEUu_Gp0zB-10" target="vXsJCSpQS5DEUu_Gp0zB-26" edge="1">
          <mxGeometry relative="1" as="geometry" />
        </mxCell>
        <mxCell id="vXsJCSpQS5DEUu_Gp0zB-10" value="Менеджер очередей" style="rounded=0;whiteSpace=wrap;html=1;strokeColor=#82b366;fillColor=#d5e8d4;" parent="1" vertex="1">
          <mxGeometry x="7770" y="-1569.3600000000001" width="120" height="60" as="geometry" />
        </mxCell>
        <mxCell id="vXsJCSpQS5DEUu_Gp0zB-15" style="edgeStyle=orthogonalEdgeStyle;rounded=0;orthogonalLoop=1;jettySize=auto;html=1;entryX=1;entryY=0.5;entryDx=0;entryDy=0;" parent="1" source="vXsJCSpQS5DEUu_Gp0zB-12" target="vXsJCSpQS5DEUu_Gp0zB-14" edge="1">
          <mxGeometry relative="1" as="geometry" />
        </mxCell>
        <mxCell id="vXsJCSpQS5DEUu_Gp0zB-12" value="Менеджер ресурсов" style="rounded=0;whiteSpace=wrap;html=1;strokeColor=#82b366;fillColor=#d5e8d4;" parent="1" vertex="1">
          <mxGeometry x="7770" y="-1464.3600000000001" width="120" height="60" as="geometry" />
        </mxCell>
        <mxCell id="vXsJCSpQS5DEUu_Gp0zB-17" style="edgeStyle=orthogonalEdgeStyle;rounded=0;orthogonalLoop=1;jettySize=auto;html=1;entryX=1;entryY=0.5;entryDx=0;entryDy=0;" parent="1" source="vXsJCSpQS5DEUu_Gp0zB-14" target="vXsJCSpQS5DEUu_Gp0zB-16" edge="1">
          <mxGeometry relative="1" as="geometry" />
        </mxCell>
        <mxCell id="vXsJCSpQS5DEUu_Gp0zB-14" value="Сервис запуска заданий (запускатель, перекладыватель дагов в ветках гит)" style="rounded=0;whiteSpace=wrap;html=1;strokeColor=#82b366;fillColor=#d5e8d4;" parent="1" vertex="1">
          <mxGeometry x="7610" y="-1464.36" width="120" height="84.36" as="geometry" />
        </mxCell>
        <mxCell id="vXsJCSpQS5DEUu_Gp0zB-19" style="edgeStyle=orthogonalEdgeStyle;rounded=0;orthogonalLoop=1;jettySize=auto;html=1;entryX=0.5;entryY=0;entryDx=0;entryDy=0;" parent="1" source="vXsJCSpQS5DEUu_Gp0zB-16" target="vXsJCSpQS5DEUu_Gp0zB-18" edge="1">
          <mxGeometry relative="1" as="geometry" />
        </mxCell>
        <mxCell id="vXsJCSpQS5DEUu_Gp0zB-16" value="Сервис удаления брони задания" style="rounded=0;whiteSpace=wrap;html=1;strokeColor=#82b366;fillColor=#d5e8d4;" parent="1" vertex="1">
          <mxGeometry x="7440" y="-1464.36" width="120" height="60" as="geometry" />
        </mxCell>
        <mxCell id="vXsJCSpQS5DEUu_Gp0zB-25" style="edgeStyle=orthogonalEdgeStyle;rounded=0;orthogonalLoop=1;jettySize=auto;html=1;entryX=0;entryY=0.5;entryDx=0;entryDy=0;" parent="1" source="vXsJCSpQS5DEUu_Gp0zB-18" target="vXsJCSpQS5DEUu_Gp0zB-24" edge="1">
          <mxGeometry relative="1" as="geometry" />
        </mxCell>
        <mxCell id="vXsJCSpQS5DEUu_Gp0zB-18" value="Сервис удаления брони задания" style="rounded=0;whiteSpace=wrap;html=1;strokeColor=#82b366;fillColor=#d5e8d4;" parent="1" vertex="1">
          <mxGeometry x="7440" y="-1362.49" width="120" height="60" as="geometry" />
        </mxCell>
        <mxCell id="vXsJCSpQS5DEUu_Gp0zB-20" value="Реализация сообщений и обмена сообщениями через Rabbit" style="rounded=0;whiteSpace=wrap;html=1;fillColor=#d5e8d4;strokeColor=#82b366;" parent="1" vertex="1">
          <mxGeometry x="7620" y="-1672.48" width="130" height="60" as="geometry" />
        </mxCell>
        <mxCell id="vXsJCSpQS5DEUu_Gp0zB-22" value="Актуализация таблиц справочников со статусами заданий" style="rounded=0;whiteSpace=wrap;html=1;fillColor=#d5e8d4;strokeColor=#82b366;" parent="1" vertex="1">
          <mxGeometry x="7190" y="-1578.7299999999998" width="110" height="60" as="geometry" />
        </mxCell>
        <mxCell id="vXsJCSpQS5DEUu_Gp0zB-24" value="Сервис подготовки данных для пользовательского интерфейса" style="rounded=0;whiteSpace=wrap;html=1;strokeColor=#82b366;fillColor=#d5e8d4;" parent="1" vertex="1">
          <mxGeometry x="7620" y="-1362.49" width="120" height="60" as="geometry" />
        </mxCell>
        <mxCell id="vXsJCSpQS5DEUu_Gp0zB-26" value="Доработка мегеджера очередей" style="rounded=0;whiteSpace=wrap;html=1;strokeColor=#82b366;fillColor=#d5e8d4;" parent="1" vertex="1">
          <mxGeometry x="7890" y="-1700" width="130" height="77.49" as="geometry" />
        </mxCell>
        <mxCell id="vXsJCSpQS5DEUu_Gp0zB-28" value="Отображение статусов задач&amp;nbsp;" style="rounded=0;whiteSpace=wrap;html=1;strokeColor=#82b366;fillColor=#d5e8d4;" parent="1" vertex="1">
          <mxGeometry x="8120" y="-1390.3" width="140" height="61.87" as="geometry" />
        </mxCell>
        <mxCell id="vXsJCSpQS5DEUu_Gp0zB-35" style="edgeStyle=orthogonalEdgeStyle;rounded=0;orthogonalLoop=1;jettySize=auto;html=1;entryX=0.5;entryY=0;entryDx=0;entryDy=0;fontColor=#000000;" parent="1" source="vXsJCSpQS5DEUu_Gp0zB-32" target="vXsJCSpQS5DEUu_Gp0zB-34" edge="1">
          <mxGeometry relative="1" as="geometry" />
        </mxCell>
        <mxCell id="vXsJCSpQS5DEUu_Gp0zB-32" value="Тестирование очередей ресурсов" style="rounded=0;whiteSpace=wrap;html=1;strokeColor=#82b366;fillColor=#d5e8d4;" parent="1" vertex="1">
          <mxGeometry x="7010" y="-1016.25" width="120" height="60" as="geometry" />
        </mxCell>
        <mxCell id="buD4txa1ipSZM74Kj4TD-18" style="edgeStyle=orthogonalEdgeStyle;rounded=0;orthogonalLoop=1;jettySize=auto;html=1;" parent="1" source="vXsJCSpQS5DEUu_Gp0zB-34" target="vXsJCSpQS5DEUu_Gp0zB-107" edge="1">
          <mxGeometry relative="1" as="geometry" />
        </mxCell>
        <mxCell id="vXsJCSpQS5DEUu_Gp0zB-34" value="Исправления, доработки" style="rounded=0;whiteSpace=wrap;html=1;strokeColor=#82b366;fillColor=#d5e8d4;" parent="1" vertex="1">
          <mxGeometry x="7010" y="-918.75" width="120" height="60" as="geometry" />
        </mxCell>
        <mxCell id="vXsJCSpQS5DEUu_Gp0zB-39" style="edgeStyle=orthogonalEdgeStyle;rounded=0;orthogonalLoop=1;jettySize=auto;html=1;entryX=0;entryY=0.5;entryDx=0;entryDy=0;fontColor=#000000;" parent="1" source="vXsJCSpQS5DEUu_Gp0zB-37" target="vXsJCSpQS5DEUu_Gp0zB-38" edge="1">
          <mxGeometry relative="1" as="geometry" />
        </mxCell>
        <mxCell id="vXsJCSpQS5DEUu_Gp0zB-37" value="Написание ПМИ" style="rounded=0;whiteSpace=wrap;html=1;strokeColor=#82b366;fillColor=#d5e8d4;" parent="1" vertex="1">
          <mxGeometry x="7460" y="-760" width="120" height="60" as="geometry" />
        </mxCell>
        <mxCell id="vXsJCSpQS5DEUu_Gp0zB-38" value="Репетиция ПМИ" style="rounded=0;whiteSpace=wrap;html=1;strokeColor=#82b366;fillColor=#d5e8d4;" parent="1" vertex="1">
          <mxGeometry x="7710" y="-760" width="120" height="60" as="geometry" />
        </mxCell>
        <mxCell id="vXsJCSpQS5DEUu_Gp0zB-41" style="edgeStyle=orthogonalEdgeStyle;rounded=0;orthogonalLoop=1;jettySize=auto;html=1;fontColor=#000000;" parent="1" source="vXsJCSpQS5DEUu_Gp0zB-40" edge="1">
          <mxGeometry relative="1" as="geometry">
            <mxPoint x="7250" y="-730" as="targetPoint" />
          </mxGeometry>
        </mxCell>
        <mxCell id="vXsJCSpQS5DEUu_Gp0zB-40" value="Подготовка расчёта стоимости работ" style="rounded=0;whiteSpace=wrap;html=1;strokeColor=#82b366;fillColor=#d5e8d4;" parent="1" vertex="1">
          <mxGeometry x="7015" y="-760" width="120" height="60" as="geometry" />
        </mxCell>
        <mxCell id="vXsJCSpQS5DEUu_Gp0zB-43" style="edgeStyle=orthogonalEdgeStyle;rounded=0;orthogonalLoop=1;jettySize=auto;html=1;entryX=0;entryY=0.5;entryDx=0;entryDy=0;fontColor=#000000;" parent="1" source="vXsJCSpQS5DEUu_Gp0zB-42" target="vXsJCSpQS5DEUu_Gp0zB-37" edge="1">
          <mxGeometry relative="1" as="geometry" />
        </mxCell>
        <mxCell id="vXsJCSpQS5DEUu_Gp0zB-42" value="Согласование Заявки, официальное направление" style="rounded=0;whiteSpace=wrap;html=1;strokeColor=#82b366;fillColor=#d5e8d4;" parent="1" vertex="1">
          <mxGeometry x="7250" y="-760" width="120" height="60" as="geometry" />
        </mxCell>
        <mxCell id="vXsJCSpQS5DEUu_Gp0zB-44" value="Доработка&amp;nbsp; UI Elyra для постановки заданий в очередь&amp;nbsp;" style="rounded=0;whiteSpace=wrap;html=1;strokeColor=#82b366;fillColor=#d5e8d4;" parent="1" vertex="1">
          <mxGeometry x="8320" y="-1389.3600000000001" width="140" height="60" as="geometry" />
        </mxCell>
        <mxCell id="vXsJCSpQS5DEUu_Gp0zB-49" value="" style="endArrow=none;html=1;rounded=0;startArrow=none;endFill=1;" parent="1" edge="1">
          <mxGeometry width="50" height="50" relative="1" as="geometry">
            <mxPoint x="6744.999982975372" y="-452.5332650798109" as="sourcePoint" />
            <mxPoint x="9920" y="-457" as="targetPoint" />
            <Array as="points" />
          </mxGeometry>
        </mxCell>
        <mxCell id="Teteri4uPYWezU2bDTrZ-5" value="29.02.2024" style="ellipse;whiteSpace=wrap;html=1;aspect=fixed;fillColor=#d5e8d4;strokeColor=#82b366;" parent="1" vertex="1">
          <mxGeometry x="7270" y="-490" width="65" height="65" as="geometry" />
        </mxCell>
        <mxCell id="vXsJCSpQS5DEUu_Gp0zB-67" style="edgeStyle=orthogonalEdgeStyle;rounded=0;orthogonalLoop=1;jettySize=auto;html=1;entryX=0;entryY=0.5;entryDx=0;entryDy=0;fontColor=#000000;" parent="1" source="vXsJCSpQS5DEUu_Gp0zB-63" target="vXsJCSpQS5DEUu_Gp0zB-64" edge="1">
          <mxGeometry relative="1" as="geometry" />
        </mxCell>
        <mxCell id="vXsJCSpQS5DEUu_Gp0zB-63" value="Подготовка НМЦК, согласование на 24-25 год" style="rounded=0;whiteSpace=wrap;html=1;strokeColor=#82b366;fillColor=#d5e8d4;" parent="1" vertex="1">
          <mxGeometry x="11390" y="-1298.1800000000005" width="120" height="60" as="geometry" />
        </mxCell>
        <mxCell id="GtHpEKGIhtHiV-xiiAjq-2" style="edgeStyle=orthogonalEdgeStyle;rounded=0;orthogonalLoop=1;jettySize=auto;html=1;entryX=0;entryY=0.5;entryDx=0;entryDy=0;" parent="1" source="vXsJCSpQS5DEUu_Gp0zB-64" target="vXsJCSpQS5DEUu_Gp0zB-77" edge="1">
          <mxGeometry relative="1" as="geometry" />
        </mxCell>
        <mxCell id="vXsJCSpQS5DEUu_Gp0zB-64" value="Подготовка технического задания" style="rounded=0;whiteSpace=wrap;html=1;strokeColor=#82b366;fillColor=#d5e8d4;" parent="1" vertex="1">
          <mxGeometry x="11560" y="-1298.1800000000005" width="120" height="60" as="geometry" />
        </mxCell>
        <mxCell id="vXsJCSpQS5DEUu_Gp0zB-76" style="edgeStyle=orthogonalEdgeStyle;rounded=0;orthogonalLoop=1;jettySize=auto;html=1;fontColor=#000000;" parent="1" target="vXsJCSpQS5DEUu_Gp0zB-70" edge="1">
          <mxGeometry relative="1" as="geometry">
            <mxPoint x="11870" y="-1268.18" as="sourcePoint" />
          </mxGeometry>
        </mxCell>
        <mxCell id="vXsJCSpQS5DEUu_Gp0zB-70" value="Конкуресные процедуры, заключеие контракта&amp;nbsp;" style="rounded=0;whiteSpace=wrap;html=1;strokeColor=#6c8ebf;fillColor=#dae8fc;" parent="1" vertex="1">
          <mxGeometry x="11947" y="-1298.1800000000005" width="120" height="60" as="geometry" />
        </mxCell>
        <mxCell id="vXsJCSpQS5DEUu_Gp0zB-77" value="Согласование ТЗ на стороне Заказчика" style="rounded=0;whiteSpace=wrap;html=1;strokeColor=#82b366;fillColor=#d5e8d4;" parent="1" vertex="1">
          <mxGeometry x="11755" y="-1298.1800000000005" width="120" height="60" as="geometry" />
        </mxCell>
        <mxCell id="vXsJCSpQS5DEUu_Gp0zB-80" value="ArgoCD для развертывания в кластере кубернетес" style="rounded=0;whiteSpace=wrap;html=1;fontSize=17;" parent="1" vertex="1">
          <mxGeometry x="16346" y="-379.36" width="410" height="84.36" as="geometry" />
        </mxCell>
        <mxCell id="vXsJCSpQS5DEUu_Gp0zB-82" style="edgeStyle=orthogonalEdgeStyle;rounded=0;orthogonalLoop=1;jettySize=auto;html=1;entryX=0.5;entryY=0;entryDx=0;entryDy=0;fontColor=#000000;" parent="1" source="vXsJCSpQS5DEUu_Gp0zB-81" target="mb3PNmhDMOMHWBsHCnpX-4" edge="1">
          <mxGeometry relative="1" as="geometry" />
        </mxCell>
        <mxCell id="vXsJCSpQS5DEUu_Gp0zB-81" value="30.03.2024" style="ellipse;whiteSpace=wrap;html=1;aspect=fixed;fillColor=#d5e8d4;strokeColor=#82b366;" parent="1" vertex="1">
          <mxGeometry x="8979.69" y="-490" width="65" height="65" as="geometry" />
        </mxCell>
        <mxCell id="buD4txa1ipSZM74Kj4TD-20" style="edgeStyle=orthogonalEdgeStyle;rounded=0;orthogonalLoop=1;jettySize=auto;html=1;" parent="1" source="vXsJCSpQS5DEUu_Gp0zB-107" target="buD4txa1ipSZM74Kj4TD-19" edge="1">
          <mxGeometry relative="1" as="geometry" />
        </mxCell>
        <mxCell id="vXsJCSpQS5DEUu_Gp0zB-107" value="Обновление stage" style="rounded=0;whiteSpace=wrap;html=1;strokeColor=#82b366;fontSize=15;fillColor=#d5e8d4;" parent="1" vertex="1">
          <mxGeometry x="7242.5" y="-918.75" width="120" height="60" as="geometry" />
        </mxCell>
        <mxCell id="buD4txa1ipSZM74Kj4TD-22" style="edgeStyle=orthogonalEdgeStyle;rounded=0;orthogonalLoop=1;jettySize=auto;html=1;" parent="1" source="buD4txa1ipSZM74Kj4TD-19" target="buD4txa1ipSZM74Kj4TD-21" edge="1">
          <mxGeometry relative="1" as="geometry" />
        </mxCell>
        <mxCell id="buD4txa1ipSZM74Kj4TD-19" value="Тестирование" style="rounded=0;whiteSpace=wrap;html=1;strokeColor=#82b366;fontSize=15;fillColor=#d5e8d4;" parent="1" vertex="1">
          <mxGeometry x="7452.5" y="-918.75" width="120" height="60" as="geometry" />
        </mxCell>
        <mxCell id="buD4txa1ipSZM74Kj4TD-21" value="Обновление prod" style="rounded=0;whiteSpace=wrap;html=1;strokeColor=#82b366;fontSize=15;fillColor=#d5e8d4;" parent="1" vertex="1">
          <mxGeometry x="7670" y="-918.75" width="120" height="60" as="geometry" />
        </mxCell>
        <mxCell id="DAu9tTL13VZZJl3VWdJ8-4" value="&lt;b&gt;&lt;font style=&quot;font-size: 17px;&quot;&gt;Техническое задание 24-25 год 1 ЭТАП&lt;/font&gt;&lt;/b&gt;" style="text;html=1;align=center;verticalAlign=middle;whiteSpace=wrap;rounded=0;" parent="1" vertex="1">
          <mxGeometry x="12379" y="-2910" width="525" height="30" as="geometry" />
        </mxCell>
        <mxCell id="DAu9tTL13VZZJl3VWdJ8-5" value="Разметка данных" style="rounded=0;whiteSpace=wrap;html=1;fontSize=17;align=left;dashed=1;" parent="1" vertex="1">
          <mxGeometry x="12478" y="-2853.0000000000005" width="650" height="438.73" as="geometry" />
        </mxCell>
        <mxCell id="DAu9tTL13VZZJl3VWdJ8-7" value="" style="rounded=0;whiteSpace=wrap;html=1;fontSize=17;" parent="1" vertex="1">
          <mxGeometry x="17257" y="-1046.88" width="676.5" height="763.76" as="geometry" />
        </mxCell>
        <mxCell id="Qe2ctfDx3bP94FrgvdR_-17" style="edgeStyle=orthogonalEdgeStyle;rounded=0;orthogonalLoop=1;jettySize=auto;html=1;" parent="1" source="DAu9tTL13VZZJl3VWdJ8-8" target="Qe2ctfDx3bP94FrgvdR_-16" edge="1">
          <mxGeometry relative="1" as="geometry" />
        </mxCell>
        <mxCell id="DAu9tTL13VZZJl3VWdJ8-8" value="Статический анализатор кода" style="rounded=0;whiteSpace=wrap;html=1;fontSize=17;fillColor=#d5e8d4;strokeColor=#82b366;" parent="1" vertex="1">
          <mxGeometry x="12496" y="-2340" width="176.5" height="100" as="geometry" />
        </mxCell>
        <mxCell id="DAu9tTL13VZZJl3VWdJ8-9" value="" style="rounded=0;whiteSpace=wrap;html=1;fontSize=17;dashed=1;" parent="1" vertex="1">
          <mxGeometry x="13168.37" y="-2851" width="722" height="441" as="geometry" />
        </mxCell>
        <mxCell id="DAu9tTL13VZZJl3VWdJ8-11" value="Непрерывное развертывание моделей Mlflow" style="rounded=0;whiteSpace=wrap;html=1;fontSize=17;" parent="1" vertex="1">
          <mxGeometry x="16793.5" y="-384.44" width="398" height="94.52" as="geometry" />
        </mxCell>
        <mxCell id="DAu9tTL13VZZJl3VWdJ8-12" value="Страница управления подами с GPU, остановка подов с GPU по рекомендациям на основе утилизаци" style="rounded=0;whiteSpace=wrap;html=1;fontSize=17;fillColor=#d5e8d4;strokeColor=#82b366;" parent="1" vertex="1">
          <mxGeometry x="16795" y="-805" width="395" height="181.18" as="geometry" />
        </mxCell>
        <mxCell id="DAu9tTL13VZZJl3VWdJ8-13" value="Выбор количества воркеров в разворачиваемой модели" style="rounded=0;whiteSpace=wrap;html=1;fontSize=17;fillColor=#d5e8d4;strokeColor=#82b366;" parent="1" vertex="1">
          <mxGeometry x="16788" y="-1052.4299999999998" width="393" height="193.68" as="geometry" />
        </mxCell>
        <mxCell id="DAu9tTL13VZZJl3VWdJ8-14" value="Управление глобальной очередью заданий за ресурсами для администраторов системы" style="rounded=0;whiteSpace=wrap;html=1;fontSize=17;fillColor=#d5e8d4;strokeColor=#82b366;" parent="1" vertex="1">
          <mxGeometry x="16323" y="-584.36" width="421" height="164.36" as="geometry" />
        </mxCell>
        <mxCell id="DAu9tTL13VZZJl3VWdJ8-15" value="Хранение конфигурационного файла с ключами доступов к компонентам" style="rounded=0;whiteSpace=wrap;html=1;fontSize=17;" parent="1" vertex="1">
          <mxGeometry x="16795" y="-572" width="395" height="170" as="geometry" />
        </mxCell>
        <mxCell id="DAu9tTL13VZZJl3VWdJ8-19" value="" style="endArrow=none;html=1;rounded=0;startArrow=none;endFill=1;" parent="1" edge="1">
          <mxGeometry width="50" height="50" relative="1" as="geometry">
            <mxPoint x="10710.998831213468" y="-547.7756261706618" as="sourcePoint" />
            <mxPoint x="10710.998831213468" y="-547.7756261706618" as="targetPoint" />
            <Array as="points" />
          </mxGeometry>
        </mxCell>
        <mxCell id="y0rBNbmr6j8nYNEE8hnT-6" value="Сервис развертывания моделей при обращении по API, в том числе во внешних кластерах" style="rounded=0;whiteSpace=wrap;html=1;fontSize=16;" parent="1" vertex="1">
          <mxGeometry x="12376.250000000002" y="833.1400000000003" width="210" height="132.5" as="geometry" />
        </mxCell>
        <mxCell id="y0rBNbmr6j8nYNEE8hnT-7" value="Сервис опредления утилизации гпу подов не использующих гпу, в том числе во внешних кластерах" style="rounded=0;whiteSpace=wrap;html=1;fontSize=16;" parent="1" vertex="1">
          <mxGeometry x="12617.750000000002" y="1021.8900000000001" width="170" height="125" as="geometry" />
        </mxCell>
        <mxCell id="y0rBNbmr6j8nYNEE8hnT-8" value="Сервис остановки модели, в зависимости от расписания и выполнения заданий на обработку" style="rounded=0;whiteSpace=wrap;html=1;fontSize=16;" parent="1" vertex="1">
          <mxGeometry x="12375.500000000002" y="988.1400000000003" width="210.75" height="272.5" as="geometry" />
        </mxCell>
        <mxCell id="y0rBNbmr6j8nYNEE8hnT-9" value="Интерфейс управления ресурсами во всех кластерах, интерфейс развертывания моделей обученных вне платформы ИИ во всех кластерах" style="rounded=0;whiteSpace=wrap;html=1;fontSize=16;" parent="1" vertex="1">
          <mxGeometry x="12617.750000000002" y="828.1400000000003" width="360" height="175" as="geometry" />
        </mxCell>
        <mxCell id="y0rBNbmr6j8nYNEE8hnT-10" value="Управление развертыванием во всех кластерах&amp;nbsp;" style="rounded=0;whiteSpace=wrap;html=1;fontSize=16;" parent="1" vertex="1">
          <mxGeometry x="12808.250000000002" y="1024.39" width="170" height="120" as="geometry" />
        </mxCell>
        <mxCell id="y0rBNbmr6j8nYNEE8hnT-13" value="&lt;font style=&quot;font-size: 20px;&quot;&gt;&lt;b&gt;Управление ресурсами&lt;/b&gt;&lt;/font&gt;" style="text;html=1;align=center;verticalAlign=middle;whiteSpace=wrap;rounded=0;" parent="1" vertex="1">
          <mxGeometry x="12375.500000000002" y="780.6400000000003" width="260" height="30" as="geometry" />
        </mxCell>
        <mxCell id="GCTr9QXSKKTFIzKLw45c-1" value="" style="rounded=0;whiteSpace=wrap;html=1;dashed=1;" parent="1" vertex="1">
          <mxGeometry x="10707" y="637.52" width="800" height="533.48" as="geometry" />
        </mxCell>
        <mxCell id="GCTr9QXSKKTFIzKLw45c-2" value="&lt;font style=&quot;font-size: 20px;&quot;&gt;&lt;b&gt;Каталог моделей&lt;/b&gt;&lt;/font&gt;" style="text;html=1;align=center;verticalAlign=middle;whiteSpace=wrap;rounded=0;" parent="1" vertex="1">
          <mxGeometry x="10765" y="643.0000000000003" width="260" height="30" as="geometry" />
        </mxCell>
        <mxCell id="GCTr9QXSKKTFIzKLw45c-3" value="&lt;font style=&quot;font-size: 15px;&quot;&gt;Размещение open source архитектур моделей из внешних источников с использованием SAST&lt;/font&gt;" style="rounded=0;whiteSpace=wrap;html=1;" parent="1" vertex="1">
          <mxGeometry x="11084.5" y="682.5200000000003" width="320" height="82.5" as="geometry" />
        </mxCell>
        <mxCell id="GCTr9QXSKKTFIzKLw45c-4" value="&lt;font style=&quot;font-size: 15px;&quot;&gt;Внедрение функций размещения, разрабатываемых моделей в каталог моделей.&lt;/font&gt;" style="rounded=0;whiteSpace=wrap;html=1;" parent="1" vertex="1">
          <mxGeometry x="10723" y="682.5199999999999" width="313.25" height="87.5" as="geometry" />
        </mxCell>
        <mxCell id="GCTr9QXSKKTFIzKLw45c-6" value="&lt;font style=&quot;font-size: 17px;&quot;&gt;Фукнции педоставления доступа к развернутым моделям&lt;/font&gt;" style="rounded=0;whiteSpace=wrap;html=1;" parent="1" vertex="1">
          <mxGeometry x="10723" y="792.5200000000003" width="310" height="90" as="geometry" />
        </mxCell>
        <mxCell id="GCTr9QXSKKTFIzKLw45c-7" value="&lt;font style=&quot;font-size: 17px;&quot;&gt;Реализация правил доступ к каталогу моделей, выдача разрешений на использование модели (ролевая модель доступа)&lt;/font&gt;" style="rounded=0;whiteSpace=wrap;html=1;" parent="1" vertex="1">
          <mxGeometry x="10723" y="906.2700000000002" width="313.25" height="105" as="geometry" />
        </mxCell>
        <mxCell id="GCTr9QXSKKTFIzKLw45c-8" value="&lt;font style=&quot;font-size: 17px;&quot;&gt;Функции поиска моделей в каталоге, функция поиска технологий используемых в моделе&lt;/font&gt;" style="rounded=0;whiteSpace=wrap;html=1;" parent="1" vertex="1">
          <mxGeometry x="11082" y="798.7700000000003" width="310" height="90" as="geometry" />
        </mxCell>
        <mxCell id="GCTr9QXSKKTFIzKLw45c-9" value="&lt;font style=&quot;font-size: 17px;&quot;&gt;Функция развертывания модели из каталога&lt;/font&gt;" style="rounded=0;whiteSpace=wrap;html=1;" parent="1" vertex="1">
          <mxGeometry x="11084.5" y="906.2700000000002" width="315" height="103.11" as="geometry" />
        </mxCell>
        <mxCell id="GCTr9QXSKKTFIzKLw45c-10" value="&lt;font style=&quot;font-size: 16px;&quot;&gt;Интеграция с сервисами оценки этики и качества моделей&lt;/font&gt;" style="rounded=0;whiteSpace=wrap;html=1;" parent="1" vertex="1">
          <mxGeometry x="10723" y="1042.5200000000002" width="313.25" height="90" as="geometry" />
        </mxCell>
        <mxCell id="GCTr9QXSKKTFIzKLw45c-11" value="" style="rounded=0;whiteSpace=wrap;html=1;dashed=1;" parent="1" vertex="1">
          <mxGeometry x="14609.000000000002" y="916.8800000000001" width="1520" height="500" as="geometry" />
        </mxCell>
        <mxCell id="GCTr9QXSKKTFIzKLw45c-12" value="&lt;font style=&quot;font-size: 20px;&quot;&gt;&lt;b&gt;Работа с внешними кластерами&lt;/b&gt;&lt;/font&gt;" style="text;html=1;align=center;verticalAlign=middle;whiteSpace=wrap;rounded=0;" parent="1" vertex="1">
          <mxGeometry x="14616.750000000002" y="920.6300000000001" width="341" height="60" as="geometry" />
        </mxCell>
        <mxCell id="GCTr9QXSKKTFIzKLw45c-13" value="Архитектурно-технологическое решение по запускам подов во внешних кластерах" style="rounded=0;whiteSpace=wrap;html=1;fontSize=17;" parent="1" vertex="1">
          <mxGeometry x="14639.000000000002" y="984.3800000000001" width="290" height="100" as="geometry" />
        </mxCell>
        <mxCell id="GCTr9QXSKKTFIzKLw45c-14" value="" style="rounded=0;whiteSpace=wrap;html=1;fontSize=17;dashed=1;" parent="1" vertex="1">
          <mxGeometry x="14959.000000000002" y="986.8800000000001" width="580" height="200" as="geometry" />
        </mxCell>
        <mxCell id="GCTr9QXSKKTFIzKLw45c-15" value="&lt;font style=&quot;font-size: 15px;&quot;&gt;Разработка хаб сервиса интегрируемого во внешние кластера для получения ресурсов&lt;/font&gt;" style="rounded=0;whiteSpace=wrap;html=1;" parent="1" vertex="1">
          <mxGeometry x="14969.000000000002" y="1056.88" width="260" height="110" as="geometry" />
        </mxCell>
        <mxCell id="GCTr9QXSKKTFIzKLw45c-16" value="&lt;font style=&quot;font-size: 15px;&quot;&gt;Разработка сервиса получения ресурсов из внешнего кластера (Сервис интегрируемый во внешние кластера). Новые функции расчёта свободных ресурсов с ноды&lt;/font&gt;" style="rounded=0;whiteSpace=wrap;html=1;" parent="1" vertex="1">
          <mxGeometry x="15249.000000000002" y="1056.88" width="279.25" height="110" as="geometry" />
        </mxCell>
        <mxCell id="GCTr9QXSKKTFIzKLw45c-17" value="&lt;b&gt;&lt;font style=&quot;font-size: 15px;&quot;&gt;Получение информации о внешних кластерах&lt;/font&gt;&lt;/b&gt;" style="text;html=1;align=center;verticalAlign=middle;whiteSpace=wrap;rounded=0;" parent="1" vertex="1">
          <mxGeometry x="14979.000000000002" y="1005.6300000000001" width="320" height="30" as="geometry" />
        </mxCell>
        <mxCell id="GCTr9QXSKKTFIzKLw45c-18" value="&lt;font style=&quot;font-size: 16px;&quot;&gt;Запуск задания на расчёт (обучение модели)&lt;/font&gt;" style="rounded=0;whiteSpace=wrap;html=1;" parent="1" vertex="1">
          <mxGeometry x="14639.000000000002" y="1116.88" width="290" height="90" as="geometry" />
        </mxCell>
        <mxCell id="GCTr9QXSKKTFIzKLw45c-19" value="" style="rounded=0;whiteSpace=wrap;html=1;dashed=1;" parent="1" vertex="1">
          <mxGeometry x="14639.000000000002" y="1256.88" width="360" height="110" as="geometry" />
        </mxCell>
        <mxCell id="GCTr9QXSKKTFIzKLw45c-20" value="&lt;font style=&quot;font-size: 17px;&quot;&gt;Интерфейс&lt;/font&gt;" style="text;html=1;align=center;verticalAlign=middle;whiteSpace=wrap;rounded=0;" parent="1" vertex="1">
          <mxGeometry x="14639.000000000002" y="1256.88" width="110" height="30" as="geometry" />
        </mxCell>
        <mxCell id="GCTr9QXSKKTFIzKLw45c-21" value="&lt;font style=&quot;font-size: 14px;&quot;&gt;Страница управления запусками во внешних кластерах&lt;/font&gt;" style="rounded=0;whiteSpace=wrap;html=1;" parent="1" vertex="1">
          <mxGeometry x="14649.000000000002" y="1296.88" width="200" height="60" as="geometry" />
        </mxCell>
        <mxCell id="GCTr9QXSKKTFIzKLw45c-23" value="" style="rounded=0;whiteSpace=wrap;html=1;dashed=1;" parent="1" vertex="1">
          <mxGeometry x="15039.000000000002" y="1206.88" width="360" height="150" as="geometry" />
        </mxCell>
        <mxCell id="GCTr9QXSKKTFIzKLw45c-24" value="&lt;font style=&quot;font-size: 16px;&quot;&gt;Инфраструктура&lt;/font&gt;" style="text;html=1;align=center;verticalAlign=middle;whiteSpace=wrap;rounded=0;" parent="1" vertex="1">
          <mxGeometry x="15079.000000000002" y="1206.88" width="60" height="30" as="geometry" />
        </mxCell>
        <mxCell id="GCTr9QXSKKTFIzKLw45c-27" value="&lt;font style=&quot;font-size: 16px;&quot;&gt;Развертывание E.GateAway&lt;/font&gt;" style="rounded=0;whiteSpace=wrap;html=1;" parent="1" vertex="1">
          <mxGeometry x="15049.500000000002" y="1251.88" width="139.5" height="60" as="geometry" />
        </mxCell>
        <mxCell id="GCTr9QXSKKTFIzKLw45c-28" value="&lt;font style=&quot;font-size: 16px;&quot;&gt;Развертывание и настройка хаб-сервиса&lt;/font&gt;" style="rounded=0;whiteSpace=wrap;html=1;" parent="1" vertex="1">
          <mxGeometry x="15229.000000000002" y="1251.88" width="139.5" height="60" as="geometry" />
        </mxCell>
        <mxCell id="GCTr9QXSKKTFIzKLw45c-29" value="" style="rounded=0;whiteSpace=wrap;html=1;dashed=1;" parent="1" vertex="1">
          <mxGeometry x="15589.000000000002" y="980.6300000000001" width="500" height="150" as="geometry" />
        </mxCell>
        <mxCell id="GCTr9QXSKKTFIzKLw45c-30" value="&lt;font style=&quot;font-size: 16px;&quot;&gt;Безопасность&lt;/font&gt;" style="text;html=1;align=center;verticalAlign=middle;whiteSpace=wrap;rounded=0;" parent="1" vertex="1">
          <mxGeometry x="15599.000000000002" y="984.8800000000001" width="130" height="32" as="geometry" />
        </mxCell>
        <mxCell id="GCTr9QXSKKTFIzKLw45c-31" value="Конфигурирование политик во внешнем кластере для обеспечения доступа к внешним источникам" style="rounded=0;whiteSpace=wrap;html=1;fontSize=16;" parent="1" vertex="1">
          <mxGeometry x="15609.000000000002" y="1016.8800000000001" width="450" height="85" as="geometry" />
        </mxCell>
        <mxCell id="GCTr9QXSKKTFIzKLw45c-32" value="&lt;font style=&quot;font-size: 18px;&quot;&gt;Запуска расчётов через pipeline Airflow&lt;/font&gt;" style="rounded=0;whiteSpace=wrap;html=1;" parent="1" vertex="1">
          <mxGeometry x="15589.000000000002" y="1176.88" width="250" height="80" as="geometry" />
        </mxCell>
        <mxCell id="GCTr9QXSKKTFIzKLw45c-33" value="&lt;font style=&quot;font-size: 17px;&quot;&gt;Развертывание моделей во внешних кластерах&lt;/font&gt;" style="rounded=0;whiteSpace=wrap;html=1;" parent="1" vertex="1">
          <mxGeometry x="15589.000000000002" y="1309.38" width="250" height="80" as="geometry" />
        </mxCell>
        <mxCell id="GCTr9QXSKKTFIzKLw45c-34" value="" style="rounded=0;whiteSpace=wrap;html=1;dashed=1;" parent="1" vertex="1">
          <mxGeometry x="13148.37" y="763.64" width="640" height="331.36" as="geometry" />
        </mxCell>
        <mxCell id="GCTr9QXSKKTFIzKLw45c-35" value="&lt;font style=&quot;font-size: 22px;&quot;&gt;&lt;b&gt;Интеграционные решения&lt;/b&gt;&lt;/font&gt;" style="text;html=1;align=center;verticalAlign=middle;whiteSpace=wrap;rounded=0;" parent="1" vertex="1">
          <mxGeometry x="13164.370000000003" y="773.6399999999999" width="290" height="30" as="geometry" />
        </mxCell>
        <mxCell id="GCTr9QXSKKTFIzKLw45c-36" value="&lt;font style=&quot;font-size: 17px;&quot;&gt;Callbaсk сервер взаимодействия с моделями в ИИ&lt;/font&gt;" style="rounded=0;whiteSpace=wrap;html=1;fillColor=#d5e8d4;strokeColor=#82b366;" parent="1" vertex="1">
          <mxGeometry x="10718.000000000004" y="1221.8799999999999" width="270" height="90" as="geometry" />
        </mxCell>
        <mxCell id="GCTr9QXSKKTFIzKLw45c-37" value="&lt;font style=&quot;font-size: 17px;&quot;&gt;Взимодействие с моделями через очередь Rabbit&lt;/font&gt;" style="rounded=0;whiteSpace=wrap;html=1;" parent="1" vertex="1">
          <mxGeometry x="13164.370000000003" y="866.2699999999999" width="270" height="90" as="geometry" />
        </mxCell>
        <mxCell id="GCTr9QXSKKTFIzKLw45c-39" value="Реализация мультикомандности для ЭО" style="rounded=0;whiteSpace=wrap;html=1;fontSize=17;" parent="1" vertex="1">
          <mxGeometry x="13148.370000000003" y="1185.0000000000007" width="470" height="200" as="geometry" />
        </mxCell>
        <mxCell id="GCTr9QXSKKTFIzKLw45c-42" value="" style="rounded=0;whiteSpace=wrap;html=1;" parent="1" vertex="1">
          <mxGeometry x="10388" y="-2313.33" width="387.5" height="427.5" as="geometry" />
        </mxCell>
        <mxCell id="GCTr9QXSKKTFIzKLw45c-43" value="&lt;font style=&quot;font-size: 16px;&quot;&gt;&lt;b&gt;Обновление компонентов Платформы ИИ&lt;/b&gt;&lt;/font&gt;" style="text;html=1;align=center;verticalAlign=middle;whiteSpace=wrap;rounded=0;" parent="1" vertex="1">
          <mxGeometry x="10393" y="-2299.58" width="372.5" height="41.25" as="geometry" />
        </mxCell>
        <mxCell id="GCTr9QXSKKTFIzKLw45c-44" value="&lt;font style=&quot;font-size: 16px;&quot;&gt;Mlflow&lt;/font&gt;" style="rounded=0;whiteSpace=wrap;html=1;fillColor=#d5e8d4;strokeColor=#82b366;align=left;" parent="1" vertex="1">
          <mxGeometry x="10413" y="-2258.33" width="252.5" height="157.5" as="geometry" />
        </mxCell>
        <mxCell id="GCTr9QXSKKTFIzKLw45c-46" value="&lt;b&gt;Jupyter&lt;br&gt;есть проблемы&lt;/b&gt;" style="rounded=0;whiteSpace=wrap;html=1;" parent="1" vertex="1">
          <mxGeometry x="10418" y="-2060.83" width="130" height="60" as="geometry" />
        </mxCell>
        <mxCell id="GCTr9QXSKKTFIzKLw45c-47" value="&lt;b&gt;Gitlab&lt;/b&gt;" style="rounded=0;whiteSpace=wrap;html=1;fillColor=#d5e8d4;strokeColor=#82b366;" parent="1" vertex="1">
          <mxGeometry x="10418" y="-1970.83" width="130" height="60" as="geometry" />
        </mxCell>
        <mxCell id="GCTr9QXSKKTFIzKLw45c-48" value="&lt;b&gt;Airflow&lt;/b&gt;" style="rounded=0;whiteSpace=wrap;html=1;fillColor=#d5e8d4;strokeColor=#82b366;" parent="1" vertex="1">
          <mxGeometry x="10578" y="-1970.83" width="130" height="60" as="geometry" />
        </mxCell>
        <mxCell id="GCTr9QXSKKTFIzKLw45c-49" value="&lt;b&gt;Minio&lt;/b&gt;" style="rounded=0;whiteSpace=wrap;html=1;fillColor=#d5e8d4;strokeColor=#82b366;" parent="1" vertex="1">
          <mxGeometry x="10578" y="-2060.83" width="130" height="60" as="geometry" />
        </mxCell>
        <mxCell id="GtHpEKGIhtHiV-xiiAjq-1" value="Страница управления GPU для закрепеления за командами" style="rounded=0;whiteSpace=wrap;html=1;fontSize=17;fillColor=#d5e8d4;strokeColor=#82b366;" parent="1" vertex="1">
          <mxGeometry x="16323" y="-807.25" width="422" height="183.43" as="geometry" />
        </mxCell>
        <mxCell id="KMMrBIua10XZE69xEnJu-2" value="" style="rounded=0;whiteSpace=wrap;html=1;align=left;" parent="1" vertex="1">
          <mxGeometry x="12415" y="-869.9999999999999" width="550" height="213.12" as="geometry" />
        </mxCell>
        <mxCell id="KMMrBIua10XZE69xEnJu-4" value="&lt;b&gt;Предоставление доступов к новому кластеру&amp;nbsp;&lt;/b&gt;" style="text;html=1;align=center;verticalAlign=middle;whiteSpace=wrap;rounded=0;" parent="1" vertex="1">
          <mxGeometry x="12405" y="-862.5000000000001" width="350" height="30" as="geometry" />
        </mxCell>
        <mxCell id="KMMrBIua10XZE69xEnJu-5" value="Доступы, временные домены, проверка развертывания, проверка компонентов" style="rounded=0;whiteSpace=wrap;html=1;fillColor=#d5e8d4;strokeColor=#82b366;" parent="1" vertex="1">
          <mxGeometry x="10695" y="-963.44" width="160" height="135" as="geometry" />
        </mxCell>
        <mxCell id="KMMrBIua10XZE69xEnJu-6" value="Внесение изменений в Jupyter/Elyra/mlflow генерации манифестов" style="rounded=0;whiteSpace=wrap;html=1;fillColor=#d5e8d4;strokeColor=#82b366;" parent="1" vertex="1">
          <mxGeometry x="10885" y="-963.4399999999998" width="200" height="135" as="geometry" />
        </mxCell>
        <mxCell id="KMMrBIua10XZE69xEnJu-7" value="настройка адресации к моделям по новому адресу&amp;nbsp;models.aiplatform.mos.ru" style="rounded=0;whiteSpace=wrap;html=1;fillColor=#d5e8d4;strokeColor=#82b366;" parent="1" vertex="1">
          <mxGeometry x="11133" y="-958.4299999999998" width="200" height="135" as="geometry" />
        </mxCell>
        <mxCell id="KMMrBIua10XZE69xEnJu-8" value="" style="rounded=0;whiteSpace=wrap;html=1;dashed=1;" parent="1" vertex="1">
          <mxGeometry x="11786" y="-301.5600000000001" width="620" height="297.49" as="geometry" />
        </mxCell>
        <mxCell id="KMMrBIua10XZE69xEnJu-9" value="Статс" style="rounded=0;whiteSpace=wrap;html=1;align=left;" parent="1" vertex="1">
          <mxGeometry x="11796" y="-254.06999999999988" width="270" height="150" as="geometry" />
        </mxCell>
        <mxCell id="KMMrBIua10XZE69xEnJu-10" value="&lt;b&gt;Перенос продуктовых моделей в новый кластер&lt;/b&gt;" style="text;html=1;align=center;verticalAlign=middle;whiteSpace=wrap;rounded=0;" parent="1" vertex="1">
          <mxGeometry x="11786" y="-285.93999999999977" width="200" height="30" as="geometry" />
        </mxCell>
        <mxCell id="KMMrBIua10XZE69xEnJu-11" value="News" style="rounded=0;whiteSpace=wrap;html=1;fillColor=#d5e8d4;strokeColor=#82b366;" parent="1" vertex="1">
          <mxGeometry x="11866" y="-245.94000000000023" width="120" height="60" as="geometry" />
        </mxCell>
        <mxCell id="KMMrBIua10XZE69xEnJu-12" value="DGI (требуются сетевые связности)" style="rounded=0;whiteSpace=wrap;html=1;fillColor=#d5e8d4;strokeColor=#82b366;" parent="1" vertex="1">
          <mxGeometry x="11866" y="-174.06999999999988" width="120" height="60" as="geometry" />
        </mxCell>
        <mxCell id="KMMrBIua10XZE69xEnJu-13" value="модель АГ" style="rounded=0;whiteSpace=wrap;html=1;align=center;fillColor=#d5e8d4;strokeColor=#82b366;" parent="1" vertex="1">
          <mxGeometry x="12091" y="-90.93999999999981" width="170" height="63.43" as="geometry" />
        </mxCell>
        <mxCell id="KMMrBIua10XZE69xEnJu-14" value="Модель fgm-tool (Новиков А.)" style="rounded=0;whiteSpace=wrap;html=1;align=center;fillColor=#d5e8d4;strokeColor=#82b366;" parent="1" vertex="1">
          <mxGeometry x="11796" y="-86.56999999999992" width="190" height="60" as="geometry" />
        </mxCell>
        <mxCell id="KMMrBIua10XZE69xEnJu-15" value="ДУД" style="rounded=0;whiteSpace=wrap;html=1;align=left;" parent="1" vertex="1">
          <mxGeometry x="12091" y="-255.93999999999977" width="255" height="150" as="geometry" />
        </mxCell>
        <mxCell id="KMMrBIua10XZE69xEnJu-16" value="MOSGPT" style="rounded=0;whiteSpace=wrap;html=1;fillColor=#d5e8d4;strokeColor=#82b366;" parent="1" vertex="1">
          <mxGeometry x="12161" y="-248.44000000000023" width="120" height="60" as="geometry" />
        </mxCell>
        <mxCell id="KMMrBIua10XZE69xEnJu-17" value="async-server (2)" style="rounded=0;whiteSpace=wrap;html=1;fillColor=#d5e8d4;strokeColor=#82b366;" parent="1" vertex="1">
          <mxGeometry x="12161" y="-174.06999999999988" width="120" height="60" as="geometry" />
        </mxCell>
        <mxCell id="KMMrBIua10XZE69xEnJu-20" value="Предоставление доступов команде Олега С." style="rounded=0;whiteSpace=wrap;html=1;fillColor=#d5e8d4;strokeColor=#82b366;" parent="1" vertex="1">
          <mxGeometry x="11006.130000000001" y="-769.6899999999999" width="200" height="100" as="geometry" />
        </mxCell>
        <mxCell id="KMMrBIua10XZE69xEnJu-21" value="Подключение NFS к новому кластеру" style="rounded=0;whiteSpace=wrap;html=1;fillColor=#d5e8d4;strokeColor=#82b366;" parent="1" vertex="1">
          <mxGeometry x="10720" y="-772.1899999999998" width="200" height="100" as="geometry" />
        </mxCell>
        <mxCell id="KMMrBIua10XZE69xEnJu-25" value="Перенос сред обучения моделей" style="rounded=0;whiteSpace=wrap;html=1;fillColor=#d5e8d4;strokeColor=#82b366;" parent="1" vertex="1">
          <mxGeometry x="12437.5" y="-816.8800000000002" width="200" height="100" as="geometry" />
        </mxCell>
        <mxCell id="KMMrBIua10XZE69xEnJu-27" value="Переключение домена на&amp;nbsp;aiplatform.mos.ru&amp;nbsp;" style="rounded=0;whiteSpace=wrap;html=1;fillColor=#d5e8d4;strokeColor=#82b366;" parent="1" vertex="1">
          <mxGeometry x="12684.25" y="-811.88" width="200" height="100" as="geometry" />
        </mxCell>
        <mxCell id="KMMrBIua10XZE69xEnJu-31" value="Единая авторизация пользователей в модуль разметки" style="rounded=0;whiteSpace=wrap;html=1;fillColor=#d5e8d4;strokeColor=#82b366;" parent="1" vertex="1">
          <mxGeometry x="12668" y="-2835.34" width="160" height="166.7" as="geometry" />
        </mxCell>
        <mxCell id="KMMrBIua10XZE69xEnJu-32" value="Тестирование функций разметки фото, видео, аудио данных" style="rounded=0;whiteSpace=wrap;html=1;fillColor=#d5e8d4;strokeColor=#82b366;" parent="1" vertex="1">
          <mxGeometry x="12908" y="-2625.8100000000004" width="170" height="161.87" as="geometry" />
        </mxCell>
        <mxCell id="KMMrBIua10XZE69xEnJu-33" value="Разграничение прав доступа к объеткам разных команд" style="rounded=0;whiteSpace=wrap;html=1;fillColor=#d5e8d4;strokeColor=#82b366;" parent="1" vertex="1">
          <mxGeometry x="12908" y="-2833" width="170" height="161.87" as="geometry" />
        </mxCell>
        <mxCell id="KMMrBIua10XZE69xEnJu-34" value="Интеграция с компонентами платформы в части передачи и использования размеченных данных для обучения моделей" style="rounded=0;whiteSpace=wrap;html=1;fillColor=#d5e8d4;strokeColor=#82b366;" parent="1" vertex="1">
          <mxGeometry x="12668" y="-2625.8100000000004" width="160" height="161.87" as="geometry" />
        </mxCell>
        <mxCell id="0zRKcqBRlIFoqRzkqeEJ-2" value="Встраивание в интерфейс платформы в iframe новой версии Mlfow" style="rounded=0;whiteSpace=wrap;html=1;fillColor=#d5e8d4;strokeColor=#000000;" parent="1" vertex="1">
          <mxGeometry x="10505.5" y="-2210.83" width="131.25" height="67.5" as="geometry" />
        </mxCell>
        <mxCell id="0zRKcqBRlIFoqRzkqeEJ-4" value="&lt;b&gt;Конструктор образов&lt;/b&gt;" style="text;html=1;align=center;verticalAlign=middle;whiteSpace=wrap;rounded=0;strokeColor=none;" parent="1" vertex="1">
          <mxGeometry x="17272" y="-1034.4099999999999" width="150" height="30" as="geometry" />
        </mxCell>
        <mxCell id="0zRKcqBRlIFoqRzkqeEJ-11" style="edgeStyle=orthogonalEdgeStyle;rounded=0;orthogonalLoop=1;jettySize=auto;html=1;entryX=0;entryY=0.5;entryDx=0;entryDy=0;" parent="1" source="0zRKcqBRlIFoqRzkqeEJ-6" target="0zRKcqBRlIFoqRzkqeEJ-10" edge="1">
          <mxGeometry relative="1" as="geometry" />
        </mxCell>
        <mxCell id="0zRKcqBRlIFoqRzkqeEJ-6" value="Проектирование конструктора" style="rounded=0;whiteSpace=wrap;html=1;fillColor=#d5e8d4;strokeColor=#82b366;" parent="1" vertex="1">
          <mxGeometry x="17272" y="-958.7600000000002" width="180" height="52.51" as="geometry" />
        </mxCell>
        <mxCell id="0zRKcqBRlIFoqRzkqeEJ-13" style="edgeStyle=orthogonalEdgeStyle;rounded=0;orthogonalLoop=1;jettySize=auto;html=1;entryX=0.5;entryY=0;entryDx=0;entryDy=0;" parent="1" source="0zRKcqBRlIFoqRzkqeEJ-10" target="0zRKcqBRlIFoqRzkqeEJ-12" edge="1">
          <mxGeometry relative="1" as="geometry" />
        </mxCell>
        <mxCell id="0zRKcqBRlIFoqRzkqeEJ-27" style="edgeStyle=orthogonalEdgeStyle;rounded=0;orthogonalLoop=1;jettySize=auto;html=1;" parent="1" source="0zRKcqBRlIFoqRzkqeEJ-10" target="0zRKcqBRlIFoqRzkqeEJ-20" edge="1">
          <mxGeometry relative="1" as="geometry" />
        </mxCell>
        <mxCell id="0zRKcqBRlIFoqRzkqeEJ-10" value="реализация backend" style="rounded=0;whiteSpace=wrap;html=1;fillColor=#d5e8d4;strokeColor=#82b366;" parent="1" vertex="1">
          <mxGeometry x="17510" y="-958.7600000000002" width="147" height="52.51" as="geometry" />
        </mxCell>
        <mxCell id="0zRKcqBRlIFoqRzkqeEJ-15" style="edgeStyle=orthogonalEdgeStyle;rounded=0;orthogonalLoop=1;jettySize=auto;html=1;entryX=0.5;entryY=0;entryDx=0;entryDy=0;" parent="1" source="0zRKcqBRlIFoqRzkqeEJ-12" target="0zRKcqBRlIFoqRzkqeEJ-14" edge="1">
          <mxGeometry relative="1" as="geometry" />
        </mxCell>
        <mxCell id="0zRKcqBRlIFoqRzkqeEJ-12" value="Создание шаблона докерфайла" style="rounded=0;whiteSpace=wrap;html=1;fillColor=#d5e8d4;strokeColor=#82b366;" parent="1" vertex="1">
          <mxGeometry x="17510" y="-875.4800000000005" width="147" height="30" as="geometry" />
        </mxCell>
        <mxCell id="0zRKcqBRlIFoqRzkqeEJ-17" style="edgeStyle=orthogonalEdgeStyle;rounded=0;orthogonalLoop=1;jettySize=auto;html=1;" parent="1" source="0zRKcqBRlIFoqRzkqeEJ-14" target="0zRKcqBRlIFoqRzkqeEJ-16" edge="1">
          <mxGeometry relative="1" as="geometry" />
        </mxCell>
        <mxCell id="0zRKcqBRlIFoqRzkqeEJ-14" value="Методы наполнения шаблона нужными библиотеками, которые выбрал пользователь&amp;nbsp;" style="rounded=0;whiteSpace=wrap;html=1;fillColor=#d5e8d4;strokeColor=#82b366;" parent="1" vertex="1">
          <mxGeometry x="17510" y="-803.7700000000004" width="147" height="61.25" as="geometry" />
        </mxCell>
        <mxCell id="0zRKcqBRlIFoqRzkqeEJ-19" style="edgeStyle=orthogonalEdgeStyle;rounded=0;orthogonalLoop=1;jettySize=auto;html=1;entryX=0.5;entryY=0;entryDx=0;entryDy=0;" parent="1" source="0zRKcqBRlIFoqRzkqeEJ-16" target="0zRKcqBRlIFoqRzkqeEJ-18" edge="1">
          <mxGeometry relative="1" as="geometry" />
        </mxCell>
        <mxCell id="0zRKcqBRlIFoqRzkqeEJ-16" value="Функции выявления конфликтов при несовместимости версий библиотек" style="rounded=0;whiteSpace=wrap;html=1;fillColor=#d5e8d4;strokeColor=#82b366;" parent="1" vertex="1">
          <mxGeometry x="17510" y="-696.2600000000002" width="147" height="61.25" as="geometry" />
        </mxCell>
        <mxCell id="0zRKcqBRlIFoqRzkqeEJ-22" style="edgeStyle=orthogonalEdgeStyle;rounded=0;orthogonalLoop=1;jettySize=auto;html=1;entryX=0.5;entryY=0;entryDx=0;entryDy=0;" parent="1" source="0zRKcqBRlIFoqRzkqeEJ-18" target="0zRKcqBRlIFoqRzkqeEJ-21" edge="1">
          <mxGeometry relative="1" as="geometry" />
        </mxCell>
        <mxCell id="0zRKcqBRlIFoqRzkqeEJ-26" style="edgeStyle=orthogonalEdgeStyle;rounded=0;orthogonalLoop=1;jettySize=auto;html=1;entryX=0.5;entryY=0;entryDx=0;entryDy=0;" parent="1" source="0zRKcqBRlIFoqRzkqeEJ-18" target="0zRKcqBRlIFoqRzkqeEJ-25" edge="1">
          <mxGeometry relative="1" as="geometry" />
        </mxCell>
        <mxCell id="0zRKcqBRlIFoqRzkqeEJ-31" style="edgeStyle=orthogonalEdgeStyle;rounded=0;orthogonalLoop=1;jettySize=auto;html=1;entryX=0;entryY=0.5;entryDx=0;entryDy=0;" parent="1" source="0zRKcqBRlIFoqRzkqeEJ-18" target="0zRKcqBRlIFoqRzkqeEJ-30" edge="1">
          <mxGeometry relative="1" as="geometry" />
        </mxCell>
        <mxCell id="0zRKcqBRlIFoqRzkqeEJ-18" value="Сервис сборки образа" style="rounded=0;whiteSpace=wrap;html=1;fillColor=#d5e8d4;strokeColor=#82b366;" parent="1" vertex="1">
          <mxGeometry x="17510" y="-596.8900000000003" width="147" height="61.25" as="geometry" />
        </mxCell>
        <mxCell id="0zRKcqBRlIFoqRzkqeEJ-29" style="edgeStyle=orthogonalEdgeStyle;rounded=0;orthogonalLoop=1;jettySize=auto;html=1;entryX=0.5;entryY=0;entryDx=0;entryDy=0;" parent="1" source="0zRKcqBRlIFoqRzkqeEJ-20" target="0zRKcqBRlIFoqRzkqeEJ-28" edge="1">
          <mxGeometry relative="1" as="geometry" />
        </mxCell>
        <mxCell id="0zRKcqBRlIFoqRzkqeEJ-20" value="реализация backend" style="rounded=0;whiteSpace=wrap;html=1;fillColor=#d5e8d4;strokeColor=#82b366;" parent="1" vertex="1">
          <mxGeometry x="17720" y="-958.7600000000002" width="147" height="52.51" as="geometry" />
        </mxCell>
        <mxCell id="0zRKcqBRlIFoqRzkqeEJ-21" value="Настройка Nexus УДРВС для хранения образов" style="rounded=0;whiteSpace=wrap;html=1;fillColor=#dae8fc;strokeColor=#6c8ebf;" parent="1" vertex="1">
          <mxGeometry x="17377" y="-498.3100000000004" width="120" height="60" as="geometry" />
        </mxCell>
        <mxCell id="0zRKcqBRlIFoqRzkqeEJ-25" value="Тестирование конструктора образов" style="rounded=0;whiteSpace=wrap;html=1;fillColor=#dae8fc;strokeColor=#6c8ebf;" parent="1" vertex="1">
          <mxGeometry x="17510" y="-500.3299999999999" width="147" height="61.25" as="geometry" />
        </mxCell>
        <mxCell id="0zRKcqBRlIFoqRzkqeEJ-28" value="Разработка пользовательской страницы сборки образов" style="rounded=0;whiteSpace=wrap;html=1;fillColor=#d5e8d4;strokeColor=#82b366;" parent="1" vertex="1">
          <mxGeometry x="17720" y="-856.2800000000007" width="147" height="52.51" as="geometry" />
        </mxCell>
        <mxCell id="0zRKcqBRlIFoqRzkqeEJ-30" value="Сервис пополнения библиотек и версий драйверов" style="rounded=0;whiteSpace=wrap;html=1;fillColor=#d5e8d4;strokeColor=#82b366;" parent="1" vertex="1">
          <mxGeometry x="17697" y="-596.8900000000003" width="147" height="61.25" as="geometry" />
        </mxCell>
        <mxCell id="0zRKcqBRlIFoqRzkqeEJ-60" value="" style="rounded=0;whiteSpace=wrap;html=1;" parent="1" vertex="1">
          <mxGeometry x="11656" y="661.75" width="490" height="343.88" as="geometry" />
        </mxCell>
        <mxCell id="0zRKcqBRlIFoqRzkqeEJ-61" value="&lt;b&gt;Прочие работы&lt;/b&gt;" style="text;html=1;align=center;verticalAlign=middle;whiteSpace=wrap;rounded=0;" parent="1" vertex="1">
          <mxGeometry x="11585.2" y="668.13" width="280" height="30" as="geometry" />
        </mxCell>
        <mxCell id="0zRKcqBRlIFoqRzkqeEJ-63" value="реализация своих средств мониторинга компонентов сред обучения" style="rounded=0;whiteSpace=wrap;html=1;" parent="1" vertex="1">
          <mxGeometry x="11676" y="735.63" width="180" height="95" as="geometry" />
        </mxCell>
        <mxCell id="0zRKcqBRlIFoqRzkqeEJ-64" value="реализация своих средств мониторинга продуктовых моделей" style="rounded=0;whiteSpace=wrap;html=1;" parent="1" vertex="1">
          <mxGeometry x="11676" y="860.63" width="180" height="95" as="geometry" />
        </mxCell>
        <mxCell id="0zRKcqBRlIFoqRzkqeEJ-65" value="реализация своих средств алертинга компонентов сред обучения" style="rounded=0;whiteSpace=wrap;html=1;" parent="1" vertex="1">
          <mxGeometry x="11926" y="735.63" width="180" height="95" as="geometry" />
        </mxCell>
        <mxCell id="0zRKcqBRlIFoqRzkqeEJ-66" value="реализация своих средств алертинга продуктовых моделей" style="rounded=0;whiteSpace=wrap;html=1;" parent="1" vertex="1">
          <mxGeometry x="11926" y="861.27" width="180" height="95" as="geometry" />
        </mxCell>
        <mxCell id="0zRKcqBRlIFoqRzkqeEJ-69" value="Реализация нового алгоритма расчёта ресурсов с проверкой свободных ресурсов на нодах в кластере" style="rounded=0;whiteSpace=wrap;html=1;fontSize=16;fillColor=#d5e8d4;strokeColor=#82b366;" parent="1" vertex="1">
          <mxGeometry x="16331" y="-1055.46" width="420" height="196.71" as="geometry" />
        </mxCell>
        <mxCell id="0zRKcqBRlIFoqRzkqeEJ-71" value="&lt;font style=&quot;font-size: 18px;&quot;&gt;&lt;b&gt;Развитие Платформы ИИ&amp;nbsp;&lt;/b&gt;&lt;/font&gt;" style="text;html=1;align=center;verticalAlign=middle;whiteSpace=wrap;rounded=0;" parent="1" vertex="1">
          <mxGeometry x="12257.000000000002" y="715" width="440" height="30" as="geometry" />
        </mxCell>
        <mxCell id="0zRKcqBRlIFoqRzkqeEJ-75" value="&lt;b&gt;&lt;font style=&quot;font-size: 15px;&quot;&gt;Платформа разметки данных для МО и внешних пользователей&lt;/font&gt;&lt;/b&gt;" style="rounded=0;whiteSpace=wrap;html=1;" parent="1" vertex="1">
          <mxGeometry x="14609.000000000002" y="1509.5" width="380" height="142.5" as="geometry" />
        </mxCell>
        <mxCell id="0zRKcqBRlIFoqRzkqeEJ-76" value="&lt;font style=&quot;font-size: 21px;&quot;&gt;&lt;b&gt;Развитие Платформы ИИ 26 г.&lt;/b&gt;&lt;/font&gt;" style="text;html=1;align=center;verticalAlign=middle;whiteSpace=wrap;rounded=0;" parent="1" vertex="1">
          <mxGeometry x="14599.000000000002" y="808.1300000000001" width="390" height="108.75" as="geometry" />
        </mxCell>
        <mxCell id="0zRKcqBRlIFoqRzkqeEJ-77" value="&lt;b&gt;&lt;font style=&quot;font-size: 15px;&quot;&gt;Оптимизация инференса моделей&lt;/font&gt;&lt;/b&gt;" style="rounded=0;whiteSpace=wrap;html=1;" parent="1" vertex="1">
          <mxGeometry x="15059.000000000002" y="1509.5" width="380" height="142.5" as="geometry" />
        </mxCell>
        <mxCell id="0zRKcqBRlIFoqRzkqeEJ-78" value="&lt;b&gt;&lt;font style=&quot;font-size: 15px;&quot;&gt;Использование нескольких карт в 1 поде с моделью&lt;/font&gt;&lt;/b&gt;" style="rounded=0;whiteSpace=wrap;html=1;" parent="1" vertex="1">
          <mxGeometry x="15509.000000000002" y="1509.5" width="380" height="142.5" as="geometry" />
        </mxCell>
        <mxCell id="0zRKcqBRlIFoqRzkqeEJ-83" value="&lt;b&gt;&lt;font style=&quot;font-size: 16px;&quot;&gt;Техническая поддержка&amp;nbsp; пользователей&lt;/font&gt;&lt;/b&gt;" style="text;html=1;align=center;verticalAlign=middle;whiteSpace=wrap;rounded=0;" parent="1" vertex="1">
          <mxGeometry x="15173.38" y="-184.99999999999997" width="410" height="30" as="geometry" />
        </mxCell>
        <mxCell id="0zRKcqBRlIFoqRzkqeEJ-85" value="Поддержка 17 команд разработки моделей" style="rounded=0;whiteSpace=wrap;html=1;" parent="1" vertex="1">
          <mxGeometry x="15213.38" y="-146.23" width="120" height="60" as="geometry" />
        </mxCell>
        <mxCell id="0zRKcqBRlIFoqRzkqeEJ-86" value="Развертывание моделей, обученных вне платформы" style="rounded=0;whiteSpace=wrap;html=1;" parent="1" vertex="1">
          <mxGeometry x="15359.01" y="-146.23" width="120" height="60" as="geometry" />
        </mxCell>
        <mxCell id="0zRKcqBRlIFoqRzkqeEJ-87" value="Развертывание моделей, обученных вне платформы" style="rounded=0;whiteSpace=wrap;html=1;" parent="1" vertex="1">
          <mxGeometry x="15503.38" y="-146.22999999999988" width="120" height="60" as="geometry" />
        </mxCell>
        <mxCell id="0zRKcqBRlIFoqRzkqeEJ-88" value="Консультации по архитектурным решениям взаимодействия с моделями&amp;nbsp;" style="rounded=0;whiteSpace=wrap;html=1;" parent="1" vertex="1">
          <mxGeometry x="15213.38" y="-60" width="170" height="60" as="geometry" />
        </mxCell>
        <mxCell id="v0Q0wQqGMG4ni0H5uwCh-8" value="Заказ сетевых связностей" style="rounded=0;whiteSpace=wrap;html=1;fillColor=#d5e8d4;strokeColor=#82b366;" parent="1" vertex="1">
          <mxGeometry x="12066" y="31.409999999999982" width="175" height="96.09" as="geometry" />
        </mxCell>
        <mxCell id="zFWj_QeqgHHiI14j9sxT-1" style="edgeStyle=orthogonalEdgeStyle;rounded=0;orthogonalLoop=1;jettySize=auto;html=1;entryX=0;entryY=0.5;entryDx=0;entryDy=0;endArrow=none;endFill=0;" parent="1" source="4OpA59mFUHqF1ij6CXcK-5" target="v0Q0wQqGMG4ni0H5uwCh-28" edge="1">
          <mxGeometry relative="1" as="geometry" />
        </mxCell>
        <mxCell id="v0Q0wQqGMG4ni0H5uwCh-9" value="" style="ellipse;whiteSpace=wrap;html=1;aspect=fixed;fillColor=#dae8fc;strokeColor=#6c8ebf;" parent="1" vertex="1">
          <mxGeometry x="9900" y="-489.99999999999994" width="65" height="65" as="geometry" />
        </mxCell>
        <mxCell id="v0Q0wQqGMG4ni0H5uwCh-17" value="" style="endArrow=none;html=1;rounded=0;exitX=0.5;exitY=1;exitDx=0;exitDy=0;" parent="1" source="v0Q0wQqGMG4ni0H5uwCh-9" edge="1">
          <mxGeometry width="50" height="50" relative="1" as="geometry">
            <mxPoint x="11455" y="-213.28999999999996" as="sourcePoint" />
            <mxPoint x="10435" y="406.71000000000004" as="targetPoint" />
          </mxGeometry>
        </mxCell>
        <mxCell id="v0Q0wQqGMG4ni0H5uwCh-22" value="" style="endArrow=none;html=1;rounded=0;" parent="1" source="4OpA59mFUHqF1ij6CXcK-31" target="v0Q0wQqGMG4ni0H5uwCh-21" edge="1">
          <mxGeometry width="50" height="50" relative="1" as="geometry">
            <mxPoint x="10435" y="406.71000000000004" as="sourcePoint" />
            <mxPoint x="17065" y="406.71000000000004" as="targetPoint" />
          </mxGeometry>
        </mxCell>
        <mxCell id="v0Q0wQqGMG4ni0H5uwCh-21" value="2025" style="ellipse;whiteSpace=wrap;html=1;aspect=fixed;fillColor=#dae8fc;strokeColor=#6c8ebf;" parent="1" vertex="1">
          <mxGeometry x="13175" y="355.90999999999997" width="80.8" height="80.8" as="geometry" />
        </mxCell>
        <mxCell id="v0Q0wQqGMG4ni0H5uwCh-23" style="edgeStyle=orthogonalEdgeStyle;rounded=0;orthogonalLoop=1;jettySize=auto;html=1;entryX=0.571;entryY=0.001;entryDx=0;entryDy=0;entryPerimeter=0;" parent="1" source="v0Q0wQqGMG4ni0H5uwCh-21" target="0zRKcqBRlIFoqRzkqeEJ-70" edge="1">
          <mxGeometry relative="1" as="geometry" />
        </mxCell>
        <mxCell id="v0Q0wQqGMG4ni0H5uwCh-25" value="" style="endArrow=none;html=1;rounded=0;" parent="1" source="v0Q0wQqGMG4ni0H5uwCh-21" target="v0Q0wQqGMG4ni0H5uwCh-24" edge="1">
          <mxGeometry width="50" height="50" relative="1" as="geometry">
            <mxPoint x="13256" y="396.71000000000004" as="sourcePoint" />
            <mxPoint x="17065" y="406.71000000000004" as="targetPoint" />
          </mxGeometry>
        </mxCell>
        <mxCell id="v0Q0wQqGMG4ni0H5uwCh-27" style="edgeStyle=orthogonalEdgeStyle;rounded=0;orthogonalLoop=1;jettySize=auto;html=1;" parent="1" source="v0Q0wQqGMG4ni0H5uwCh-24" target="y0rBNbmr6j8nYNEE8hnT-1" edge="1">
          <mxGeometry relative="1" as="geometry" />
        </mxCell>
        <mxCell id="v0Q0wQqGMG4ni0H5uwCh-40" style="edgeStyle=orthogonalEdgeStyle;rounded=0;orthogonalLoop=1;jettySize=auto;html=1;endArrow=none;endFill=0;" parent="1" source="v0Q0wQqGMG4ni0H5uwCh-24" edge="1">
          <mxGeometry relative="1" as="geometry">
            <mxPoint x="15404.35" y="32.50000000000001" as="targetPoint" />
          </mxGeometry>
        </mxCell>
        <mxCell id="v0Q0wQqGMG4ni0H5uwCh-24" value="2026" style="ellipse;whiteSpace=wrap;html=1;aspect=fixed;fillColor=#dae8fc;strokeColor=#6c8ebf;" parent="1" vertex="1">
          <mxGeometry x="15363.6" y="351.69999999999993" width="80.8" height="80.8" as="geometry" />
        </mxCell>
        <mxCell id="4OpA59mFUHqF1ij6CXcK-12" style="edgeStyle=orthogonalEdgeStyle;rounded=0;orthogonalLoop=1;jettySize=auto;html=1;endArrow=none;endFill=0;" parent="1" source="v0Q0wQqGMG4ni0H5uwCh-28" target="KMMrBIua10XZE69xEnJu-2" edge="1">
          <mxGeometry relative="1" as="geometry" />
        </mxCell>
        <mxCell id="v0Q0wQqGMG4ni0H5uwCh-28" value="&lt;font color=&quot;#000000&quot;&gt;06.09.2024&lt;/font&gt;" style="ellipse;whiteSpace=wrap;html=1;aspect=fixed;fillColor=#d5e8d4;strokeColor=#82b366;" parent="1" vertex="1">
          <mxGeometry x="12655" y="-491.88" width="65" height="65" as="geometry" />
        </mxCell>
        <mxCell id="v0Q0wQqGMG4ni0H5uwCh-35" value="" style="endArrow=none;html=1;rounded=0;exitX=0.5;exitY=0;exitDx=0;exitDy=0;" parent="1" source="v0Q0wQqGMG4ni0H5uwCh-9" edge="1">
          <mxGeometry width="50" height="50" relative="1" as="geometry">
            <mxPoint x="10135" y="-653.29" as="sourcePoint" />
            <mxPoint x="10465" y="-1520" as="targetPoint" />
          </mxGeometry>
        </mxCell>
        <mxCell id="v0Q0wQqGMG4ni0H5uwCh-36" value="" style="endArrow=none;html=1;rounded=0;" parent="1" source="v0Q0wQqGMG4ni0H5uwCh-37" target="4OpA59mFUHqF1ij6CXcK-13" edge="1">
          <mxGeometry width="50" height="50" relative="1" as="geometry">
            <mxPoint x="10465" y="-1515.1599999999999" as="sourcePoint" />
            <mxPoint x="17316.3330078125" y="-1513.29" as="targetPoint" />
          </mxGeometry>
        </mxCell>
        <mxCell id="v0Q0wQqGMG4ni0H5uwCh-38" value="" style="endArrow=none;html=1;rounded=0;" parent="1" source="Qe2ctfDx3bP94FrgvdR_-32" target="v0Q0wQqGMG4ni0H5uwCh-37" edge="1">
          <mxGeometry width="50" height="50" relative="1" as="geometry">
            <mxPoint x="10465" y="-1515.1599999999999" as="sourcePoint" />
            <mxPoint x="17316.3330078125" y="-1513.29" as="targetPoint" />
          </mxGeometry>
        </mxCell>
        <mxCell id="Qe2ctfDx3bP94FrgvdR_-23" style="edgeStyle=orthogonalEdgeStyle;rounded=0;orthogonalLoop=1;jettySize=auto;html=1;entryX=0.5;entryY=1;entryDx=0;entryDy=0;endArrow=none;endFill=0;" parent="1" source="v0Q0wQqGMG4ni0H5uwCh-37" target="Qe2ctfDx3bP94FrgvdR_-22" edge="1">
          <mxGeometry relative="1" as="geometry" />
        </mxCell>
        <mxCell id="v0Q0wQqGMG4ni0H5uwCh-37" value="15.11.2024" style="ellipse;whiteSpace=wrap;html=1;aspect=fixed;fillColor=#dae8fc;strokeColor=#6c8ebf;" parent="1" vertex="1">
          <mxGeometry x="13395.130000000001" y="-1553.29" width="80" height="80" as="geometry" />
        </mxCell>
        <mxCell id="4OpA59mFUHqF1ij6CXcK-3" value="&lt;b&gt;Переезд в новый кластер Aiplatform-prod&lt;/b&gt;" style="text;html=1;align=center;verticalAlign=middle;whiteSpace=wrap;rounded=0;" parent="1" vertex="1">
          <mxGeometry x="10645" y="-1010.9400000000003" width="350" height="30" as="geometry" />
        </mxCell>
        <mxCell id="4OpA59mFUHqF1ij6CXcK-4" style="edgeStyle=orthogonalEdgeStyle;rounded=0;orthogonalLoop=1;jettySize=auto;html=1;entryX=0.433;entryY=1.003;entryDx=0;entryDy=0;entryPerimeter=0;endArrow=none;endFill=0;" parent="1" source="4OpA59mFUHqF1ij6CXcK-1" target="4OpA59mFUHqF1ij6CXcK-2" edge="1">
          <mxGeometry relative="1" as="geometry" />
        </mxCell>
        <mxCell id="4OpA59mFUHqF1ij6CXcK-11" style="edgeStyle=orthogonalEdgeStyle;rounded=0;orthogonalLoop=1;jettySize=auto;html=1;entryX=0.25;entryY=0;entryDx=0;entryDy=0;endArrow=none;endFill=0;" parent="1" source="4OpA59mFUHqF1ij6CXcK-5" target="4OpA59mFUHqF1ij6CXcK-9" edge="1">
          <mxGeometry relative="1" as="geometry" />
        </mxCell>
        <mxCell id="4OpA59mFUHqF1ij6CXcK-7" value="Перенос данных из старого кластера в новый" style="rounded=0;whiteSpace=wrap;html=1;align=center;fillColor=#d5e8d4;strokeColor=#82b366;" parent="1" vertex="1">
          <mxGeometry x="11792.869999999999" y="31.409999999999982" width="180" height="98.43" as="geometry" />
        </mxCell>
        <mxCell id="4OpA59mFUHqF1ij6CXcK-15" style="edgeStyle=orthogonalEdgeStyle;rounded=0;orthogonalLoop=1;jettySize=auto;html=1;entryX=0.5;entryY=1;entryDx=0;entryDy=0;endArrow=none;endFill=0;" parent="1" source="4OpA59mFUHqF1ij6CXcK-13" target="4OpA59mFUHqF1ij6CXcK-14" edge="1">
          <mxGeometry relative="1" as="geometry" />
        </mxCell>
        <mxCell id="4OpA59mFUHqF1ij6CXcK-13" value="1 кв. 2025" style="ellipse;whiteSpace=wrap;html=1;aspect=fixed;fillColor=#dae8fc;strokeColor=#6c8ebf;" parent="1" vertex="1">
          <mxGeometry x="18263" y="-1560.83" width="80" height="80" as="geometry" />
        </mxCell>
        <mxCell id="4OpA59mFUHqF1ij6CXcK-14" value="&lt;font style=&quot;font-size: 19px;&quot;&gt;&lt;b&gt;Сдача документации, закрытие контракта&lt;/b&gt;&lt;/font&gt;" style="rounded=0;whiteSpace=wrap;html=1;" parent="1" vertex="1">
          <mxGeometry x="18053" y="-1854.54" width="500" height="127" as="geometry" />
        </mxCell>
        <mxCell id="4OpA59mFUHqF1ij6CXcK-22" value="" style="endArrow=none;html=1;rounded=0;" parent="1" target="4OpA59mFUHqF1ij6CXcK-21" edge="1">
          <mxGeometry width="50" height="50" relative="1" as="geometry">
            <mxPoint x="10464" y="-1519" as="sourcePoint" />
            <mxPoint x="13395" y="-1513.29" as="targetPoint" />
          </mxGeometry>
        </mxCell>
        <mxCell id="4OpA59mFUHqF1ij6CXcK-23" style="edgeStyle=orthogonalEdgeStyle;rounded=0;orthogonalLoop=1;jettySize=auto;html=1;entryX=0.5;entryY=1;entryDx=0;entryDy=0;endArrow=none;endFill=0;" parent="1" source="4OpA59mFUHqF1ij6CXcK-21" target="GCTr9QXSKKTFIzKLw45c-42" edge="1">
          <mxGeometry relative="1" as="geometry" />
        </mxCell>
        <mxCell id="4OpA59mFUHqF1ij6CXcK-21" value="30.09.2024" style="ellipse;whiteSpace=wrap;html=1;aspect=fixed;fillColor=#dae8fc;strokeColor=#6c8ebf;" parent="1" vertex="1">
          <mxGeometry x="10541.75" y="-1560.83" width="80" height="80" as="geometry" />
        </mxCell>
        <mxCell id="4OpA59mFUHqF1ij6CXcK-24" value="&lt;span style=&quot;&quot;&gt;Мультисервинг модели,&amp;nbsp; приложение деплоя моделей&amp;nbsp;&lt;/span&gt;" style="rounded=0;whiteSpace=wrap;html=1;align=center;fillColor=#dae8fc;strokeColor=#6c8ebf;" parent="1" vertex="1">
          <mxGeometry x="10394" y="644" width="204.37" height="169.15" as="geometry" />
        </mxCell>
        <mxCell id="4OpA59mFUHqF1ij6CXcK-27" value="Умная баланосировка внутри пода между разными контейнерами" style="rounded=0;whiteSpace=wrap;html=1;" parent="1" vertex="1">
          <mxGeometry x="13646.740000000002" y="1186.29" width="138" height="189" as="geometry" />
        </mxCell>
        <mxCell id="4OpA59mFUHqF1ij6CXcK-29" value="" style="endArrow=none;html=1;rounded=0;" parent="1" target="4OpA59mFUHqF1ij6CXcK-28" edge="1">
          <mxGeometry width="50" height="50" relative="1" as="geometry">
            <mxPoint x="10435" y="406.71000000000004" as="sourcePoint" />
            <mxPoint x="13175" y="396.71000000000004" as="targetPoint" />
          </mxGeometry>
        </mxCell>
        <mxCell id="4OpA59mFUHqF1ij6CXcK-30" style="edgeStyle=orthogonalEdgeStyle;rounded=0;orthogonalLoop=1;jettySize=auto;html=1;endArrow=none;endFill=0;" parent="1" source="4OpA59mFUHqF1ij6CXcK-28" edge="1" target="NFoID1fx7Li7X_geI93Q-2">
          <mxGeometry relative="1" as="geometry">
            <mxPoint x="10864" y="559" as="targetPoint" />
          </mxGeometry>
        </mxCell>
        <mxCell id="4OpA59mFUHqF1ij6CXcK-28" value="2025" style="ellipse;whiteSpace=wrap;html=1;aspect=fixed;fillColor=#dae8fc;strokeColor=#6c8ebf;" parent="1" vertex="1">
          <mxGeometry x="10824.599999999999" y="366.71000000000004" width="80.8" height="80.8" as="geometry" />
        </mxCell>
        <mxCell id="4OpA59mFUHqF1ij6CXcK-32" value="" style="endArrow=none;html=1;rounded=0;" parent="1" source="4OpA59mFUHqF1ij6CXcK-28" target="4OpA59mFUHqF1ij6CXcK-31" edge="1">
          <mxGeometry width="50" height="50" relative="1" as="geometry">
            <mxPoint x="10905" y="406.71000000000004" as="sourcePoint" />
            <mxPoint x="13175" y="396.71000000000004" as="targetPoint" />
          </mxGeometry>
        </mxCell>
        <mxCell id="4OpA59mFUHqF1ij6CXcK-31" value="2025" style="ellipse;whiteSpace=wrap;html=1;aspect=fixed;fillColor=#dae8fc;strokeColor=#6c8ebf;" parent="1" vertex="1">
          <mxGeometry x="11865.2" y="362.50000000000006" width="80.8" height="80.8" as="geometry" />
        </mxCell>
        <mxCell id="4OpA59mFUHqF1ij6CXcK-33" style="edgeStyle=orthogonalEdgeStyle;rounded=0;orthogonalLoop=1;jettySize=auto;html=1;entryX=0.859;entryY=-0.101;entryDx=0;entryDy=0;entryPerimeter=0;endArrow=none;endFill=0;" parent="1" source="4OpA59mFUHqF1ij6CXcK-31" target="0zRKcqBRlIFoqRzkqeEJ-61" edge="1">
          <mxGeometry relative="1" as="geometry" />
        </mxCell>
        <mxCell id="zFWj_QeqgHHiI14j9sxT-2" value="" style="edgeStyle=orthogonalEdgeStyle;rounded=0;orthogonalLoop=1;jettySize=auto;html=1;entryX=0;entryY=0.5;entryDx=0;entryDy=0;endArrow=none;endFill=0;" parent="1" source="v0Q0wQqGMG4ni0H5uwCh-9" target="4OpA59mFUHqF1ij6CXcK-5" edge="1">
          <mxGeometry relative="1" as="geometry">
            <mxPoint x="9965" y="-457" as="sourcePoint" />
            <mxPoint x="12655" y="-459" as="targetPoint" />
          </mxGeometry>
        </mxCell>
        <mxCell id="4OpA59mFUHqF1ij6CXcK-5" value="&lt;font color=&quot;#000000&quot;&gt;22.07.2024&lt;/font&gt;" style="ellipse;whiteSpace=wrap;html=1;aspect=fixed;fillColor=#d5e8d4;strokeColor=#82b366;" parent="1" vertex="1">
          <mxGeometry x="11898.5" y="-491.88" width="65" height="65" as="geometry" />
        </mxCell>
        <mxCell id="4OpA59mFUHqF1ij6CXcK-1" value="&lt;font color=&quot;#000000&quot;&gt;28.06.2024&lt;/font&gt;" style="ellipse;whiteSpace=wrap;html=1;aspect=fixed;fillColor=#d5e8d4;strokeColor=#82b366;" parent="1" vertex="1">
          <mxGeometry x="10917" y="-499.99999999999994" width="65" height="65" as="geometry" />
        </mxCell>
        <mxCell id="Qe2ctfDx3bP94FrgvdR_-2" value="&lt;font style=&quot;font-size: 17px;&quot;&gt;&lt;b&gt;Сервис уведомлений&lt;/b&gt;&lt;/font&gt;" style="text;html=1;align=center;verticalAlign=middle;whiteSpace=wrap;rounded=0;" parent="1" vertex="1">
          <mxGeometry x="13183.37" y="-2822" width="270" height="30" as="geometry" />
        </mxCell>
        <mxCell id="Qe2ctfDx3bP94FrgvdR_-7" style="edgeStyle=orthogonalEdgeStyle;rounded=0;orthogonalLoop=1;jettySize=auto;html=1;entryX=0;entryY=0.5;entryDx=0;entryDy=0;" parent="1" source="Qe2ctfDx3bP94FrgvdR_-3" target="Qe2ctfDx3bP94FrgvdR_-6" edge="1">
          <mxGeometry relative="1" as="geometry">
            <Array as="points">
              <mxPoint x="13274.37" y="-2628" />
            </Array>
          </mxGeometry>
        </mxCell>
        <mxCell id="Qe2ctfDx3bP94FrgvdR_-3" value="&lt;font style=&quot;font-size: 14px;&quot;&gt;Отправка на электронную почту&lt;/font&gt;" style="rounded=0;whiteSpace=wrap;html=1;fillColor=#d5e8d4;strokeColor=#82b366;" parent="1" vertex="1">
          <mxGeometry x="13214.17" y="-2776" width="120" height="60" as="geometry" />
        </mxCell>
        <mxCell id="Qe2ctfDx3bP94FrgvdR_-8" style="edgeStyle=orthogonalEdgeStyle;rounded=0;orthogonalLoop=1;jettySize=auto;html=1;" parent="1" source="Qe2ctfDx3bP94FrgvdR_-4" target="Qe2ctfDx3bP94FrgvdR_-6" edge="1">
          <mxGeometry relative="1" as="geometry" />
        </mxCell>
        <mxCell id="Qe2ctfDx3bP94FrgvdR_-4" value="&lt;font style=&quot;font-size: 14px;&quot;&gt;Отправка на электронную почту&lt;/font&gt;" style="rounded=0;whiteSpace=wrap;html=1;fillColor=#d5e8d4;strokeColor=#82b366;" parent="1" vertex="1">
          <mxGeometry x="13374.37" y="-2776" width="120" height="60" as="geometry" />
        </mxCell>
        <mxCell id="Qe2ctfDx3bP94FrgvdR_-9" style="edgeStyle=orthogonalEdgeStyle;rounded=0;orthogonalLoop=1;jettySize=auto;html=1;entryX=1;entryY=0.5;entryDx=0;entryDy=0;" parent="1" source="Qe2ctfDx3bP94FrgvdR_-5" target="Qe2ctfDx3bP94FrgvdR_-6" edge="1">
          <mxGeometry relative="1" as="geometry">
            <Array as="points">
              <mxPoint x="13591.37" y="-2628" />
            </Array>
          </mxGeometry>
        </mxCell>
        <mxCell id="Qe2ctfDx3bP94FrgvdR_-5" value="&lt;font style=&quot;font-size: 14px;&quot;&gt;Вспылвающие уведомления в UI&lt;/font&gt;" style="rounded=0;whiteSpace=wrap;html=1;fillColor=#d5e8d4;strokeColor=#82b366;" parent="1" vertex="1">
          <mxGeometry x="13537.37" y="-2776" width="120" height="60" as="geometry" />
        </mxCell>
        <mxCell id="Qe2ctfDx3bP94FrgvdR_-11" style="edgeStyle=orthogonalEdgeStyle;rounded=0;orthogonalLoop=1;jettySize=auto;html=1;" parent="1" source="Qe2ctfDx3bP94FrgvdR_-6" target="Qe2ctfDx3bP94FrgvdR_-10" edge="1">
          <mxGeometry relative="1" as="geometry" />
        </mxCell>
        <mxCell id="Qe2ctfDx3bP94FrgvdR_-6" value="Тестирование dev" style="rounded=0;whiteSpace=wrap;html=1;fillColor=#dae8fc;strokeColor=#6c8ebf;" parent="1" vertex="1">
          <mxGeometry x="13374.37" y="-2657.81" width="120" height="60" as="geometry" />
        </mxCell>
        <mxCell id="Qe2ctfDx3bP94FrgvdR_-13" style="edgeStyle=orthogonalEdgeStyle;rounded=0;orthogonalLoop=1;jettySize=auto;html=1;entryX=0;entryY=0.5;entryDx=0;entryDy=0;" parent="1" source="Qe2ctfDx3bP94FrgvdR_-10" target="Qe2ctfDx3bP94FrgvdR_-12" edge="1">
          <mxGeometry relative="1" as="geometry" />
        </mxCell>
        <mxCell id="Qe2ctfDx3bP94FrgvdR_-10" value="Конфигурирование среды в prod" style="rounded=0;whiteSpace=wrap;html=1;fillColor=#dae8fc;strokeColor=#6c8ebf;" parent="1" vertex="1">
          <mxGeometry x="13374.37" y="-2570" width="120" height="60" as="geometry" />
        </mxCell>
        <mxCell id="Qe2ctfDx3bP94FrgvdR_-12" value="Обновление prod" style="rounded=0;whiteSpace=wrap;html=1;fillColor=#dae8fc;strokeColor=#6c8ebf;" parent="1" vertex="1">
          <mxGeometry x="13661.37" y="-2570" width="120" height="60" as="geometry" />
        </mxCell>
        <mxCell id="Qe2ctfDx3bP94FrgvdR_-15" value="&lt;b&gt;&lt;font style=&quot;font-size: 15px;&quot;&gt;Статический анализатор кода&lt;/font&gt;&lt;/b&gt;" style="text;html=1;align=center;verticalAlign=middle;whiteSpace=wrap;rounded=0;" parent="1" vertex="1">
          <mxGeometry x="12489" y="-2380" width="244" height="30" as="geometry" />
        </mxCell>
        <mxCell id="Qe2ctfDx3bP94FrgvdR_-19" style="edgeStyle=orthogonalEdgeStyle;rounded=0;orthogonalLoop=1;jettySize=auto;html=1;entryX=0.5;entryY=0;entryDx=0;entryDy=0;" parent="1" source="Qe2ctfDx3bP94FrgvdR_-16" target="Qe2ctfDx3bP94FrgvdR_-18" edge="1">
          <mxGeometry relative="1" as="geometry" />
        </mxCell>
        <mxCell id="Qe2ctfDx3bP94FrgvdR_-16" value="тестирование dev" style="rounded=0;whiteSpace=wrap;html=1;fillColor=#d5e8d4;strokeColor=#82b366;" parent="1" vertex="1">
          <mxGeometry x="12755" y="-2335" width="120" height="90" as="geometry" />
        </mxCell>
        <mxCell id="Qe2ctfDx3bP94FrgvdR_-21" style="edgeStyle=orthogonalEdgeStyle;rounded=0;orthogonalLoop=1;jettySize=auto;html=1;entryX=0;entryY=0.5;entryDx=0;entryDy=0;" parent="1" source="Qe2ctfDx3bP94FrgvdR_-18" target="Qe2ctfDx3bP94FrgvdR_-20" edge="1">
          <mxGeometry relative="1" as="geometry" />
        </mxCell>
        <mxCell id="Qe2ctfDx3bP94FrgvdR_-18" value="Заказ ВМ и досутпы до NFS диска в prod" style="rounded=0;whiteSpace=wrap;html=1;fillColor=#dae8fc;strokeColor=#6c8ebf;" parent="1" vertex="1">
          <mxGeometry x="12755" y="-2196" width="120" height="90" as="geometry" />
        </mxCell>
        <mxCell id="Qe2ctfDx3bP94FrgvdR_-20" value="Обновление prod" style="rounded=0;whiteSpace=wrap;html=1;fillColor=#dae8fc;strokeColor=#6c8ebf;" parent="1" vertex="1">
          <mxGeometry x="12936" y="-2196" width="120" height="90" as="geometry" />
        </mxCell>
        <mxCell id="Qe2ctfDx3bP94FrgvdR_-24" value="Выбор ядра с версией Python в запущенном юпитер сервере" style="rounded=0;whiteSpace=wrap;html=1;fontSize=17;fillColor=#d5e8d4;strokeColor=#82b366;" parent="1" vertex="1">
          <mxGeometry x="13180" y="-2389" width="350" height="164.36" as="geometry" />
        </mxCell>
        <mxCell id="Qe2ctfDx3bP94FrgvdR_-29" style="edgeStyle=orthogonalEdgeStyle;rounded=0;orthogonalLoop=1;jettySize=auto;html=1;" parent="1" source="Qe2ctfDx3bP94FrgvdR_-25" target="Qe2ctfDx3bP94FrgvdR_-27" edge="1">
          <mxGeometry relative="1" as="geometry">
            <Array as="points">
              <mxPoint x="16041" y="-1372" />
              <mxPoint x="17154" y="-1372" />
            </Array>
          </mxGeometry>
        </mxCell>
        <mxCell id="Qe2ctfDx3bP94FrgvdR_-25" value="31.03.2025" style="ellipse;whiteSpace=wrap;html=1;aspect=fixed;fillColor=#dae8fc;strokeColor=#6c8ebf;" parent="1" vertex="1">
          <mxGeometry x="16001" y="-1563" width="80" height="80" as="geometry" />
        </mxCell>
        <mxCell id="Qe2ctfDx3bP94FrgvdR_-26" value="Предподгатовленные образы для разных типов задач?" style="rounded=0;whiteSpace=wrap;html=1;" parent="1" vertex="1">
          <mxGeometry x="17277" y="-364.04" width="153" height="60" as="geometry" />
        </mxCell>
        <mxCell id="Qe2ctfDx3bP94FrgvdR_-28" value="&lt;b&gt;&lt;font style=&quot;font-size: 17px;&quot;&gt;Техническое задание 24-25 год 2 ЭТАП&lt;/font&gt;&lt;/b&gt;" style="text;html=1;align=center;verticalAlign=middle;whiteSpace=wrap;rounded=0;" parent="1" vertex="1">
          <mxGeometry x="16308" y="-1131.8700000000001" width="386" height="30" as="geometry" />
        </mxCell>
        <mxCell id="Qe2ctfDx3bP94FrgvdR_-33" value="" style="endArrow=none;html=1;rounded=0;" parent="1" source="4OpA59mFUHqF1ij6CXcK-21" target="Qe2ctfDx3bP94FrgvdR_-32" edge="1">
          <mxGeometry width="50" height="50" relative="1" as="geometry">
            <mxPoint x="10622" y="-1521" as="sourcePoint" />
            <mxPoint x="13395" y="-1513" as="targetPoint" />
          </mxGeometry>
        </mxCell>
        <mxCell id="Qe2ctfDx3bP94FrgvdR_-34" style="edgeStyle=orthogonalEdgeStyle;rounded=0;orthogonalLoop=1;jettySize=auto;html=1;entryX=0.5;entryY=0;entryDx=0;entryDy=0;" parent="1" source="Qe2ctfDx3bP94FrgvdR_-32" target="vXsJCSpQS5DEUu_Gp0zB-65" edge="1">
          <mxGeometry relative="1" as="geometry" />
        </mxCell>
        <mxCell id="Qe2ctfDx3bP94FrgvdR_-32" value="31.10.2025" style="ellipse;whiteSpace=wrap;html=1;aspect=fixed;fillColor=#dae8fc;strokeColor=#6c8ebf;" parent="1" vertex="1">
          <mxGeometry x="11596" y="-1560.83" width="80" height="80" as="geometry" />
        </mxCell>
        <mxCell id="Qe2ctfDx3bP94FrgvdR_-35" value="Сервис управления ресурсами" style="rounded=0;whiteSpace=wrap;html=1;fillColor=#dae8fc;strokeColor=#6c8ebf;" parent="1" vertex="1">
          <mxGeometry x="10397" y="863.59" width="200" height="162.41" as="geometry" />
        </mxCell>
        <mxCell id="Qe2ctfDx3bP94FrgvdR_-36" value="Сервис остановки моделей" style="rounded=0;whiteSpace=wrap;html=1;fillColor=#dae8fc;strokeColor=#6c8ebf;" parent="1" vertex="1">
          <mxGeometry x="10398" y="1060.6799999999998" width="200" height="121.32" as="geometry" />
        </mxCell>
        <mxCell id="cnzuw6Rf9EqvfLV1IEt6-2" value="Интерфейс развертывания моделей обученных вне платформы ИИ" style="rounded=0;whiteSpace=wrap;html=1;fillColor=#dae8fc;strokeColor=#6c8ebf;" vertex="1" parent="1">
          <mxGeometry x="10401.68" y="1218.38" width="189" height="107" as="geometry" />
        </mxCell>
        <mxCell id="cnzuw6Rf9EqvfLV1IEt6-3" value="&lt;span style=&quot;font-size: 16px;&quot;&gt;Проверка ADC от АренаДата под решение каталога моделей&lt;/span&gt;" style="rounded=0;whiteSpace=wrap;html=1;fillColor=#dae8fc;strokeColor=#6c8ebf;" vertex="1" parent="1">
          <mxGeometry x="11091.25" y="1042" width="313.75" height="89.88" as="geometry" />
        </mxCell>
        <mxCell id="cnzuw6Rf9EqvfLV1IEt6-4" value="&lt;font style=&quot;font-size: 17px;&quot;&gt;WS-сервер с параметром выбора типа очереди&lt;/font&gt;" style="rounded=0;whiteSpace=wrap;html=1;fillColor=#d5e8d4;strokeColor=#82b366;" vertex="1" parent="1">
          <mxGeometry x="11042.000000000004" y="1216.8799999999999" width="270" height="90" as="geometry" />
        </mxCell>
      </root>
    </mxGraphModel>
  </diagram>
</mxfile>
